<svg xmlns:xlink="http://www.w3.org/1999/xlink" xmlns="http://www.w3.org/2000/svg" width="178" height="156" viewBox="0 0 178 156" fill="none">
<path fill-rule="evenodd" clip-rule="evenodd" d="M162.43 127.465C162.43 127.465 169.756 129.163 170.627 129.7L177.378 133.86C177.378 133.86 177.086 135.246 175.213 134.864C173.34 134.482 168.503 134.262 168.503 134.262L162.43 127.465Z" fill="#F8648E"/>
<path fill-rule="evenodd" clip-rule="evenodd" d="M28.8544 104.204C28.8544 104.204 28.2935 107.25 31.3677 109.532C34.4421 111.815 40.0901 113.884 40.0901 113.884L43.1641 104.324L28.8544 104.204Z" fill="#2E0BFF"/>
<path fill-rule="evenodd" clip-rule="evenodd" d="M36.2011 133.166C34.9958 133.394 33.812 133.728 32.632 134.065C29.8562 134.856 26.8683 135.791 23.9657 135.137C23.2614 134.979 22.539 134.747 21.9344 134.345C21.4011 133.991 20.9789 133.509 20.6386 132.971C20.4172 132.621 20.2202 132.26 20.0226 131.901L23.6468 123.659L32.954 102.297C33.8796 100.172 36.2733 99.114 38.4788 99.8361C42.3671 101.109 47.5717 104.423 47.2726 113.04C47.254 113.567 47.0639 114.074 46.7335 114.485C44.8743 116.798 38.2881 125.168 36.0866 130.293C35.7639 131.045 35.882 132.025 36.2011 133.166Z" fill="#F8648E"/>
<path fill-rule="evenodd" clip-rule="evenodd" d="M13.3842 136.121C15.2782 135.099 16.8916 133.632 18.0868 131.844L20.9434 127.571C21.486 126.928 22.4291 126.801 23.1233 127.277L25.6333 128.997C26.5868 129.65 26.8054 130.944 26.1551 131.899C25.5741 132.752 25.2227 133.72 26.1422 134.18C27.981 135.102 31.5849 133.116 33.5945 131.243C34.2851 130.599 35.0771 130.557 35.8188 130.778C36.7852 131.07 37.4045 132.01 37.2895 133.011L36.9937 135.589C36.8386 136.941 36.9023 138.308 37.1819 139.638C37.2392 139.913 37.3596 140.171 37.5216 140.401L38.8394 142.269C39.1185 142.665 39.2579 143.145 39.2279 143.627C39.1203 145.357 38.3286 146.483 36.4678 146.916C31.786 148.008 23.0639 148.299 15.8774 149.389C11.7332 150.019 6.91251 150.098 3.14509 149.228C2.40923 149.058 1.24221 148.622 0.71253 147.991C0.458609 147.688 0.485526 147.239 0.745541 146.941L1.72161 145.822C1.72466 145.675 1.76936 143.956 1.80516 143.813C2.09082 142.674 2.62201 142.144 3.64506 141.551C7.22661 139.474 10.9267 137.448 13.3842 136.121Z" fill="#FFAA00"/>
<mask id="mask0" mask-type="alpha" maskUnits="userSpaceOnUse" x="0" y="140" width="41" height="10">
<path fill-rule="evenodd" clip-rule="evenodd" d="M40.4861 140.198H0.328209V149.935H40.4861V140.198Z" fill="white"/>
</mask>
<g mask="url(#mask0)">
<path fill-rule="evenodd" clip-rule="evenodd" d="M36.7297 140.387C39.6584 139.21 42.092 143.848 39.1602 145.794C39.1214 145.82 36.7302 148.628 22.2169 149.128C16.975 149.308 3.01593 151.419 0.355098 147.99C0.355098 147.99 -0.0892612 145.347 2.62743 146.06C6.42456 147.057 8.84747 147.487 21.4305 144.919C28.1586 143.545 34.2667 141.376 36.7297 140.387Z" fill="#2E0BFF"/>
</g>
<path fill-rule="evenodd" clip-rule="evenodd" d="M34.3707 134.556L33.8192 135.671L32.5862 135.85L33.4782 136.718L33.2677 137.944L34.3707 137.365L35.474 137.944L35.2632 136.718L36.1555 135.85L34.9222 135.671L34.3707 134.556Z" fill="#2E0BFF"/>
<path fill-rule="evenodd" clip-rule="evenodd" d="M28.8113 138.409L28.9789 139.641L28.0567 140.478L29.2831 140.7L29.7953 141.833L30.3854 140.738L31.6243 140.602L30.7627 139.703L31.0161 138.486L29.8936 139.026L28.8113 138.409Z" fill="#2E0BFF"/>
<path fill-rule="evenodd" clip-rule="evenodd" d="M23.8785 135.413L24.0461 136.645L23.1241 137.481L24.3503 137.703L24.8627 138.837L25.4525 137.741L26.6914 137.605L25.8301 136.707L26.0833 135.489L24.9607 136.029L23.8785 135.413Z" fill="#2E0BFF"/>
<path fill-rule="evenodd" clip-rule="evenodd" d="M21.9481 129.42L22.1159 130.652L21.1937 131.489L22.4198 131.71L22.9323 132.844L23.5224 131.749L24.761 131.613L23.8997 130.714L24.1531 129.497L23.0303 130.037L21.9481 129.42Z" fill="#2E0BFF"/>
<path fill-rule="evenodd" clip-rule="evenodd" d="M18.6334 133.357L17.9295 134.383L16.683 134.386L17.4432 135.371L17.0611 136.554L18.2352 136.138L19.2451 136.866L19.21 135.623L20.2166 134.89L19.0211 134.538L18.6334 133.357Z" fill="#2E0BFF"/>
<path fill-rule="evenodd" clip-rule="evenodd" d="M13.0317 138.835L13.0634 140.078L12.0551 140.809L13.2498 141.163L13.6348 142.345L14.3414 141.321H15.5874L14.8297 140.334L15.2149 139.151L14.0398 139.566L13.0317 138.835Z" fill="#2E0BFF"/>
<path fill-rule="evenodd" clip-rule="evenodd" d="M14.8423 144.204L14.874 145.447L13.8657 146.178L15.0604 146.532L15.4453 147.715L16.152 146.691H17.3979L16.6403 145.704L17.0255 144.521L15.8503 144.935L14.8423 144.204Z" fill="#2E0BFF"/>
<path fill-rule="evenodd" clip-rule="evenodd" d="M10.0347 142.793L8.88167 143.265L7.83856 142.584L7.93226 143.825L6.96126 144.604L8.17222 144.899L8.61555 146.061L9.27042 145.003L10.5151 144.941L9.70894 143.993L10.0347 142.793Z" fill="#2E0BFF"/>
<path fill-rule="evenodd" clip-rule="evenodd" d="M7.79795 139.157L8.17832 139.25L8.62192 140.412L9.27653 139.354L10.5212 139.292L9.71505 138.344L9.7798 138.106" fill="#2E0BFF"/>
<path fill-rule="evenodd" clip-rule="evenodd" d="M1.70681 145.686L2.61559 145.057L3.78565 145.485L3.41493 144.298L4.18481 143.32L2.93883 143.305L2.41042 142.519C2.41042 142.519 1.93915 143.002 1.80533 143.813C1.67101 144.625 1.70681 145.686 1.70681 145.686Z" fill="#2E0BFF"/>
<path fill-rule="evenodd" clip-rule="evenodd" d="M18.948 139.266L19.3081 140.457L18.5293 141.428L19.7753 141.454L20.4599 142.493L20.8697 141.319L22.0718 140.99L21.0795 140.238L21.1376 138.996L20.1141 139.705L18.948 139.266Z" fill="#2E0BFF"/>
<path fill-rule="evenodd" clip-rule="evenodd" d="M24.0127 142.367L24.3725 143.557L23.594 144.528L24.8398 144.555L25.5243 145.594L25.9344 144.419L27.1365 144.091L26.1439 143.339L26.202 142.096L25.1787 142.806L24.0127 142.367Z" fill="#2E0BFF"/>
<path d="M35.1572 140.781C35.1572 140.781 29.5093 143.991 17.4267 145.704" stroke="white" stroke-width="1.42451" stroke-linecap="round"/>
<path d="M34.688 130.523C34.3355 130.599 33.749 130.885 32.8125 131.725C32.0586 132.402 31.239 133.004 30.3548 133.5C28.748 134.4 28.0751 134.777 26.1423 134.181" stroke="white" stroke-width="1.42451" stroke-linecap="round"/>
<path d="M6.55981 140.781L3.19944 142.779" stroke="white" stroke-width="1.42451" stroke-linecap="round"/>
<path fill-rule="evenodd" clip-rule="evenodd" d="M148.046 76.1436C148.046 76.1436 156.691 110.673 163.727 126.179C163.727 126.179 165.744 128.923 166.365 129.638C167.28 130.69 172.811 132.529 174.312 132.815C174.32 134.217 173.178 135.36 171.774 135.374C170.537 135.386 168.636 134.574 165.919 134.431C163.563 134.308 161.943 136.323 156.964 134.319C156.216 134.018 155.606 133.447 155.263 132.718C153.759 129.522 149.342 120.161 148.293 118.202L128.872 83.0412L148.046 76.1436Z" fill="#FF94BD"/>
<path fill-rule="evenodd" clip-rule="evenodd" d="M78.9827 84.9905L70.6894 88.7003L54.103 81.4945L63.1825 70.6504L78.9827 84.9905Z" fill="#F8648E"/>
<path fill-rule="evenodd" clip-rule="evenodd" d="M174.311 133.444C173.811 133.339 173.212 133.213 172.771 133.14C171.967 133.007 172.078 132.299 172.078 132.299L174.092 132.741C174.217 132.768 174.339 132.784 174.448 132.844C174.407 133.03 174.311 133.443 174.311 133.444Z" fill="#CDF267"/>
<path fill-rule="evenodd" clip-rule="evenodd" d="M177.001 134.206C176.553 133.962 176.015 133.669 175.614 133.472C174.883 133.114 175.195 132.469 175.195 132.469L176.995 133.47C177.106 133.532 177.219 133.582 177.306 133.671C177.213 133.838 177.002 134.206 177.001 134.206Z" fill="#CDF267"/>
<path fill-rule="evenodd" clip-rule="evenodd" d="M75.0631 88.4148C76.465 87.6232 80.3005 81.9497 81.0264 80.889C83.9011 76.6879 86.6759 72.4188 89.4571 68.1549C90.5817 66.4303 91.8894 65.8746 94.2044 66.2795C97.113 66.7878 99.5517 68.033 101.718 70.148C108.076 76.3577 111.694 84.0627 114.571 92.2767C116.417 97.5494 117.726 102.988 119.725 108.207C120.488 110.199 121.623 111.99 122.753 113.78C124.763 116.967 125.484 120.557 126.108 124.185C126.235 124.925 126.405 125.664 126.631 126.38C127.021 127.617 128.095 127.962 129.054 127.093C130.927 125.394 131.273 123.671 131.608 120.933C131.661 120.501 131.873 120.048 132.128 119.688C134.38 116.505 134.666 112.965 133.953 109.294C133.669 107.833 133.615 106.382 133.714 104.934C133.982 101.001 133.676 98.3671 133.032 94.0509C132.852 92.8402 132.089 90.0552 131.887 89.4882C131.414 88.1625 130.839 86.8722 130.379 85.5422C128.747 80.8292 127.791 75.9487 127.06 71.0381C126.515 67.3828 126.099 63.6684 127.027 60.0009C127.871 56.6676 130 53.9683 131.673 51.0472C131.843 50.75 132.203 50.7999 132.495 50.7412C129.509 48.635 120.096 43.6894 118.829 43.5161C115.791 47.7715 111.881 51.7306 107.045 53.4093C104.661 54.2369 102.155 54.4046 99.6787 54.7094C97.7082 54.9522 95.6561 53.3966 95.461 51.4481C95.278 49.6225 94.8321 47.772 95.5334 45.9494C92.7837 46.0697 90.1998 46.9176 87.6126 47.751C87.3384 51.0024 84.5557 52.6413 83.4156 55.7397C82.0127 59.5511 80.8416 64.3008 80.0857 67.9534C79.6916 68.502 79.5057 69.1134 79.3305 69.7438C78.3207 73.3774 75.0631 87.2087 75.0631 88.4148Z" fill="#2E0BFF"/>
<path fill-rule="evenodd" clip-rule="evenodd" d="M132.495 50.7415C132.204 50.8 131.844 50.7501 131.673 51.0475C130 53.9683 127.871 56.6679 127.028 60.0012C126.099 63.6687 126.515 67.3831 127.06 71.0384C127.791 75.9488 128.748 80.8293 130.379 85.5425C130.839 86.8725 131.414 88.1627 131.887 89.4885C132.199 90.3606 132.222 90.4364 132.842 91.5541C134.612 89.996 137.728 89.0678 139.882 88.6804C145.182 87.7264 147.331 84.7053 152.097 80.9002C153.057 78.1758 150.407 74.7678 148.69 72.5081C145.207 67.9243 142.677 62.7476 139.967 57.6911C138.27 54.5265 135.842 52.1407 132.495 50.7415Z" fill="#CEF367"/>
<path fill-rule="evenodd" clip-rule="evenodd" d="M79.3304 69.7442C79.5056 69.1137 87.3383 51.0025 87.6125 47.751C87.0798 47.2227 85.5601 47.9765 84.9883 48.2489C82.7033 49.3365 80.1882 51.7185 78.411 53.5994C74.4318 57.8104 71.7273 60.2683 67.6211 64.3564C66.7794 65.1944 63.3972 68.5104 62.5392 71.0787C64.1996 73.9113 67.0831 77.5312 70.0798 78.9557C72.3443 80.0319 73.5535 83.41 75.7418 84.6574C76.1907 84.9136 78.3206 73.3777 79.3304 69.7442Z" fill="#CEF367"/>
<mask id="mask1" mask-type="alpha" maskUnits="userSpaceOnUse" x="93" y="41" width="28" height="15">
<path fill-rule="evenodd" clip-rule="evenodd" d="M120.168 41.7852H93.0457V55.9076H120.168V41.7852Z" fill="white"/>
</mask>
<g mask="url(#mask1)">
<path fill-rule="evenodd" clip-rule="evenodd" d="M94.3516 46.1076C93.6503 47.9297 92.5399 51.0524 93.3029 53.337C94.0657 55.62 97.7833 56.4762 103.694 55.525C113.643 53.9236 119.645 48.3838 120.161 44.3952C120.242 43.7679 119.564 43.0247 119.03 42.6839C117.491 41.7028 117.326 41.3348 116.214 42.564C112.679 46.4735 106.667 50.5847 101.389 51.0664C99.7365 51.2171 97.7206 50.4633 97.714 48.8551C97.7133 48.6721 97.8214 45.6802 97.8214 45.6802C97.8214 45.6802 95.6408 45.3677 94.3516 46.1076Z" fill="#CEF367"/>
</g>
<path fill-rule="evenodd" clip-rule="evenodd" d="M64.9223 109.437C66.5852 103.738 75.4826 86.9815 75.0657 86.2639C76.2792 84.397 77.3273 82.4376 78.2051 80.3965C79.1116 78.2886 80.2573 76.3482 81.8215 74.6604C82.857 73.5432 83.6578 72.2631 84.4777 70.9843C85.9901 68.6245 87.6906 66.1504 90.5175 65.5385C93.6143 64.868 96.8871 64.9542 99.6772 66.9752C100.82 67.8028 101.912 68.7162 102.94 69.6829C107.589 74.0556 110.452 79.6435 113.302 85.205C116.168 90.7973 116.933 97.1109 119.135 102.953C120.229 105.857 121.328 108.67 123.278 111.097C126.047 114.543 127.87 118.388 128.596 122.785C129.128 126.001 128.119 128.278 125.183 129.646C122.533 130.881 119.653 131.138 116.815 131.584C111.18 132.471 105.701 134.176 100.039 134.89C96.5105 135.336 92.6215 135.568 89.5638 133.218C87.7051 132.505 80.4168 127.221 79.1259 124.514C79.0207 124.295 79.768 122.674 79.2686 121.994C79.9534 119.748 81.9187 116.314 81.4647 114.118C80.673 110.285 76.9236 106.929 73.0348 106.546C70.4479 106.291 69.9385 106.751 69.9045 109.367C69.8986 109.82 69.8367 110.278 69.8882 110.724C69.9954 111.657 69.5559 112.134 68.6915 112.315C68.4975 112.083 68.3502 111.759 68.1019 111.634C65.7922 110.474 64.3713 111.325 64.9223 109.437Z" fill="#7CE8FF"/>
<path fill-rule="evenodd" clip-rule="evenodd" d="M69.1166 111.459C68.9226 111.227 66.972 110.959 65.1847 109.176C66.8473 103.477 75.4827 86.9817 75.066 86.2641C69.5165 79.6292 63.0913 73.886 56.4016 68.4617C53.4416 66.0616 49.9992 66.2811 46.9816 68.6206C45.3263 69.9042 43.9462 71.4235 42.8795 73.2251C41.2341 76.0012 35.3152 89.1172 33.3133 93.3569C31.9637 96.2153 30.7274 99.128 29.4819 102.034C29.1876 102.721 29.0556 103.478 28.8545 104.205C28.6719 104.865 28.8669 105.228 29.5926 104.983C31.6293 104.297 33.4507 104.976 35.2421 105.834C38.8544 107.564 41.7704 110.184 44.4993 113.05C45.1029 113.684 45.8138 114.653 46.569 115.484C47.2251 116.205 48.4122 115.998 48.7959 115.102C50.6497 110.771 55.5329 99.8299 55.5329 99.8299C55.5329 99.8299 56.2477 102.969 62.177 109.819C63.5593 111.418 64.9897 112.963 66.5957 114.334C67.8452 115.402 68.0372 115.296 68.5252 113.782C68.6875 113.279 69.1407 111.957 69.1166 111.459Z" fill="#4BD7E9"/>
<path fill-rule="evenodd" clip-rule="evenodd" d="M56.8675 102.208L58.6787 89.5564L55.5329 99.8299C55.5329 99.8299 55.3422 99.9249 56.8675 102.208Z" fill="#2E0BFF"/>
<path fill-rule="evenodd" clip-rule="evenodd" d="M36.8819 151.679L37.7906 151.049L38.9607 151.478L38.59 150.291L39.3599 149.313L38.1139 149.298L37.5855 148.511C37.5855 148.511 37.1142 148.994 36.9804 149.806C36.8461 150.618 36.8819 151.679 36.8819 151.679Z" fill="#2E0BFF"/>
<path d="M129.743 54.3843C129.743 54.3843 125.096 59.6636 126.598 68.4388C128.099 77.2141 129.243 82.0654 129.243 82.0654" stroke="white" stroke-width="1.42451" stroke-linecap="round"/>
<path d="M117.113 49.0334C117.113 49.0334 113.226 53.8843 104.339 55.3116" stroke="white" stroke-width="1.42451" stroke-linecap="round"/>
<path d="M77.6958 55.8823C77.6958 55.8823 66.6861 66.2985 65.8281 67.8682" stroke="white" stroke-width="1.42451" stroke-linecap="round"/>
<path fill-rule="evenodd" clip-rule="evenodd" d="M99.4778 94.1223L85.0835 123.04L83.1294 122.517L99.4778 94.1223Z" fill="#2E0BFF"/>
<path fill-rule="evenodd" clip-rule="evenodd" d="M83.8443 122.089C83.8443 122.089 82.4143 122.279 80.2219 121.518C78.0296 120.757 78.2203 124.182 78.2203 124.182C78.2203 124.182 82.4143 130.936 91.8515 134.646C93.539 135.309 99.4775 136.453 107.676 133.599C101.003 133.314 91.3749 132.648 89.1823 130.27C87.1415 128.056 85.0835 123.04 85.0835 123.04L83.8443 122.089Z" fill="#2E0BFF"/>
<path fill-rule="evenodd" clip-rule="evenodd" d="M71.3762 139.159C70.1708 139.387 68.987 139.721 67.8071 140.058C65.0312 140.849 62.0433 141.783 59.1408 141.13C58.4364 140.972 57.714 140.74 57.1094 140.338C56.5762 139.983 56.1539 139.502 55.8137 138.964C55.5922 138.614 55.3952 138.253 55.1976 137.894L58.8219 129.652L68.1291 108.289C69.0546 106.165 71.4483 105.107 73.6539 105.829C77.5421 107.102 82.7467 110.416 82.4476 119.033C82.4291 119.559 82.2389 120.066 81.9086 120.478C80.0493 122.791 73.4632 131.16 71.2617 136.286C70.9389 137.038 71.057 138.018 71.3762 139.159Z" fill="#FF94BD"/>
<path fill-rule="evenodd" clip-rule="evenodd" d="M48.5595 142.115C50.4534 141.092 52.0669 139.625 53.2621 137.837L56.1187 133.564C56.6613 132.921 57.6044 132.794 58.2986 133.27L60.8086 134.99C61.7621 135.643 61.9807 136.937 61.3304 137.892C60.7494 138.745 60.398 139.713 61.3174 140.173C63.1563 141.095 66.7602 139.109 68.7698 137.236C69.4604 136.593 70.2524 136.55 70.9941 136.771C71.9605 137.063 72.5798 138.003 72.4648 139.004L72.169 141.582C72.0138 142.934 72.0776 144.301 72.3571 145.631C72.4145 145.906 72.5349 146.164 72.6969 146.394L74.0147 148.262C74.2938 148.658 74.4332 149.138 74.4032 149.62C74.2956 151.35 73.5038 152.476 71.6431 152.91C66.9613 154.001 58.2392 154.292 51.0527 155.383C46.9085 156.012 42.0878 156.091 38.3204 155.221C37.5845 155.051 36.4175 154.615 35.8878 153.984C35.6339 153.681 35.6611 153.232 35.9208 152.934L36.8969 151.815C36.8999 151.668 36.9449 149.949 36.9804 149.806C37.2661 148.667 37.7973 148.138 38.8203 147.544C42.4019 145.468 46.102 143.441 48.5595 142.115Z" fill="#FFAA00"/>
<mask id="mask2" mask-type="alpha" maskUnits="userSpaceOnUse" x="35" y="146" width="41" height="10">
<path fill-rule="evenodd" clip-rule="evenodd" d="M75.6611 146.191H35.5031V155.928H75.6611V146.191Z" fill="white"/>
</mask>
<g mask="url(#mask2)">
<path fill-rule="evenodd" clip-rule="evenodd" d="M71.9047 146.38C74.8334 145.203 77.267 149.841 74.3355 151.787C74.2964 151.813 71.9052 154.621 57.3919 155.121C52.1499 155.301 38.1909 157.412 35.5301 153.984C35.5301 153.984 35.0857 151.34 37.8024 152.053C41.5995 153.05 44.0224 153.48 56.6055 150.912C63.3336 149.538 69.4416 147.369 71.9047 146.38Z" fill="#2E0BFF"/>
</g>
<path fill-rule="evenodd" clip-rule="evenodd" d="M69.5458 140.549L68.9942 141.664L67.7612 141.843L68.6532 142.711L68.4427 143.937L69.5458 143.358L70.649 143.937L70.4383 142.711L71.3306 141.843L70.0973 141.664L69.5458 140.549Z" fill="#2E0BFF"/>
<path fill-rule="evenodd" clip-rule="evenodd" d="M63.9861 144.402L64.1537 145.634L63.2315 146.471L64.4579 146.692L64.9701 147.826L65.5602 146.73L66.7991 146.595L65.9375 145.696L66.1909 144.479L65.0684 145.019L63.9861 144.402Z" fill="#2E0BFF"/>
<path fill-rule="evenodd" clip-rule="evenodd" d="M59.0533 141.406L59.2209 142.638L58.2989 143.474L59.5251 143.696L60.0375 144.83L60.6273 143.734L61.8662 143.598L61.0049 142.7L61.2581 141.482L60.1355 142.022L59.0533 141.406Z" fill="#2E0BFF"/>
<path fill-rule="evenodd" clip-rule="evenodd" d="M57.1229 135.413L57.2907 136.645L56.3685 137.481L57.5946 137.703L58.1071 138.837L58.6972 137.741L59.9358 137.605L59.0745 136.707L59.3279 135.489L58.2051 136.029L57.1229 135.413Z" fill="#2E0BFF"/>
<path fill-rule="evenodd" clip-rule="evenodd" d="M53.8084 139.349L53.1045 140.375L51.858 140.378L52.6183 141.364L52.2361 142.547L53.4103 142.13L54.4201 142.859L54.3851 141.615L55.3916 140.882L54.1961 140.531L53.8084 139.349Z" fill="#2E0BFF"/>
<path fill-rule="evenodd" clip-rule="evenodd" d="M48.2065 144.828L48.2382 146.071L47.2299 146.802L48.4246 147.156L48.8096 148.338L49.5162 147.314H50.7622L50.0045 146.327L50.3897 145.144L49.2146 145.559L48.2065 144.828Z" fill="#2E0BFF"/>
<path fill-rule="evenodd" clip-rule="evenodd" d="M50.0173 150.197L50.049 151.44L49.0407 152.171L50.2354 152.525L50.6203 153.708L51.327 152.683H52.573L51.8153 151.696L52.2005 150.514L51.0254 150.928L50.0173 150.197Z" fill="#2E0BFF"/>
<path fill-rule="evenodd" clip-rule="evenodd" d="M45.2095 148.785L44.0565 149.257L43.0134 148.577L43.1071 149.817L42.1361 150.597L43.347 150.892L43.7904 152.054L44.4452 150.996L45.6899 150.934L44.8837 149.986L45.2095 148.785Z" fill="#2E0BFF"/>
<path fill-rule="evenodd" clip-rule="evenodd" d="M42.9728 145.15L43.3531 145.243L43.7967 146.405L44.4513 145.347L45.696 145.285L44.8899 144.337L44.9546 144.099" fill="#2E0BFF"/>
<path fill-rule="evenodd" clip-rule="evenodd" d="M54.1234 145.259L54.4832 146.45L53.7044 147.421L54.9504 147.447L55.6349 148.486L56.045 147.312L57.2468 146.983L56.2545 146.231L56.3127 144.989L55.2891 145.698L54.1234 145.259Z" fill="#2E0BFF"/>
<path fill-rule="evenodd" clip-rule="evenodd" d="M59.1878 148.36L59.5476 149.55L58.7691 150.521L60.0148 150.547L60.6994 151.586L61.1095 150.412L62.3115 150.084L61.3189 149.331L61.3771 148.089L60.3538 148.799L59.1878 148.36Z" fill="#2E0BFF"/>
<path d="M70.332 146.774C70.332 146.774 64.6841 149.984 52.6015 151.696" stroke="white" stroke-width="1.42451" stroke-linecap="round"/>
<path d="M69.863 136.516C69.5106 136.592 68.924 136.878 67.9876 137.718C67.2337 138.394 66.414 138.997 65.5299 139.493C63.9231 140.393 63.2502 140.769 61.3173 140.173" stroke="white" stroke-width="1.42451" stroke-linecap="round"/>
<path d="M41.7346 146.774L38.3745 148.771" stroke="white" stroke-width="1.42451" stroke-linecap="round"/>
<path d="M82.7004 117.095C82.7004 117.095 82.1284 107.392 71.5472 105.395" stroke="white" stroke-width="1.42451" stroke-linecap="round"/>
<path d="M47.7162 113.433L54.0073 98.8787" stroke="white" stroke-width="1.42451" stroke-linecap="round"/>
<path fill-rule="evenodd" clip-rule="evenodd" d="M45.0434 82.9895C45.5805 82.5 45.6186 81.661 45.1277 81.1251L41.9705 77.6763C41.4802 77.1404 40.6392 77.1026 40.1022 77.5919C39.5651 78.0817 39.527 78.9207 40.0176 79.4568L43.1748 82.9054C43.6654 83.4413 44.5064 83.4793 45.0434 82.9895Z" fill="#F8648E"/>
<path fill-rule="evenodd" clip-rule="evenodd" d="M44.1141 85.8431C44.6509 85.3533 44.6892 84.5144 44.1984 83.9785L40.0006 79.3929C39.5098 78.857 38.669 78.819 38.1317 79.3086C37.5947 79.7984 37.5568 80.6373 38.0474 81.1732L42.2455 85.7588C42.7361 86.2947 43.5771 86.3329 44.1141 85.8431Z" fill="#F8648E"/>
<path fill-rule="evenodd" clip-rule="evenodd" d="M41.7546 87.0558C42.2916 86.5663 42.3297 85.7273 41.8391 85.1914L37.7886 80.7668C37.298 80.2306 36.4573 80.1929 35.92 80.6827C35.383 81.1719 35.3449 82.0112 35.8355 82.5471L39.8862 86.9717C40.3766 87.5076 41.2175 87.5456 41.7546 87.0558Z" fill="#F8648E"/>
<path fill-rule="evenodd" clip-rule="evenodd" d="M38.7519 87.3416C39.289 86.8518 39.3271 86.0128 38.8362 85.4769L36.017 82.397C35.5264 81.8611 34.6854 81.8233 34.1484 82.3126C33.6113 82.8024 33.5732 83.6414 34.0638 84.1775L36.8833 87.2572C37.3739 87.7931 38.2149 87.8311 38.7519 87.3416Z" fill="#F8648E"/>
<path fill-rule="evenodd" clip-rule="evenodd" d="M40.2376 84.292L39.1426 85.4517L40.1332 86.4901C40.7002 87.028 41.2063 86.5329 41.2063 86.5329C41.7479 86.0181 41.3845 85.5176 41.1735 85.2946L40.2376 84.292Z" fill="#7AC843"/>
<path fill-rule="evenodd" clip-rule="evenodd" d="M37.3248 84.6636L36.2299 85.8236L37.2207 86.8617C37.7877 87.3999 38.2937 86.9048 38.2937 86.9048C38.8353 86.3899 38.4717 85.8892 38.261 85.6665L37.3248 84.6636Z" fill="#7AC843"/>
<path fill-rule="evenodd" clip-rule="evenodd" d="M42.6888 83.2371L41.5939 84.3971L42.5844 85.4352C43.1517 85.9734 43.6577 85.478 43.6577 85.478C44.1994 84.9634 43.8357 84.4627 43.625 84.2397L42.6888 83.2371Z" fill="#7AC843"/>
<path fill-rule="evenodd" clip-rule="evenodd" d="M43.8243 80.5647L42.7294 81.7247L43.7199 82.7628C44.2872 83.301 44.7932 82.8059 44.7932 82.8059C45.3349 82.291 44.9712 81.7903 44.7605 81.5676L43.8243 80.5647Z" fill="#7AC843"/>
<path fill-rule="evenodd" clip-rule="evenodd" d="M35.6399 82.1487L38.1428 84.6972L35.5686 82.2262C35.5924 82.2014 35.629 82.1814 35.6399 82.1487Z" fill="#D42D66"/>
<path fill-rule="evenodd" clip-rule="evenodd" d="M38.0528 81.0249L40.5557 83.5735L37.9812 81.1024C38.0053 81.0776 38.0416 81.0576 38.0528 81.0249Z" fill="#D42D66"/>
<path fill-rule="evenodd" clip-rule="evenodd" d="M40.1489 79.614L42.5698 82.2398L40.0751 79.689C40.0999 79.6652 40.1368 79.6462 40.1489 79.614Z" fill="#D42D66"/>
<path fill-rule="evenodd" clip-rule="evenodd" d="M106.89 50.8259C104.054 52.0173 96.2855 51.5884 96.2855 51.5884C96.2855 51.5884 97.4291 46.2622 97.5365 42.318C97.551 41.781 97.1191 41.2645 96.5826 41.2414C96.1042 41.2211 94.8912 41.2219 94.3514 41.0825C86.0332 38.9366 87.2058 23.7537 89.3027 17.7957C90.7292 13.7436 93.8423 11.0775 96.4523 10.1697C101.801 8.30921 105.317 9.40716 108.654 11.2661C109.048 11.4855 114.767 15.341 114.981 22.9195C115.122 27.9015 111.946 32.6328 111.942 32.6427C111.74 33.1787 113.122 35.1092 114.695 37.8973C115.456 39.2461 116.709 41.2099 117.626 42.9018C117.626 42.9018 112.562 49.3006 106.89 50.8259Z" fill="#FF94BD"/>
<path fill-rule="evenodd" clip-rule="evenodd" d="M109.383 27.2646C108.87 28.1535 108.828 29.0903 109.29 29.3569C109.751 29.6235 110.541 29.1187 111.055 28.2297C111.568 27.3405 111.61 26.4038 111.148 26.1374C110.687 25.8708 109.896 26.3756 109.383 27.2646Z" fill="#CEF367"/>
<path fill-rule="evenodd" clip-rule="evenodd" d="M112.36 46.3168C112.358 46.3171 112.356 46.3173 112.354 46.3176C112.341 46.3199 112.328 46.3222 112.315 46.3244C112.33 46.3219 112.345 46.3194 112.36 46.3168ZM142.073 38.54C142.072 38.541 142.071 38.5418 142.071 38.5428C142.084 38.5392 142.097 38.5354 142.11 38.5316C142.098 38.5347 142.085 38.5372 142.073 38.54ZM97.3517 20.7674C97.2402 20.8418 97.1265 20.9159 97.013 20.9903C96.5427 21.2986 96.0834 21.6312 95.6342 21.9684C95.1591 22.3231 94.6789 22.6692 94.183 22.9958C93.8984 23.1844 93.6059 23.3515 93.2994 23.5044C93.0752 23.6166 92.8406 23.7136 92.6072 23.8086C92.333 23.9203 91.8708 24.0551 91.5791 24.1049C91.4542 24.1262 91.3277 24.1445 91.2007 24.159C91.1593 24.1673 91.1177 24.1767 91.0763 24.1841C90.9542 24.2065 90.8303 24.2209 90.7064 24.223C90.5784 24.225 90.4504 24.2257 90.3214 24.225C90.146 24.223 89.9415 24.162 89.776 24.1128C89.4335 24.0097 89.1178 23.8388 88.8192 23.646C88.7192 23.5816 88.625 23.5084 88.5358 23.4295C88.3548 23.269 88.171 23.095 88.0262 22.8939C87.8607 22.6639 87.7119 22.4125 87.6007 22.1515C87.5382 22.0045 87.5478 22.1786 87.5014 22.025C87.5004 22.0164 87.4371 21.681 87.4361 21.6721C87.429 21.6218 87.4221 21.5715 87.4153 21.5212C87.3947 21.3773 87.383 21.232 87.3724 21.087C87.3731 21.0114 87.3739 20.9362 87.3747 20.8605C87.379 20.7854 87.3792 20.7107 87.3823 20.6356C87.3919 20.4042 87.4087 20.1724 87.4331 19.9419C87.4326 19.9416 87.4321 19.9416 87.4318 19.9416C87.4346 19.9142 87.4376 19.887 87.4407 19.8596C87.4534 19.7476 87.4668 19.6356 87.4811 19.5242C87.4894 19.483 87.4988 19.4419 87.508 19.4015C87.524 19.3281 87.5397 19.2555 87.5557 19.1831C87.5687 19.126 87.5844 19.0699 87.5984 19.013C87.6136 18.9521 87.6296 18.8914 87.6448 18.8307C87.6441 18.8327 87.6436 18.835 87.6426 18.837C87.6433 18.8348 87.6441 18.8322 87.6446 18.8299C87.6441 18.8325 87.6433 18.835 87.6423 18.837C87.6425 18.836 87.6431 18.835 87.6433 18.8337C87.6428 18.835 87.6425 18.836 87.6423 18.8373C87.6428 18.8355 87.6433 18.8337 87.6438 18.832C87.6433 18.8337 87.6428 18.8353 87.642 18.8368C87.642 18.8368 87.642 18.8365 87.6423 18.8365C87.642 18.8365 87.642 18.8368 87.642 18.837C87.6608 18.7723 87.6796 18.7065 87.6977 18.6408C87.7134 18.5857 87.7284 18.5296 87.7451 18.4747C87.769 18.3952 87.7929 18.316 87.8175 18.2368C87.8571 18.1063 87.8998 17.9778 87.9417 17.8483C87.9833 17.7195 88.026 17.59 88.0676 17.4605C88.0704 17.4514 89.3542 12.8029 93.2075 10.5882C93.212 10.5857 93.2161 10.5821 93.2209 10.5796C95.3597 9.44275 96.8588 9.95034 97.0038 9.90743C97.1831 9.85436 97.7427 8.41793 99.8338 7.82934C100.289 7.70162 100.776 7.66328 101.244 7.60919C101.66 7.55968 102.078 7.5414 102.498 7.52312C102.646 7.51626 102.796 7.51245 102.944 7.51245C103.213 7.51245 103.482 7.52515 103.748 7.55409C104.248 7.6092 104.741 7.6902 105.235 7.78491C106.087 7.94843 106.919 8.23638 107.72 8.55835C108.542 8.88895 109.314 9.33154 110.059 9.80231C110.851 10.3028 111.574 10.9023 112.274 11.515C112.891 12.0543 113.455 12.6419 114.031 13.2211C114.339 13.5304 114.643 13.8424 114.96 14.1431C115.281 14.4475 115.611 14.7347 115.956 15.014C116.288 15.2489 116.626 15.4683 116.98 15.6742C117.297 15.8598 117.64 16.0038 117.983 16.1412C118.788 16.4291 119.614 16.633 120.439 16.8572C121.337 17.1007 122.222 17.3938 123.083 17.7437C123.491 17.909 123.887 18.0946 124.283 18.285C124.672 18.4724 125.066 18.6629 125.436 18.8861C126.226 19.3644 126.952 19.9358 127.584 20.6008C128.06 21.1015 128.452 21.6771 128.833 22.2457C128.955 22.427 129.071 22.6121 129.174 22.8048C129.276 22.9975 129.372 23.192 129.466 23.3893C129.7 23.8804 129.933 24.3725 130.194 24.8509C130.413 25.2559 130.673 25.6396 130.945 26.0136C131.357 26.5037 131.796 26.9628 132.294 27.3708C132.582 27.5727 132.873 27.7593 133.186 27.9256C133.483 28.0851 133.795 28.2126 134.107 28.3413C134.857 28.6165 135.631 28.8225 136.389 29.0759C136.892 29.244 137.384 29.4306 137.876 29.6277C138.287 29.7919 138.677 30.0113 139.059 30.2307C139.863 30.6928 140.608 31.2477 141.272 31.8855C141.771 32.3649 142.189 32.9091 142.551 33.4921C142.775 33.8544 142.993 34.2198 143.174 34.6045C143.395 35.0768 143.594 35.5519 143.729 36.049C143.751 36.1747 143.771 36.3007 143.789 36.4269C143.789 36.4269 143.789 36.4271 143.79 36.4274C143.791 36.4337 143.791 36.4403 143.792 36.4469C143.799 36.4995 143.805 36.5521 143.811 36.6046C143.822 36.692 143.834 36.7791 143.843 36.8667C143.844 36.8738 143.843 36.8809 143.844 36.888C143.845 36.9032 143.846 36.9185 143.847 36.934C143.846 36.9355 143.846 36.9373 143.845 36.9388C143.866 37.3123 143.866 37.6889 143.841 38.0639C143.824 38.0758 143.806 38.0878 143.788 38.0989C143.778 38.1015 143.768 38.1045 143.758 38.1068C143.76 38.1147 143.764 38.1221 143.764 38.1302C143.767 38.1822 143.733 38.2221 143.686 38.2404C143.286 38.397 142.877 38.5283 142.469 38.6609C142.12 38.7731 141.763 38.8716 141.41 38.9722C141.042 39.0773 140.672 39.1837 140.303 39.2901C139.91 39.4041 139.518 39.5201 139.125 39.6341C138.763 39.7385 138.4 39.837 138.038 39.9386C137.872 39.9851 137.706 40.0295 137.54 40.0798C137.363 40.1339 137.186 40.1869 137.01 40.2413C136.817 40.2992 136.627 40.3571 136.434 40.4122C136.233 40.4683 136.031 40.5254 135.829 40.5805C135.648 40.6298 135.469 40.6821 135.289 40.7341C135.105 40.7872 134.918 40.8337 134.734 40.8839C134.553 40.9322 134.37 40.9748 134.188 41.0203C134.015 41.0647 133.839 41.1033 133.666 41.1478C133.476 41.196 133.288 41.2455 133.099 41.2938C132.972 41.326 132.844 41.355 132.717 41.3847C131.944 41.6193 131.172 41.8608 130.394 42.0743C129.576 42.2985 128.759 42.5151 127.935 42.7132C127.029 42.9305 124.078 43.5681 123.697 43.6667C123.538 43.7083 123.377 43.7451 123.218 43.7865C123.014 43.8388 122.811 43.8929 122.606 43.949C122.248 44.0475 121.886 44.1354 121.525 44.2283C121.345 44.2748 121.164 44.32 120.984 44.3665C120.814 44.4099 120.645 44.4574 120.477 44.5008C120.11 44.5965 119.74 44.6788 119.37 44.7628C119.168 44.8083 118.966 44.8596 118.764 44.9088C118.573 44.9543 118.384 45.0005 118.193 45.047C117.914 45.115 117.634 45.1788 117.353 45.2415C117.27 45.3369 114.343 45.9728 112.987 46.2087C112.996 46.2069 113.006 46.2054 113.015 46.2036C112.971 46.2112 112.927 46.2188 112.884 46.2264C112.868 46.2292 112.853 46.232 112.838 46.2346C112.841 46.234 112.845 46.2333 112.848 46.2328C112.692 46.2599 112.536 46.2869 112.38 46.3138C112.382 46.3133 112.384 46.313 112.385 46.3128C112.378 46.314 112.372 46.3153 112.365 46.3163C112.328 46.3224 112.291 46.329 112.254 46.3354C112.227 46.3399 112.2 46.3448 112.173 46.3496C112.121 46.3585 112.068 46.3651 112.015 46.3729C111.859 46.412 111.703 46.4489 111.545 46.4837C111.323 46.5347 111.101 46.5847 110.878 46.6291C110.843 46.636 110.809 46.6429 110.774 46.6495C110.304 46.7589 98.8204 49.5848 106.756 41.5154C107.661 40.5952 107.654 37.1434 107.895 35.8716C108.562 32.3446 110.188 31.9683 111.422 30.7688C113.233 29.0081 113.273 26.9178 113.301 26.6446C113.308 26.5286 113.315 26.4128 113.317 26.2988C113.316 26.2878 113.316 26.2769 113.316 26.266C113.31 26.1789 113.299 26.0921 113.288 26.0062C113.275 25.9227 113.261 25.8399 113.243 25.7571C113.225 25.6739 113.201 25.5926 113.176 25.5116C113.131 25.3646 113.076 25.2204 113.019 25.0779C113.018 25.0766 113.018 25.0751 113.017 25.0738C112.92 24.8908 112.806 24.7181 112.679 24.5541C112.615 24.4766 112.551 24.4002 112.48 24.3304C112.472 24.3233 112.464 24.3167 112.456 24.3095C112.446 24.3024 112.436 24.2946 112.426 24.2877C112.374 24.2529 112.324 24.2181 112.272 24.1823C112.233 24.1564 112.191 24.1331 112.151 24.1079C112.132 24.096 112.112 24.0836 112.092 24.0716C112.077 24.064 112.061 24.0564 112.046 24.049C112.021 24.0363 111.997 24.0219 111.971 24.0112C111.941 23.999 111.912 23.9866 111.883 23.9744C111.822 23.9541 111.762 23.934 111.7 23.9175C111.641 23.9015 111.582 23.8893 111.522 23.8771C111.495 23.8736 111.467 23.87 111.44 23.8662C111.404 23.8614 111.367 23.8614 111.331 23.8586C111.261 23.8548 111.191 23.8565 111.121 23.8576C111.057 23.8586 110.992 23.8596 110.928 23.8644C110.86 23.8695 110.794 23.8766 110.726 23.885C110.607 23.9066 110.488 23.9292 110.37 23.9543C110.304 23.9678 110.239 23.9822 110.175 24.0008C110.107 24.0208 110.04 24.0411 109.972 24.0625C109.911 24.082 109.85 24.1041 109.789 24.1252C109.754 24.1394 109.72 24.1539 109.685 24.1681C109.45 24.2763 109.222 24.3933 109.006 24.5335C108.85 24.6338 108.706 24.7577 108.56 24.8707C108.328 25.0497 108.099 25.2313 107.855 25.3918C107.618 25.5474 107.292 25.699 107.012 25.5512C106.781 25.4293 106.74 25.182 106.734 24.952C106.727 24.7102 106.725 24.4657 106.697 24.2242C106.681 24.1488 106.659 24.0762 106.631 24.0036C106.603 23.9556 106.573 23.9081 106.54 23.8626C106.513 23.8345 106.485 23.8075 106.456 23.7824C106.411 23.7552 106.367 23.7321 106.319 23.7118C106.239 23.6887 106.158 23.6702 106.076 23.6577C105.949 23.6491 105.823 23.6519 105.696 23.6653C105.331 23.7408 104.977 23.8695 104.628 24.0018C104.373 24.0985 104.121 24.2019 103.868 24.3024C103.41 24.4842 102.949 24.6861 102.466 24.8021C102.129 24.8842 101.793 24.9289 101.446 24.9482C101.072 24.9685 100.689 24.9461 100.351 24.7732C99.9968 24.5914 99.7637 24.2146 99.7289 23.8317C99.6992 23.5021 99.7617 23.159 99.83 22.836C99.8579 22.7048 99.8975 22.5753 99.9313 22.4448C100.025 22.0773 100.131 21.715 100.189 21.3399C100.197 21.2422 100.198 21.1475 100.189 21.05C100.178 21.0053 100.166 20.9629 100.151 20.9212C100.127 20.8809 100.102 20.843 100.074 20.8062C100.029 20.759 99.9798 20.7163 99.9282 20.6759C99.8518 20.6313 99.7746 20.5916 99.6931 20.5569C99.5613 20.5155 99.4283 20.4863 99.2904 20.4649C98.9433 20.438 98.5972 20.4601 98.2519 20.5076C97.9624 20.5604 97.6813 20.6419 97.4063 20.7399C97.388 20.7493 97.37 20.7582 97.3517 20.7674Z" fill="#2E0BFF"/>
<path fill-rule="evenodd" clip-rule="evenodd" d="M96.4105 50.3908C96.0977 50.4804 95.8354 50.5333 95.7409 50.5576C95.1028 50.7214 94.4805 50.9243 93.8411 51.0827C92.7051 51.3628 91.5543 51.5774 90.4129 51.8321C89.8104 51.9651 89.2104 52.1078 88.6101 52.2495C88.07 52.3762 87.5269 52.4862 86.9814 52.5875C86.3855 52.6997 85.7926 52.818 85.2007 52.9511C84.6228 53.0811 84.0476 53.2208 83.4697 53.3464C82.7532 53.5039 82.0262 53.6032 81.3076 53.7426C81.1626 53.7702 81.0212 53.6539 81.0008 53.5133C80.9915 53.4455 81.0105 53.3848 81.044 53.334C81.0346 53.3099 81.0255 53.2858 81.0207 53.2581C80.9953 53.1093 80.9678 52.9612 80.9468 52.8122C80.9254 52.6631 80.9181 52.511 80.9044 52.361C80.8759 52.0398 80.8462 51.7186 80.8188 51.3971C80.7914 51.0695 80.7584 50.741 80.752 50.4121C80.7449 50.0772 80.7479 49.7423 80.7596 49.4071C80.7723 49.0775 80.786 48.7467 80.8178 48.4181C80.8493 48.0999 80.8896 47.7828 80.9435 47.4679C81.0544 46.8118 81.2304 46.1671 81.4343 45.5346C81.5356 45.2207 81.6476 44.9127 81.771 44.6062C81.8375 44.4382 81.9084 44.2734 81.9845 44.1096C82.0478 43.9742 82.1206 43.8412 82.1894 43.7089C82.3479 43.4088 82.516 43.114 82.6777 42.8159C82.757 42.6691 82.8382 42.5221 82.9124 42.372C82.9779 42.241 83.0391 42.1079 83.1046 41.9756C83.2838 41.6095 83.4588 41.2398 83.5957 40.8546C83.6404 40.6926 83.6812 40.5303 83.7175 40.3663C83.7556 40.1898 83.7831 40.0113 83.8044 39.8315C83.8448 39.4809 83.8656 39.1292 83.8844 38.7775C83.894 38.4441 83.8961 38.1117 83.8877 37.7771C83.8783 37.4388 83.8592 37.1009 83.8422 36.7616C83.8255 36.4148 83.8128 36.0682 83.8021 35.7216C83.7914 35.3867 83.781 35.0505 83.7894 34.7155C83.7978 34.3669 83.8201 34.016 83.8719 33.6714C83.9225 33.3375 83.9892 33.0056 84.0685 32.6771C84.2353 31.9922 84.4308 31.3138 84.7119 30.667C84.8536 30.3415 85.0163 30.0287 85.1865 29.7179C85.3492 29.42 85.513 29.1229 85.6725 28.8238C85.8238 28.5407 85.9782 28.2606 86.1344 27.9806C86.2253 27.8158 86.3172 27.652 86.4081 27.4869C86.4832 27.3518 86.5625 27.2175 86.631 27.0791C86.7356 26.8709 86.8405 26.6627 86.9324 26.4481C87.0251 26.2321 87.1125 26.0139 87.197 25.7946C87.2308 25.6897 87.2663 25.5851 87.2917 25.4782C87.3285 25.3238 87.3636 25.1707 87.3953 25.0153C87.4258 24.8578 87.4502 24.7004 87.4735 24.5407C87.4913 24.4186 87.4966 24.2957 87.504 24.1728C87.504 23.9902 87.5038 23.8089 87.4956 23.6266C87.487 23.4217 87.4723 23.2185 87.4545 23.0136C87.4141 22.5517 87.4603 22.0177 87.4487 21.565C87.4446 21.4175 87.4809 20.5112 87.6213 20.4985C87.6297 20.4975 87.5525 21.3385 87.5606 21.3385C87.7018 21.3385 87.8095 21.4479 87.8295 21.5858C87.8643 21.8237 87.894 22.0614 87.9225 22.3014C87.9405 22.4484 87.9606 22.5962 87.9743 22.7442C87.9839 22.8582 87.9943 22.9725 88.004 23.0875C88.0103 23.1594 88.0197 23.2315 88.023 23.3031C88.0294 23.4658 88.0431 23.6276 88.0431 23.7904C88.0431 23.9869 88.0418 24.1824 88.0294 24.3789C88.024 24.4508 88.023 24.5237 88.0124 24.5958C87.9966 24.7035 87.9806 24.8111 87.9649 24.919C87.9542 24.9939 87.9362 25.0681 87.9215 25.142C87.9067 25.2151 87.892 25.288 87.875 25.3609C87.8539 25.4474 87.8338 25.534 87.8128 25.6209C87.7904 25.7181 87.7534 25.8131 87.7239 25.9093C87.6173 26.2536 87.4649 26.5845 87.3161 26.9121C87.1734 27.2239 87.0063 27.523 86.8405 27.8221C86.6828 28.1042 86.5244 28.3853 86.37 28.6687C86.2032 28.9772 86.0384 29.2867 85.8713 29.5965C85.772 29.7814 85.6674 29.9642 85.5669 30.148C85.4666 30.3331 85.3756 30.5213 85.2827 30.7102C85.2373 30.8044 85.1992 30.9027 85.158 30.9987C85.1156 31.0949 85.0778 31.1942 85.0417 31.2937C84.9755 31.4773 84.9117 31.6609 84.8498 31.8452C84.7855 32.0674 84.7246 32.2898 84.6644 32.5143C84.6063 32.7339 84.5598 32.9571 84.509 33.1801C84.41 33.6206 84.3645 34.067 84.3318 34.5167C84.3244 34.8534 84.3267 35.1883 84.3358 35.5261C84.3452 35.8579 84.36 36.1908 84.3716 36.5237C84.3833 36.8482 84.4107 37.1727 84.4204 37.4983C84.4298 37.8436 84.4372 38.1882 84.4288 38.535C84.4191 38.8953 84.4013 39.2567 84.3686 39.616C84.3379 39.9509 84.3011 40.2881 84.2165 40.6146C84.1698 40.7954 84.1243 40.9759 84.0621 41.1527C84.006 41.3111 83.9374 41.4655 83.8696 41.6196C83.747 41.9007 83.6066 42.1745 83.4745 42.4525C83.2272 42.9723 82.9281 43.4649 82.6607 43.9742C82.5307 44.2236 82.406 44.474 82.3014 44.7352C82.2014 44.9836 82.0983 45.2314 82.013 45.4858C81.9891 45.5607 81.9652 45.6356 81.9414 45.71C81.8548 45.9888 81.7649 46.2689 81.6948 46.5528C81.6219 46.8519 81.5458 47.1521 81.494 47.4552C81.4401 47.7734 81.3977 48.0916 81.3609 48.4118C81.3299 48.685 81.317 48.9592 81.303 49.2334C81.2984 49.3886 81.2964 49.5427 81.2931 49.6979C81.2901 49.8637 81.2837 50.0297 81.2868 50.1955C81.2944 50.5338 81.3185 50.871 81.3462 51.2079C81.3726 51.5281 81.402 51.8483 81.4305 52.1685C81.4445 52.3262 81.4592 52.4836 81.4729 52.6411C81.4866 52.7888 81.513 52.9359 81.5351 53.0839C81.5384 53.105 81.543 53.1258 81.5473 53.1469C81.9817 53.0669 82.419 53.0034 82.8524 52.9183C83.441 52.8031 84.0256 52.67 84.6101 52.5326C85.1596 52.4049 85.7111 52.2759 86.2672 52.1723C86.8725 52.0581 87.4791 51.9461 88.0817 51.814C88.684 51.6817 89.2832 51.5373 89.8835 51.3976C90.4594 51.2635 91.0396 51.1429 91.6178 51.0213C91.9113 50.9591 92.2064 50.8979 92.5001 50.8364C92.8013 50.7742 93.1024 50.7011 93.4026 50.6336C93.9384 50.5122 94.4711 50.3725 95.0035 50.2374C95.5429 50.0993 96.0263 49.9528 96.5088 49.801L96.4105 50.3908Z" fill="#2E0BFF"/>
<path fill-rule="evenodd" clip-rule="evenodd" d="M96.2985 50.2905C96.1078 50.343 95.9412 50.3808 95.8285 50.4067C95.7772 50.4184 95.7366 50.4278 95.7094 50.4347C95.4083 50.5119 95.1107 50.5977 94.8133 50.6838C94.4858 50.7782 94.147 50.876 93.8106 50.9595C93.1088 51.1324 92.3884 51.2833 91.6914 51.4288C91.2557 51.5199 90.8197 51.6113 90.3852 51.7081C89.8307 51.8307 89.2779 51.9612 88.7253 52.0918L88.5809 52.126C88.0956 52.2398 87.5649 52.35 86.9583 52.4627C86.2715 52.592 85.7042 52.7078 85.1727 52.8274C84.9346 52.8809 84.6966 52.936 84.459 52.9914C84.1205 53.0699 83.782 53.1486 83.4428 53.2222C83.0225 53.3146 82.5904 53.3883 82.1724 53.4594C81.8756 53.5102 81.5787 53.5607 81.2832 53.6181C81.2418 53.6254 81.207 53.6061 81.1897 53.594C81.1555 53.5696 81.1321 53.5328 81.1268 53.4954C81.1222 53.4645 81.1298 53.4345 81.1499 53.404L81.1862 53.3492L81.1623 53.288C81.1557 53.2715 81.1489 53.2552 81.1456 53.2364L81.125 53.1171C81.1062 53.0094 81.0877 52.9023 81.0724 52.7946C81.058 52.6946 81.0503 52.5933 81.0425 52.4922L81.0008 52.0161C80.982 51.8061 80.963 51.5964 80.9452 51.3864L80.931 51.2206C80.9079 50.9542 80.8843 50.6789 80.8789 50.4098C80.8721 50.0893 80.8744 49.7537 80.8863 49.4119C80.8998 49.063 80.9135 48.7479 80.9439 48.4302C80.9782 48.0874 81.0189 47.7794 81.0686 47.4895C81.1677 46.9047 81.3223 46.296 81.5551 45.5736C81.6549 45.2646 81.7641 44.9635 81.8885 44.6537C81.9546 44.4874 82.0244 44.3246 82.0995 44.1631C82.1455 44.0646 82.197 43.9673 82.2481 43.8703L82.3019 43.7675C82.3971 43.5875 82.4964 43.4082 82.5954 43.2292C82.6605 43.1119 82.7252 42.9946 82.7892 42.8765L82.8324 42.797C82.8984 42.6751 82.9646 42.5527 83.0261 42.4283C83.0601 42.36 83.0936 42.2907 83.1266 42.2211C83.1569 42.1581 83.1871 42.0952 83.2183 42.0322C83.3915 41.678 83.5725 41.2989 83.7152 40.8972C83.7632 40.7243 83.8046 40.56 83.8414 40.3939C83.8775 40.2258 83.9067 40.047 83.9303 39.8465C83.9712 39.4927 83.992 39.1423 84.0113 38.7846C84.0215 38.4235 84.0227 38.0941 84.0146 37.774C84.0067 37.4946 83.9925 37.2156 83.978 36.936L83.9689 36.7552C83.9521 36.4094 83.9394 36.0638 83.929 35.718C83.9186 35.3909 83.908 35.0529 83.9163 34.7188C83.9257 34.3209 83.9516 33.9941 83.9973 33.6904C84.0456 33.373 84.1108 33.0419 84.1916 32.7067C84.3932 31.8805 84.5897 31.267 84.8284 30.7175C84.9815 30.3661 85.1595 30.0312 85.2977 29.779L85.4102 29.5736C85.5358 29.3438 85.6615 29.1145 85.7844 28.8837C85.9353 28.6013 86.0891 28.3218 86.2453 28.0425L86.5805 27.4394C86.6371 27.3391 86.6937 27.2385 86.7448 27.1357C86.8484 26.9298 86.9555 26.7165 87.049 26.4984C87.1424 26.2808 87.2305 26.0611 87.3156 25.8402L87.3328 25.7871C87.3628 25.6944 87.3928 25.6018 87.4151 25.5076C87.4524 25.3519 87.4875 25.1975 87.5195 25.0409C87.5507 24.8801 87.5753 24.7207 87.5989 24.5592C87.6147 24.4518 87.621 24.3441 87.6274 24.2362L87.6307 24.1806C87.6309 23.9886 87.6307 23.8053 87.6226 23.6209C87.6137 23.4145 87.5989 23.2096 87.5807 23.0026C87.5573 22.7322 87.5644 22.4306 87.571 22.1391C87.5756 21.94 87.5802 21.7442 87.5753 21.5616C87.5748 21.5355 87.5748 21.503 87.5756 21.4662C87.651 21.4743 87.6947 21.5413 87.7038 21.604C87.7386 21.841 87.7681 22.0776 87.7965 22.3165L87.8097 22.4227C87.8237 22.5334 87.8376 22.6449 87.8478 22.7558L87.8846 23.1725C87.8892 23.218 87.894 23.2637 87.896 23.3089C87.8983 23.366 87.9016 23.4239 87.9047 23.4815C87.9103 23.5846 87.9161 23.6872 87.9161 23.7906C87.9161 23.9858 87.9151 24.1773 87.9026 24.3708L87.8983 24.4401C87.8958 24.4858 87.8935 24.5317 87.8869 24.5775L87.8392 24.9007C87.832 24.9515 87.8214 25.001 87.811 25.0503L87.797 25.1173C87.7813 25.195 87.767 25.2635 87.7513 25.3321L87.6893 25.5908C87.6751 25.6531 87.6548 25.7125 87.635 25.7719C87.6238 25.8054 87.6127 25.8387 87.6025 25.8722C87.5019 26.1964 87.3567 26.5161 87.216 26.8252L87.2003 26.8597C87.0647 27.156 86.903 27.4478 86.7463 27.7296L86.6173 27.9609C86.4967 28.1763 86.3763 28.3916 86.2585 28.6079L85.7595 29.5363C85.7027 29.6421 85.6443 29.747 85.5859 29.8519L85.4554 30.0873C85.367 30.2505 85.2857 30.4158 85.2042 30.5819L85.1687 30.6543C85.1362 30.7218 85.1075 30.7906 85.0788 30.8592L85.0412 30.9488C84.9983 31.0466 84.9592 31.1484 84.9224 31.2507C84.8556 31.4351 84.7919 31.6197 84.7294 31.805C84.6634 32.0331 84.6022 32.2563 84.5417 32.4815C84.4978 32.647 84.4607 32.8141 84.4234 32.9817L84.3853 33.1518C84.2789 33.6251 84.2345 34.1028 84.2053 34.5075C84.1977 34.8363 84.199 35.1687 84.2089 35.5298C84.215 35.7375 84.2228 35.9457 84.2309 36.1542L84.2449 36.5282C84.2502 36.6811 84.2591 36.8339 84.2683 36.9868C84.2782 37.1582 84.2883 37.3298 84.2934 37.502C84.302 37.8136 84.3104 38.1759 84.3018 38.5319C84.2914 38.927 84.2718 39.2779 84.2421 39.6045C84.2132 39.9208 84.1779 40.257 84.0936 40.5828L84.0862 40.6107C84.0415 40.7842 83.9996 40.9482 83.9422 41.1105C83.8912 41.2549 83.8275 41.4002 83.7658 41.5409L83.7533 41.5685C83.6713 41.7567 83.5814 41.9413 83.4913 42.1259C83.4471 42.2165 83.4029 42.3069 83.3597 42.3978C83.2084 42.7163 83.0335 43.0311 82.8643 43.3356C82.7574 43.528 82.6505 43.7205 82.5482 43.9153C82.4301 44.1418 82.2948 44.4104 82.1836 44.688L82.1435 44.7872C82.0571 45.0005 81.9678 45.2214 81.8926 45.4454L81.7887 45.7727C81.7128 46.0165 81.6341 46.2689 81.5714 46.5225L81.5488 46.6155C81.4835 46.8821 81.416 47.1576 81.369 47.4341C81.3197 47.7236 81.2771 48.0295 81.2347 48.3972C81.2045 48.6656 81.1908 48.9368 81.1776 49.1994L81.1763 49.2273C81.1727 49.3428 81.1707 49.4556 81.1687 49.5686L81.1636 49.8217C81.1605 49.9472 81.1575 50.0726 81.1598 50.198C81.1676 50.5464 81.193 50.8943 81.2195 51.2183C81.2395 51.461 81.2613 51.7033 81.2832 51.9458L81.3464 52.6519C81.3568 52.7657 81.3746 52.8779 81.3921 52.9904L81.4096 53.1029C81.4132 53.1267 81.4183 53.1501 81.4231 53.1735L81.449 53.2941L81.5704 53.2717C81.758 53.2372 81.9462 53.2057 82.1343 53.1742C82.3822 53.1328 82.6302 53.0914 82.877 53.0429C83.4905 52.9231 84.0865 52.7862 84.639 52.6562L84.6771 52.6473C85.2047 52.5247 85.7502 52.3977 86.2902 52.2972L86.4627 52.2647C87.003 52.1631 87.5616 52.058 88.1088 51.9381C88.5385 51.8439 88.9668 51.7431 89.3949 51.6426L89.9122 51.5212C90.436 51.3993 90.9718 51.2868 91.4903 51.1779L92.526 50.9608C92.7302 50.9187 92.9343 50.8714 93.1385 50.8244L93.4305 50.7574C93.87 50.6579 94.3134 50.5444 94.7425 50.4349L95.0348 50.3603C95.519 50.2364 95.9519 50.1076 96.3496 49.984L96.2985 50.2905ZM81.2639 53.8738C81.2862 53.8738 81.3088 53.8717 81.3312 53.8674C81.625 53.8103 81.92 53.7603 82.2151 53.7097C82.6358 53.6381 83.071 53.564 83.4969 53.4703C83.8371 53.3964 84.1766 53.3174 84.5164 53.2387C84.7535 53.1836 84.9907 53.1285 85.2286 53.0749C85.757 52.9561 86.3215 52.8408 87.0048 52.7123C87.6152 52.5988 88.15 52.4879 88.639 52.3731L88.7837 52.3388C89.3353 52.2088 89.8868 52.0786 90.4403 51.9562C90.874 51.8592 91.3087 51.7683 91.7434 51.6774C92.4425 51.5314 93.1651 51.3803 93.8715 51.2058C94.2131 51.1213 94.5541 51.0228 94.8839 50.9275C95.1787 50.8425 95.4738 50.7572 95.7726 50.6807C95.7983 50.6741 95.8366 50.6652 95.8851 50.6541C96.0156 50.6244 96.2173 50.5781 96.4455 50.5129L96.5225 50.491L96.668 49.6178L96.4707 49.68C96.023 49.821 95.5314 49.971 94.972 50.1145L94.6795 50.1891C94.2522 50.2981 93.8103 50.4111 93.3744 50.5098L93.0816 50.5769C92.8792 50.6236 92.6768 50.6703 92.4742 50.7122L91.4382 50.9296C90.9185 51.0385 90.3809 51.1515 89.8548 51.2741L89.3368 51.3953C88.9099 51.4958 88.4828 51.5961 88.0545 51.6901C87.5108 51.8091 86.9542 51.914 86.4157 52.0151L86.2435 52.0476C85.6978 52.1491 85.1496 52.2769 84.6194 52.4003L84.5811 52.4092C84.0309 52.5384 83.4374 52.6745 82.828 52.7939C82.5838 52.8418 82.338 52.8827 82.0924 52.9239C81.9452 52.9485 81.7976 52.9731 81.6504 52.999L81.643 52.951C81.6262 52.8436 81.6092 52.7367 81.5993 52.6293L81.5361 51.9232C81.5143 51.6814 81.4924 51.4394 81.4726 51.1977C81.4465 50.8775 81.4213 50.5342 81.4137 50.1927C81.4114 50.0713 81.4145 49.9497 81.4173 49.8278L81.4226 49.5734C81.4246 49.4611 81.4267 49.3494 81.43 49.2374L81.4312 49.2121C81.4442 48.9536 81.4576 48.6862 81.4871 48.4259C81.5287 48.0631 81.5709 47.7614 81.6191 47.4765C81.6648 47.2094 81.7311 46.9382 81.7953 46.6759L81.8182 46.5827C81.8786 46.3372 81.9563 46.0886 82.0312 45.8484L82.1338 45.5241C82.2059 45.3093 82.2938 45.0924 82.3789 44.8825L82.4192 44.7827C82.5261 44.5158 82.6526 44.2647 82.7732 44.0328C82.8745 43.8404 82.9804 43.6497 83.0863 43.459C83.2574 43.151 83.4341 42.8326 83.589 42.507C83.6319 42.4169 83.6759 42.327 83.7196 42.2374C83.8112 42.0492 83.9026 41.8616 83.9862 41.6704L83.9984 41.6427C84.0618 41.4979 84.1276 41.3484 84.1817 41.195C84.2426 41.0221 84.2883 40.8451 84.3323 40.6737L84.3394 40.6463C84.4282 40.3022 84.4651 39.9544 84.495 39.6276C84.5252 39.2954 84.545 38.9392 84.5557 38.5383C84.5646 38.1762 84.556 37.8098 84.5473 37.4946C84.542 37.3199 84.5318 37.1458 84.5217 36.9718C84.5128 36.821 84.5039 36.6702 84.4986 36.5193L84.4846 36.1445C84.4765 35.9368 84.4686 35.7296 84.4628 35.5227C84.4529 35.1659 84.4516 34.8379 84.4587 34.5197C84.4871 34.1304 84.5303 33.6645 84.6329 33.208L84.6712 33.0368C84.7078 32.8728 84.7444 32.7087 84.7873 32.5467C84.8467 32.3235 84.9079 32.1021 84.9719 31.8807C85.0318 31.7022 85.095 31.5196 85.1611 31.3368C85.1961 31.2403 85.2329 31.1436 85.274 31.0499L85.3134 30.9567C85.3401 30.8922 85.3667 30.828 85.3969 30.7655L85.4322 30.6939C85.5122 30.5309 85.5917 30.3686 85.6785 30.2089L85.8075 29.9755C85.8667 29.8697 85.9256 29.7635 85.983 29.6566L86.4817 28.7291C86.599 28.5137 86.7189 28.2994 86.839 28.0849L86.9685 27.8528C87.1272 27.5666 87.2915 27.2705 87.4314 26.9651L87.4474 26.9303C87.5911 26.6139 87.7396 26.2868 87.845 25.9468L87.876 25.8524C87.8983 25.7851 87.9207 25.7176 87.9364 25.6493L87.9984 25.391C88.0151 25.3186 88.0296 25.2481 88.0438 25.1772L88.0593 25.1031C88.071 25.048 88.0827 24.9926 88.0905 24.9367L88.138 24.6143C88.1459 24.5609 88.1489 24.5074 88.152 24.454L88.1558 24.3885C88.1687 24.1859 88.17 23.9901 88.17 23.7906C88.17 23.6826 88.1642 23.5752 88.1581 23.4678C88.155 23.4114 88.152 23.3548 88.1497 23.2982C88.1474 23.2474 88.1423 23.1969 88.1373 23.1469L88.1007 22.7337C88.09 22.6185 88.0758 22.5044 88.0616 22.3909L88.0484 22.2861C88.0199 22.0454 87.9902 21.8064 87.9552 21.5675C87.9323 21.4093 87.8293 21.2846 87.6929 21.2348C87.6987 21.1569 87.7079 21.0447 87.7173 20.9319C87.7564 20.4533 87.7564 20.4533 87.7102 20.4078L87.6683 20.3669L87.6099 20.372C87.2937 20.4007 87.3204 21.5208 87.3214 21.5685C87.3262 21.747 87.3217 21.9385 87.3171 22.133C87.3102 22.4316 87.3031 22.7401 87.3278 23.0247C87.3458 23.2279 87.3603 23.4287 87.3689 23.6319C87.3768 23.8126 87.377 23.9922 87.377 24.1727L87.374 24.2212C87.3681 24.3218 87.3623 24.4223 87.3478 24.5226C87.3247 24.68 87.3008 24.8354 87.2706 24.9911C87.2394 25.1439 87.2049 25.2955 87.168 25.4487C87.1472 25.5365 87.1193 25.6226 87.0914 25.7087L87.0761 25.7559C86.9946 25.9669 86.9078 26.1838 86.8156 26.3983C86.7252 26.6093 86.6196 26.8191 86.5175 27.0222C86.4682 27.1215 86.4136 27.2182 86.3593 27.3147L86.0231 27.9193C85.8667 28.1996 85.7121 28.4802 85.5605 28.7643C85.4378 28.9941 85.3126 29.2227 85.1875 29.4517L85.075 29.6571C84.9343 29.9141 84.7528 30.2554 84.5956 30.6164C84.3508 31.1794 84.1502 31.8058 83.945 32.647C83.8623 32.9896 83.7955 33.3275 83.7462 33.6526C83.699 33.9672 83.6723 34.3039 83.6624 34.7124C83.6538 35.054 83.6647 35.3955 83.6754 35.7258C83.6858 36.0729 83.6985 36.4203 83.7152 36.7679L83.7244 36.949C83.7388 37.2268 83.7528 37.5038 83.7607 37.7808C83.7686 38.0959 83.7675 38.4207 83.7574 38.7741C83.7386 39.1246 83.7183 39.4706 83.6782 39.817C83.6553 40.0092 83.6276 40.1804 83.5934 40.3398C83.5575 40.5008 83.5172 40.661 83.4732 40.821C83.3377 41.2014 83.1602 41.5729 82.9905 41.92C82.9591 41.9832 82.9283 42.0474 82.8979 42.1114C82.8651 42.1797 82.8324 42.2478 82.7986 42.3153C82.7384 42.4375 82.6737 42.5568 82.6092 42.6759L82.5657 42.7556C82.5023 42.8727 82.4378 42.9895 82.3733 43.1063C82.2735 43.2866 82.1734 43.4671 82.0772 43.6497L82.0234 43.752C81.9705 43.8526 81.9172 43.9534 81.8695 44.0557C81.792 44.222 81.7202 44.3891 81.6529 44.5595C81.5262 44.8743 81.4152 45.1808 81.3134 45.4957C81.0767 46.23 80.9193 46.8498 80.8183 47.4468C80.7675 47.7426 80.7261 48.0565 80.6913 48.4056C80.6601 48.7301 80.6461 49.049 80.6326 49.4025C80.6205 49.7496 80.6182 50.0901 80.625 50.4151C80.6304 50.6924 80.6547 50.972 80.6781 51.2424L80.6923 51.4077C80.7101 51.6182 80.7291 51.8287 80.7479 52.0387L80.7893 52.512C80.7977 52.6181 80.8061 52.725 80.8208 52.8302C80.8365 52.9406 80.8556 53.0506 80.8749 53.1605L80.8952 53.2793C80.898 53.2948 80.9015 53.3091 80.9056 53.3228C80.8759 53.389 80.8652 53.4596 80.8751 53.531C80.8904 53.6376 80.9513 53.7356 81.042 53.8007C81.1092 53.8486 81.1862 53.8738 81.2639 53.8738Z" fill="#2E0BFF"/>
<path fill-rule="evenodd" clip-rule="evenodd" d="M110.373 32.0742C110.441 32.0742 110.509 32.0473 110.559 31.9937C112.981 29.4004 113.981 27.2596 113.532 25.6302C113.11 24.1008 111.576 23.6412 111.511 23.6224C111.376 23.5833 111.235 23.661 111.196 23.7956C111.157 23.9302 111.235 24.0708 111.369 24.11C111.382 24.114 112.701 24.5155 113.044 25.7703C113.434 27.1971 112.446 29.2292 110.188 31.6468C110.092 31.7494 110.098 31.9101 110.2 32.0059C110.249 32.0516 110.311 32.0742 110.373 32.0742Z" fill="white"/>
<path fill-rule="evenodd" clip-rule="evenodd" d="M89.0207 21.0879C89.1484 21.0879 89.2584 20.9919 89.2729 20.8619C89.6433 17.5198 91.58 13.3037 94.5646 11.7126C94.6882 11.6466 94.7349 11.4927 94.6692 11.3691C94.6032 11.2451 94.4493 11.1982 94.3256 11.2644C91.1859 12.9383 89.1533 17.3316 88.7678 20.806C88.7526 20.9454 88.8529 21.0708 88.9923 21.0863C89.0019 21.0874 89.0113 21.0879 89.0207 21.0879Z" fill="white"/>
<path fill-rule="evenodd" clip-rule="evenodd" d="M125.908 41.3954C125.93 41.3954 125.953 41.3924 125.975 41.3863L141.519 37.1385C141.655 37.1014 141.735 36.9617 141.697 36.8264C141.661 36.6911 141.521 36.6116 141.386 36.6484L125.841 40.8965C125.706 40.9336 125.626 41.073 125.663 41.2083C125.694 41.3213 125.796 41.3954 125.908 41.3954Z" fill="white"/>
<path fill-rule="evenodd" clip-rule="evenodd" d="M97.9425 41.6252C97.9476 41.6211 97.9534 41.6183 97.9583 41.6153C97.9654 41.6112 97.9712 41.6074 97.9773 41.6044C97.9633 41.5884 97.9524 41.5696 97.9445 41.5477C97.9433 41.5447 97.944 41.5411 97.9433 41.5378C97.9374 41.5389 97.9313 41.5401 97.9252 41.5411C97.9339 41.5681 97.9412 41.5955 97.9425 41.6252Z" fill="#F8648E"/>
<path fill-rule="evenodd" clip-rule="evenodd" d="M98.0928 41.6316C98.0928 41.633 98.0928 41.6346 98.0925 41.6359H98.0928C98.0928 41.6346 98.0928 41.633 98.0928 41.6316Z" fill="#45B348"/>
<path fill-rule="evenodd" clip-rule="evenodd" d="M97.4024 41.8206C97.2388 41.511 96.8661 41.2932 96.8661 41.2932C96.8661 41.2932 99.3009 40.6696 101.461 39.3004C101.536 39.2527 101.618 39.3517 101.557 39.4167C99.631 41.4658 97.5453 42.5803 97.5453 42.5803C97.5453 42.5803 97.5781 42.1537 97.4024 41.8206Z" fill="#F8648E"/>
<path fill-rule="evenodd" clip-rule="evenodd" d="M100.059 28.2339C100.103 28.2339 100.147 28.2105 100.17 28.1689C100.204 28.1075 100.182 28.0303 100.121 27.996L99.288 27.5313C99.2271 27.4975 99.1494 27.5191 99.1153 27.5803C99.0811 27.6415 99.1032 27.719 99.1644 27.753L99.9972 28.2179C100.017 28.2286 100.038 28.2339 100.059 28.2339Z" fill="#CEF367"/>
<path fill-rule="evenodd" clip-rule="evenodd" d="M98.6739 29.3848C98.698 29.3848 98.7221 29.3779 98.7437 29.3637C98.8024 29.3249 98.8184 29.2461 98.7798 29.1877L98.2529 28.3927C98.2143 28.3341 98.1356 28.3181 98.0769 28.3569C98.0185 28.3955 98.0025 28.4745 98.0411 28.5329L98.568 29.3279C98.5924 29.3647 98.6327 29.3848 98.6739 29.3848Z" fill="#CEF367"/>
<path fill-rule="evenodd" clip-rule="evenodd" d="M97.0696 30.0307C97.0775 30.0307 97.0854 30.03 97.0933 30.0284C97.1623 30.0155 97.2075 29.9492 97.1946 29.8802L97.0176 28.9429C97.0046 28.8744 96.9379 28.8287 96.8693 28.8419C96.8002 28.8548 96.755 28.9211 96.7682 28.9902L96.945 29.9274C96.9566 29.9883 97.0097 30.0307 97.0696 30.0307Z" fill="#CEF367"/>
<path fill-rule="evenodd" clip-rule="evenodd" d="M95.2805 30.1669C95.3437 30.1669 95.3986 30.1197 95.4064 30.0555L95.5222 29.1088C95.5308 29.0393 95.4813 28.9758 95.4118 28.9674C95.3427 28.957 95.2787 29.0083 95.2703 29.0779L95.1543 30.0245C95.1459 30.0941 95.1954 30.1575 95.265 30.1659C95.2701 30.1667 95.2754 30.1669 95.2805 30.1669Z" fill="#CEF367"/>
<path fill-rule="evenodd" clip-rule="evenodd" d="M93.5854 29.6117C93.6235 29.6117 93.6611 29.5947 93.6862 29.5622L94.2674 28.806C94.3101 28.7504 94.2997 28.6707 94.2441 28.6277C94.1885 28.5851 94.109 28.5957 94.0661 28.6511L93.4849 29.4073C93.4422 29.4629 93.4526 29.5426 93.5082 29.5853C93.5313 29.603 93.5585 29.6117 93.5854 29.6117Z" fill="#CEF367"/>
<path fill-rule="evenodd" clip-rule="evenodd" d="M88.8322 30.8546C88.8492 30.8546 88.8664 30.8511 88.8832 30.844C88.9474 30.8158 88.9764 30.7409 88.9482 30.6766L88.5643 29.8034C88.5363 29.7394 88.4614 29.71 88.3972 29.7384C88.333 29.7666 88.3038 29.8415 88.3319 29.9057L88.7159 30.7787C88.7367 30.8264 88.7834 30.8546 88.8322 30.8546Z" fill="#CEF367"/>
<path fill-rule="evenodd" clip-rule="evenodd" d="M90.2947 29.8345C90.3343 29.8345 90.3731 29.8162 90.398 29.7816C90.4389 29.7245 90.426 29.6453 90.3688 29.6044L89.5944 29.0476C89.5378 29.0064 89.4583 29.0199 89.4171 29.0768C89.3763 29.1336 89.3892 29.2129 89.4461 29.254L90.2205 29.8106C90.2431 29.8268 90.269 29.8345 90.2947 29.8345Z" fill="#CEF367"/>
<path fill-rule="evenodd" clip-rule="evenodd" d="M92.1108 34.032L93.5668 33.7905C93.6358 33.7791 93.6828 33.7138 93.6714 33.6447C93.66 33.5754 93.595 33.5279 93.5254 33.5401L92.3213 33.7397L91.2325 26.9301C91.2216 26.861 91.156 26.8135 91.087 26.8249C91.0179 26.8359 90.9707 26.9011 90.9819 26.9702L92.1108 34.032Z" fill="white"/>
<path fill-rule="evenodd" clip-rule="evenodd" d="M95.7799 35.5841C95.161 35.5848 94.6976 35.4645 94.4661 35.3883C94.2769 35.3258 94.0778 35.2987 93.8805 35.3243C93.7231 35.3446 93.5824 35.4137 93.4011 35.5861L93.1662 35.8855C93.1528 35.902 92.8293 35.598 92.8293 35.598C92.533 35.465 92.1932 35.8161 92.0962 36.0325C92.0053 36.2021 92.0127 36.4073 92.1155 36.5698C92.209 36.7168 92.308 36.8679 92.308 36.8679C92.6409 37.2759 92.8615 37.6718 93.6573 37.7013C94.2035 37.7213 94.7441 37.5474 95.2184 37.2404L96.7851 35.6458C96.8669 35.5739 96.8748 35.5356 96.8748 35.5356C96.8453 35.5282 96.1503 35.5836 95.7799 35.5841Z" fill="#7882FD"/>
<path fill-rule="evenodd" clip-rule="evenodd" d="M92.4009 36.7598C92.8313 36.7481 93.2556 36.7085 93.6769 36.6057C94.7271 36.3487 96.8542 35.5402 96.8745 35.5356C96.8664 35.5697 96.8151 35.6268 96.7864 35.6542L95.3266 37.2737C95.2718 37.3349 95.2106 37.39 95.143 37.434C94.7012 37.7211 94.2061 37.8809 93.7069 37.8605C92.9233 37.8288 92.7059 37.404 92.3783 36.966C92.3783 36.966 92.3232 36.8748 92.2572 36.7628C92.3065 36.7623 92.3545 36.7611 92.4009 36.7598Z" fill="#2E0BFF"/>
<path fill-rule="evenodd" clip-rule="evenodd" d="M99.4622 25.0246C99.4002 24.9535 99.3438 24.874 99.2753 24.8123C98.7951 24.3799 98.2459 24.093 97.687 23.8362C97.4371 23.7217 97.1665 23.672 96.9072 23.5854C96.4971 23.4482 96.0977 23.5224 95.7008 23.6054C95.4627 23.6552 95.2268 23.7232 94.9952 23.8004C94.6727 23.9081 94.3556 24.034 94.0346 24.1483C93.7462 24.2511 93.4541 24.3441 93.1667 24.4502C92.7188 24.615 92.587 24.8308 92.6292 25.3699C92.6479 25.6117 92.7069 25.8508 92.7523 26.1203C92.7924 26.1134 92.8605 26.1195 92.9123 26.0905C93.7065 25.6424 94.5011 25.1965 95.3471 24.8684C95.763 24.7072 96.1637 24.5142 96.6139 24.4583C97.2066 24.3845 97.7843 24.4482 98.3561 24.6594C98.6709 24.7757 98.9807 24.9126 99.2933 25.0391C99.337 25.0566 99.3832 25.0667 99.4281 25.0802C99.4396 25.0617 99.4507 25.0431 99.4622 25.0246Z" fill="#2E0BFF"/>
<path fill-rule="evenodd" clip-rule="evenodd" d="M87.9255 25.1118C88.0878 25.1174 87.8833 25.1037 88.0453 25.107C88.3518 25.1133 88.6581 25.1095 88.9645 25.1192C89.4414 25.1341 89.6346 25.2974 89.7651 25.822C89.8236 26.0571 89.8434 26.3029 89.8853 26.5728C89.8449 26.5789 89.7822 26.6064 89.724 26.5952C89.0565 26.4652 88.5618 26.3311 87.8897 26.2557C87.8884 26.2504 87.9359 25.1445 87.9255 25.1118Z" fill="#2E0BFF"/>
<path fill-rule="evenodd" clip-rule="evenodd" d="M93.8908 27.8103C94.0492 27.648 94.2074 27.4858 94.3877 27.3009C94.4641 27.4451 94.5375 27.5736 94.602 27.7067C94.9199 28.3643 96.0638 28.3651 96.3574 27.7387C96.5227 27.3857 96.4777 27.096 96.1002 26.675C97.1336 26.3992 98.2308 26.6341 99.2744 26.3924C99.2729 26.3502 99.2711 26.3081 99.2698 26.2662C98.8755 26.2393 98.4817 26.2078 98.0871 26.1862C97.0734 26.1301 96.0552 26.1016 95.0878 26.4673C94.4771 26.6986 94.0487 27.1501 93.8354 27.7834C93.8545 27.7912 93.8728 27.8001 93.8908 27.8103Z" fill="black"/>
<path fill-rule="evenodd" clip-rule="evenodd" d="M87.9732 28.9396C87.9696 28.9401 87.9912 29.1059 87.9909 29.1095C88.0366 29.1118 87.9856 29.1141 88.0318 29.1148C88.6849 29.1278 89.2504 28.868 89.6841 28.3599C89.6694 28.3454 89.6556 28.3302 89.6427 28.3142C89.4355 28.4059 88.5719 28.8279 87.9732 28.9396Z" fill="black"/>
<mask id="mask3" mask-type="alpha" maskUnits="userSpaceOnUse" x="88" y="0" width="26" height="18">
<path fill-rule="evenodd" clip-rule="evenodd" d="M113.395 0.244629H88.7211V17.3269H113.395V0.244629Z" fill="white"/>
</mask>
<g mask="url(#mask3)">
<path fill-rule="evenodd" clip-rule="evenodd" d="M112.792 11.7276C112.792 11.7276 112.061 2.81908 109.289 1.28946C107.216 0.145553 105.857 -0.06901 101.854 1.14651C100.284 0.769943 97.171 -0.598942 94.1605 1.00888C93.4069 1.41135 92.801 2.04132 92.3879 2.78912C91.3204 4.72094 90.5338 8.03384 89.2944 11.8945C87.9382 16.1199 89.4137 16.0887 89.4137 16.0887C89.4137 16.0887 97.2063 18.3765 106.715 16.7321C116.224 15.0878 112.792 11.7276 112.792 11.7276Z" fill="#CEF367"/>
</g>
<mask id="mask4" mask-type="alpha" maskUnits="userSpaceOnUse" x="79" y="9" width="37" height="13">
<path fill-rule="evenodd" clip-rule="evenodd" d="M115.08 9.29688H79.0538V21.4778H115.08V9.29688Z" fill="white"/>
</mask>
<g mask="url(#mask4)">
<path fill-rule="evenodd" clip-rule="evenodd" d="M90.4861 12.0852C90.4861 12.0852 85.0527 9.29688 83.4797 9.29688C81.9069 9.29688 78.5465 9.8687 79.1184 14.8735C79.905 17.8047 81.6923 19.2346 81.9783 19.4489C82.2642 19.6634 84.6236 21.7369 94.704 21.4508C104.785 21.1649 115.08 12.657 115.08 12.657L90.4861 12.0852Z" fill="#CEF367"/>
</g>
<path d="M98.6372 15.6286C98.6372 15.6286 94.6931 16.3045 90.0377 14.623" stroke="white" stroke-width="1.42601" stroke-linecap="round"/>
<path d="M100.817 1.75439C100.817 1.75439 97.9572 3.64889 94.2038 2.46943" stroke="white" stroke-width="1.42601" stroke-linecap="round"/>
<mask id="mask5" mask-type="alpha" maskUnits="userSpaceOnUse" x="97" y="8" width="27" height="14">
<path fill-rule="evenodd" clip-rule="evenodd" d="M123.547 8.65405H97.4387V21.2842H123.547V8.65405Z" fill="white"/>
</mask>
<g mask="url(#mask5)">
<path fill-rule="evenodd" clip-rule="evenodd" d="M113.048 10.2978C106.984 13.9281 97.4387 21.2842 97.4387 21.2842C99.8697 21.1413 112.977 20.6644 112.977 20.6644C112.977 20.6644 114.439 20.573 116.088 20.3257C118.749 19.9262 122.772 18.0907 123.272 16.0174C124.3 11.7566 122.233 9.90172 120.489 9.13793C119.214 8.57956 117.78 8.52141 116.434 8.87614C115.525 9.11584 114.309 9.54319 113.048 10.2978Z" fill="#B3DB23"/>
</g>
<path d="M122.277 14.8021C122.277 14.8021 122.634 10.8699 119.012 9.8689" stroke="white" stroke-width="1.42601" stroke-linecap="round"/>
</svg>