<svg xmlns:xlink="http://www.w3.org/1999/xlink" fill="none" viewBox="0 0 25 24" xmlns="http://www.w3.org/2000/svg" class="block overflow-hidden pointer-events-none w-full h-full" width="25"  height="24" ><path d="m19.263 2.50409c-.2893.03361-.5484.2689-.5484.60939v1.9539h-3.4232c-.7094 0-1.3679.37526-1.7253.98276l-2.3459 3.98516-2.34585-3.98516c-.35734-.6075-1.01587-.98276-1.72527-.98276h-3.4232c-.13241-.00186-.26387.02239-.38675.07134-.12288.04894-.23471.1216-.32901.21376s-.16918.20198-.22029.32308c-.05111.12109-.07743.25105-.07743.38231 0 .13127.02632.26123.07743.38232.05111.1211.12599.23091.22029.32307s.20613.16483.32901.21377c.12288.04895.25434.07319.38675.07134h3.4232l2.91382 4.95243-2.91382 4.9525h-3.4232c-.13241-.0018-.26387.0224-.38675.0713-.12288.049-.23471.1217-.32901.2138-.0943.0922-.16918.202-.22029.3231s-.07743.251-.07743.3823.02632.2612.07743.3823.12599.2309.22029.3231.20613.1648.32901.2138c.12288.0489.25434.0732.38675.0713h3.4232c.7094 0 1.36988-.3753 1.72722-.9828l2.3439-3.9852 2.3459 3.9872c.3581.6053 1.0159.9808 1.7253.9808h3.4232v1.9539c0 .5438.6632.8167 1.0519.4314l2.6191-2.5942c.4357-.4319.4357-1.1313 0-1.5632l-2.6191-2.5942c-.3887-.3853-1.0519-.1134-1.0519.4314v1.9539h-3.4232l-.002-.0019-2.9118-4.9486 2.9138-4.95443h3.4232v1.9539c0 .54378.6632.81671 1.0519.43141l2.6191-2.59424c.4357-.43186.4357-1.13127 0-1.56313l-2.6191-2.59424c-.1457-.14449-.3299-.19815-.5035-.17798z" fill="#FFFFFF"></path></svg>