<svg xmlns:xlink="http://www.w3.org/1999/xlink" fill="none" viewBox="0 0 24 24" xmlns="http://www.w3.org/2000/svg" class="block overflow-hidden pointer-events-none w-full h-full" width="24"  height="24" ><path clip-rule="evenodd" d="m3 8c0-2.761 2.239-5 5-5h8c2.761 0 5 2.239 5 5v8c0 2.761-2.239 5-5 5h-8c-2.761 0-5-2.239-5-5zm16-2c0-.552-.448-1-1-1s-1 .448-1 1 .448 1 1 1 1-.448 1-1zm-7 1c2.761 0 5 2.239 5 5s-2.239 5-5 5-5-2.239-5-5 2.239-5 5-5zm-3 5c0-1.6569 1.3431-3 3-3s3 1.3431 3 3-1.3431 3-3 3-3-1.3431-3-3z" fill="currentColor" fill-rule="evenodd"></path></svg>