<svg xmlns:xlink="http://www.w3.org/1999/xlink" xmlns="http://www.w3.org/2000/svg" width="166" height="190" viewBox="0 0 166 190" fill="none">
<path fill-rule="evenodd" clip-rule="evenodd" d="M33.5002 125.41L36.9547 128.096L37.4178 136.243L89.3348 144.988L85.353 134.296L94.5809 133.667L107.412 177.499L138.346 154.227L163.503 162.548C165.088 163.071 165.53 165.101 164.308 166.237L141.928 187.041C139.618 189.189 136.365 189.998 133.317 189.182L102.749 181.007L102.75 181.007L91.8876 151.842L85.0221 150.139L88.1416 164.564L84.1419 165.453L77.5482 148.284L34.8435 137.69L34.8434 137.689L33.5002 125.41Z" fill="#B9B3B8"/>
<path fill-rule="evenodd" clip-rule="evenodd" d="M56.3643 74.1379C56.3643 74.1379 64.4813 74.463 80.7155 75.1132L80.8824 87.0886L49.9671 108.128L90.7432 120.528C90.7739 120.534 90.8046 120.542 90.8352 120.549L106.189 115.533V127.789L95.6466 134.459C94.3096 136.122 92.1524 137.032 89.9171 136.695L39.9086 129.155C35.3878 128.474 31.9866 124.681 31.7997 120.114L30.5675 86.3229L30.5644 86.2318C30.486 83.3178 32.3701 80.7064 35.1699 79.8667C54.9276 76.7342 61.9924 74.8247 56.3643 74.1379Z" fill="#2F6858"/>
<path fill-rule="evenodd" clip-rule="evenodd" d="M16.1271 143.51C17.5034 152.4 23.2607 159.461 30.6217 161.351C31.9091 161.681 33.2303 161.849 34.5704 161.849C34.8062 161.849 34.9973 162.04 34.9973 162.276C34.9973 162.512 34.8062 162.703 34.5704 162.703C33.1584 162.703 31.7659 162.526 30.4094 162.177C22.6992 160.199 16.7095 152.852 15.2834 143.641C15.2473 143.408 15.407 143.19 15.6399 143.154C15.8729 143.118 16.091 143.277 16.1271 143.51ZM19.3702 125.425C19.5705 125.549 19.632 125.813 19.5076 126.013C17.8423 128.694 16.6932 131.787 16.1572 135.089C16.1194 135.322 15.9002 135.48 15.6674 135.442C15.4347 135.404 15.2767 135.185 15.3145 134.952C15.8684 131.54 17.0572 128.34 18.7824 125.563C18.9068 125.362 19.1699 125.301 19.3702 125.425Z" fill="#B9B3B8"/>
<path fill-rule="evenodd" clip-rule="evenodd" d="M35.6549 137.131L31.5872 142.916C31.3273 143.484 30.9716 143.833 30.5793 143.833C29.7833 143.833 29.1382 142.394 29.1382 140.618C29.1382 138.843 29.7833 137.404 30.5793 137.404L35.6549 137.131Z" fill="#010101"/>
<path fill-rule="evenodd" clip-rule="evenodd" d="M86.7889 164.672C81.5834 164.672 77.3635 169.68 77.3635 175.856C77.3635 182.032 81.5834 187.039 86.7889 187.039C91.9945 187.039 96.2145 182.032 96.2145 175.856C96.2145 169.68 91.9945 164.672 86.7889 164.672ZM86.7889 168.705C89.7117 168.705 92.1809 171.98 92.1809 175.856C92.1809 179.732 89.7117 183.006 86.7889 183.006C83.866 183.006 81.3968 179.732 81.3968 175.856C81.3968 171.98 83.866 168.705 86.7889 168.705Z" fill="#010101"/>
<path fill-rule="evenodd" clip-rule="evenodd" d="M33.3377 108.069C19.6802 108.069 8.60864 122.094 8.60864 139.395C8.60864 156.695 19.6802 170.72 33.3377 170.72C46.9955 170.72 58.0671 156.695 58.0671 139.395C58.0671 122.094 46.9955 108.069 33.3377 108.069ZM33.3377 111.295C45.1944 111.295 54.8403 123.901 54.8403 139.395C54.8403 154.889 45.1944 167.494 33.3377 167.494C21.481 167.494 11.8351 154.889 11.8351 139.395C11.8351 123.901 21.481 111.295 33.3377 111.295Z" fill="#B9B3B8"/>
<path fill-rule="evenodd" clip-rule="evenodd" d="M34.5706 98.1743C15.4832 98.1743 0.00952148 116.629 0.00952148 139.395C0.00952148 162.16 15.4832 180.615 34.5706 180.615C53.658 180.615 69.1313 162.16 69.1313 139.395C69.1313 116.629 53.658 98.1743 34.5706 98.1743ZM34.5706 105.433C41.6177 105.433 48.3208 108.799 53.4451 114.911C58.879 121.392 61.8716 130.087 61.8716 139.395C61.8716 148.703 58.879 157.398 53.4451 163.879C48.3208 169.99 41.6177 173.356 34.5706 173.356C27.5234 173.356 20.8203 169.99 15.6957 163.879C10.2621 157.398 7.26954 148.703 7.26954 139.395C7.26954 130.087 10.2621 121.392 15.6957 114.911C20.8203 108.799 27.5234 105.433 34.5706 105.433Z" fill="#010101"/>
<path fill-rule="evenodd" clip-rule="evenodd" d="M80.329 73.5122L84.293 78.8121C93.6071 80.5812 123.307 90.5109 133.127 95.0203C142.948 99.5294 142.507 104.91 143.151 113.767C143.598 119.916 144.857 137.503 146.53 148.12C147.004 151.128 148.186 154 150.531 155.941C150.64 156.031 150.751 156.12 150.866 156.209C154.069 158.701 156.029 161.737 155.137 163.686C154.229 165.671 137.572 163.041 133.149 162.305C134.227 165.436 136.198 168.211 138.852 170.268L142.933 173.43C144.938 174.984 144.908 178.09 142.798 179.497C141.418 180.418 139.513 180.92 137.662 181.186C134.449 181.648 131.175 181.396 128.044 180.541C123.788 179.377 116.698 177.116 113.157 174.164C107.896 169.778 103.336 123.275 103.336 123.275C103.336 123.275 80.0604 118.657 61.4486 113.271C56.7446 106.425 50.2286 101.421 42.7751 99.3L42.7735 99.3018C39.3762 88.1015 43.8121 73.5122 43.8121 73.5122H80.329Z" fill="#94C0E9"/>
<path fill-rule="evenodd" clip-rule="evenodd" d="M133.696 164.066L133.73 164.141C134.873 166.628 136.57 168.576 138.791 170.288L142.887 173.444C144.9 174.995 144.87 178.096 142.752 179.501C141.366 180.42 139.455 180.921 137.596 181.186C134.372 181.647 131.086 181.396 127.944 180.542C123.671 179.381 116.556 177.124 113.001 174.177C111.682 173.083 110.406 169.364 109.235 164.4C124.887 169.162 129.694 168.908 132.468 166.943C133.49 166.219 133.815 164.582 133.703 164.091L133.696 164.066ZM131.377 153.39C137.263 156.07 144.764 156.481 148.948 154.355C149.401 154.949 149.92 155.497 150.513 155.986C150.622 156.075 150.735 156.165 150.849 156.254C154.064 158.741 156.031 161.771 155.136 163.717C154.084 166.003 133.233 162.522 133.233 162.522L131.993 158.917L131.377 153.39Z" fill="#010101"/>
<path fill-rule="evenodd" clip-rule="evenodd" d="M132.561 158.843L132.553 158.806L132.558 158.825C132.559 158.831 132.56 158.837 132.561 158.843ZM133.498 162.299C133.539 162.451 133.449 162.607 133.298 162.648C133.146 162.689 132.99 162.6 132.949 162.448L132.005 158.955L131.997 158.918C131.506 155.222 131.194 151.456 130.578 142.675C130.571 142.567 130.571 142.567 130.563 142.459C129.788 131.41 129.382 126.939 128.671 123.273C128.531 122.547 128.393 121.803 128.231 120.9C128.153 120.466 127.88 118.933 127.824 118.619C126.765 112.71 125.958 109.808 124.288 106.914C122.205 103.308 118.934 100.543 113.78 98.284C113.077 97.9759 108.871 96.019 107.668 95.4717C104.31 93.9443 101.171 92.5977 97.8993 91.3144C92.655 89.2574 87.5583 87.5637 82.593 86.3015C82.5098 86.2804 82.4405 86.2227 82.4047 86.1445L80.1344 81.1975C80.0689 81.0547 80.1313 80.8857 80.2739 80.82C80.4165 80.7544 80.5852 80.8169 80.6508 80.9598L82.8644 85.7833C87.813 87.0482 92.8879 88.7374 98.1065 90.7844C101.389 92.0717 104.536 93.4221 107.903 94.9534C109.111 95.503 113.312 97.4574 114.008 97.7625C119.268 100.068 122.633 102.912 124.779 106.629C126.493 109.597 127.313 112.547 128.383 118.518C128.44 118.833 128.712 120.366 128.79 120.8C128.952 121.7 129.089 122.441 129.229 123.165C129.947 126.863 130.353 131.34 131.13 142.419C131.137 142.527 131.137 142.527 131.145 142.635C131.759 151.388 132.07 155.15 132.558 158.825L133.498 162.299Z" fill="#3973B0"/>
<path fill-rule="evenodd" clip-rule="evenodd" d="M54.9536 0.253906C64.2154 0.253906 71.7236 7.91408 71.7236 17.3634C71.7236 20.0949 71.0962 22.6768 69.9804 24.9675H39.9267C38.811 22.6768 38.1836 20.0949 38.1836 17.3634C38.1836 7.91408 45.6918 0.253906 54.9536 0.253906Z" fill="#010101"/>
<path fill-rule="evenodd" clip-rule="evenodd" d="M45.2245 22.7474C46.2388 22.7474 47.1455 22.3729 47.7545 21.7831C47.9747 21.5697 48.3152 21.5483 48.5485 21.7478C50.2515 23.2057 52.4128 24.2428 54.8229 24.6673C55.1324 24.722 55.3513 25.001 55.3332 25.315L54.989 31.3135H60.823L60.5529 26.6087C60.4803 25.3425 61.4426 24.126 62.6931 23.9147C67.0255 23.1814 69.6795 19.7714 69.6361 14.7686C69.5754 7.8011 63.2538 3.51416 56.2911 3.51416C49.3285 3.51416 44.6766 7.46901 44.6766 13.664C44.6766 14.8154 44.8743 15.9248 45.237 16.9701C45.2893 17.1208 45.1839 17.2786 45.0241 17.2812C44.1174 17.2971 41.8905 17.4736 41.9021 20.0145C41.9091 21.5238 43.3897 22.7474 45.2245 22.7474Z" fill="#F7D3BB"/>
<path fill-rule="evenodd" clip-rule="evenodd" d="M45.2256 17.2096C45.2256 17.2096 50.8047 14.7678 50.9962 8.17186C50.9962 8.17186 61.2884 11.194 67.2764 8.21908C67.2764 8.21908 65.2973 6.15328 64.4766 5.58685C62.8842 4.48775 57.4569 2.32861 57.4569 2.32861L47.5807 4.09807L43.3833 9.28287L45.2256 17.2096Z" fill="#010101"/>
<path fill-rule="evenodd" clip-rule="evenodd" d="M46.1031 21.1009C46.1982 20.8367 46.544 20.7745 46.7251 20.9892L50.3194 25.2446C50.5006 25.4591 50.3817 25.7894 50.1052 25.8391L44.6227 26.8243C44.3464 26.8739 44.1198 26.6056 44.2149 26.3415L46.1031 21.1009ZM66.435 22.317L68.3996 25.8155C68.5401 26.0587 68.3645 26.3627 68.0836 26.3627H62.5133C62.2324 26.3627 62.057 26.0587 62.1973 25.8155L63.3728 23.7797C64.4886 23.5299 65.5873 22.9924 66.435 22.317Z" fill="#F3705A"/>
<path fill-rule="evenodd" clip-rule="evenodd" d="M52.759 16.1274C52.6985 15.9549 52.7892 15.766 52.9617 15.7055C53.1342 15.645 53.3231 15.7358 53.3836 15.9083C53.3984 15.9505 53.4331 16.0337 53.4884 16.1438C53.5821 16.3299 53.6984 16.5163 53.8377 16.6889C54.2231 17.1664 54.7015 17.4446 55.2918 17.4446C55.8904 17.4446 56.3845 17.1827 56.789 16.7362C56.9342 16.5759 57.0567 16.4032 57.1565 16.2308C57.2153 16.1292 57.2524 16.0526 57.2684 16.0143C57.3385 15.8455 57.5321 15.7654 57.701 15.8355C57.8698 15.9056 57.9498 16.0993 57.8797 16.2681C57.7816 16.5045 57.5862 16.8421 57.2796 17.1806C56.7589 17.7556 56.0965 18.1066 55.2918 18.1066C54.4788 18.1066 53.8238 17.7257 53.3226 17.1046C53.0293 16.7412 52.8475 16.3798 52.759 16.1274Z" fill="#010101"/>
<path fill-rule="evenodd" clip-rule="evenodd" d="M61.7205 16.1064C61.6375 15.9435 61.7023 15.7442 61.8651 15.6613C62.028 15.5783 62.2273 15.643 62.3103 15.8059C62.331 15.8465 62.3762 15.9252 62.4448 16.0292C62.5608 16.2049 62.6982 16.3808 62.8553 16.544C63.2898 16.9956 63.7833 17.2598 64.3283 17.2598C64.8551 17.2598 65.2915 16.9769 65.6492 16.4861C65.7802 16.3064 65.8902 16.1121 65.9791 15.9178C66.0319 15.8025 66.0652 15.7149 66.0797 15.6698C66.1358 15.4958 66.3223 15.4002 66.4963 15.4562C66.6703 15.5123 66.7659 15.6987 66.7098 15.8727C66.6877 15.9413 66.6454 16.0528 66.581 16.1933C66.4748 16.4255 66.3433 16.6576 66.1842 16.876C65.713 17.5224 65.0969 17.9218 64.3283 17.9218C63.5782 17.9218 62.9268 17.573 62.3783 17.003C62.0575 16.6696 61.8381 16.3374 61.7205 16.1064Z" fill="#010101"/>
<path fill-rule="evenodd" clip-rule="evenodd" d="M56.9342 20.0236C56.8337 19.8709 56.8759 19.6656 57.0286 19.5651C57.1813 19.4646 57.3865 19.5068 57.4871 19.6595C57.5085 19.692 57.5595 19.759 57.6405 19.8491C57.7796 20.004 57.9496 20.1599 58.1505 20.3058C59.0367 20.949 60.1885 21.1863 61.6492 20.7724C61.8251 20.7226 62.0081 20.8248 62.0579 21.0007C62.1077 21.1765 62.0055 21.3595 61.8297 21.4093C60.1669 21.8804 58.807 21.6002 57.7617 20.8415C57.3479 20.5412 57.0752 20.2376 56.9342 20.0236Z" fill="#010101"/>
<path fill-rule="evenodd" clip-rule="evenodd" d="M42.1873 34.4267L47.6376 51.5635C46.8019 60.7554 43.4043 82.0858 43.4043 82.0858C43.4043 82.0858 48.8139 101.755 50.8177 106.709C52.8215 111.663 51.2294 117.36 48.4271 120.795C46.7569 122.842 45.3818 123.93 44.3575 124.216C43.5883 124.43 42.8828 123.921 42.7061 123.685C42.2405 123.064 42.3522 122.24 42.3522 122.24C42.3522 122.24 41.7853 122.868 40.5534 123.361C38.3885 124.225 37.7687 122.141 37.7687 122.141C37.7687 122.141 36.4917 123.134 35.3414 122.812C34.2527 122.507 34.1944 121.378 34.1913 121.258L34.1911 121.247C34.1911 121.247 31.9826 123.134 30.3905 121.69C29.1687 120.582 35.5877 109.698 35.5877 109.698C35.5877 109.698 34.9215 108.372 32.1988 102.206C25.786 87.6845 27.0261 74.7376 27.0261 74.7376C29.2303 44.1535 34.5175 38.1724 42.1873 34.4267ZM73.8977 47.0059C73.8977 47.0059 75.825 47.74 76.2378 49.9424C76.6509 52.145 76.4185 54.6936 76.4185 54.6936L91.3893 50.6578C91.3893 50.6578 92.2267 49.6935 101.114 82.5972C101.97 85.7649 103.296 91.653 94.2726 91.9173C90.831 92.0181 87.4867 90.7582 84.8958 88.4907C80.8875 84.9827 73.7731 77.9697 68.0596 68.1125C68.0596 68.1125 62.1969 68.6178 59.7191 67.7919C59.7191 67.7919 57.906 67.2969 57.9336 64.7894C57.9336 64.7894 55.6813 64.2128 55.9565 61.5515C55.9565 61.5515 55.9565 60.955 56.4155 60.5878C56.4155 60.5878 54.5849 59.5991 54.8455 57.5714C55.0269 56.1612 55.7272 55.8159 55.7272 55.8159L55.716 55.8046C55.5388 55.6246 53.352 53.3234 54.7177 50.7683C56.1401 48.107 57.746 49.346 57.746 49.346L58.2509 52.5579C58.2509 52.5579 62.9769 54.2099 67.3363 54.0264C71.6953 53.8428 73.347 52.6497 73.347 52.6497L73.8977 47.0059ZM65.4782 30.7676C65.4782 30.7676 61.0101 35.585 54.2912 30.8499C54.2912 30.8499 60.542 30.3569 65.4782 30.7676Z" fill="#F7D3BB"/>
<mask id="mask0" mask-type="alpha" maskUnits="userSpaceOnUse" x="30" y="30" width="62" height="48">
<path fill-rule="evenodd" clip-rule="evenodd" d="M65.4582 30.7659C66.0833 30.809 66.667 30.8634 67.1942 30.9303C78.0541 32.3074 87.2576 39.4153 91.5875 50.6752C92.086 51.971 76.5466 56.5242 76.4186 54.6937C76.3575 53.8203 76.651 52.1451 76.2379 49.9424C75.8251 47.7401 73.8978 47.0059 73.8978 47.0059L73.3471 52.6497C73.3471 52.6497 71.6955 53.8428 67.3361 54.0264C62.977 54.21 58.251 52.5579 58.251 52.5579L57.7461 49.346C57.7461 49.346 56.1402 48.107 54.7178 50.7684C53.2952 53.4297 55.7273 55.8157 55.7273 55.8157C55.7273 55.8157 55.027 56.1612 54.8456 57.5717C54.585 59.5991 56.4156 60.5879 56.4156 60.5879C55.9566 60.955 55.9566 61.5515 55.9566 61.5515C55.6814 64.2128 57.9337 64.7894 57.9337 64.7894C57.9061 67.297 59.7192 67.7919 59.7192 67.7919C62.197 68.6178 68.0597 68.1125 68.0597 68.1125C68.8856 69.5373 73.0271 75.4082 73.8978 76.712C68.4661 77.378 56.6726 77.5192 46.0371 74.7254C45.7757 74.6568 44.8229 74.4745 44.559 74.4023L46.2549 55.9748C46.2549 55.9748 36.0098 57.2061 30.6143 50.0823C33.3853 40.1064 37.91 36.1821 41.1807 34.4267C45.779 32.2831 46.0371 32.2081 50.4932 31.3191C51.3582 31.1466 52.7178 30.9926 54.3268 30.8745C61.026 35.568 65.4783 30.7677 65.4783 30.7677L65.4582 30.7659Z" fill="white"/>
</mask>
<g mask="url(#mask0)">
<path fill-rule="evenodd" clip-rule="evenodd" d="M65.4582 30.7659C66.0833 30.809 66.667 30.8634 67.1942 30.9303C78.0541 32.3074 87.2576 39.4153 91.5875 50.6752C92.086 51.971 76.5466 56.5242 76.4186 54.6937C76.3575 53.8203 76.651 52.1451 76.2379 49.9424C75.8251 47.7401 73.8978 47.0059 73.8978 47.0059L73.3471 52.6497C73.3471 52.6497 71.6955 53.8428 67.3361 54.0264C62.977 54.21 58.251 52.5579 58.251 52.5579L57.7461 49.346C57.7461 49.346 56.1402 48.107 54.7178 50.7684C53.2952 53.4297 55.7273 55.8157 55.7273 55.8157C55.7273 55.8157 55.027 56.1612 54.8456 57.5717C54.585 59.5991 56.4156 60.5879 56.4156 60.5879C55.9566 60.955 55.9566 61.5515 55.9566 61.5515C55.6814 64.2128 57.9337 64.7894 57.9337 64.7894C57.9061 67.297 59.7192 67.7919 59.7192 67.7919C62.197 68.6178 68.0597 68.1125 68.0597 68.1125C68.8856 69.5373 73.0271 75.4082 73.8978 76.712C68.4661 77.378 56.6726 77.5192 46.0371 74.7254C45.7757 74.6568 44.8229 74.4745 44.559 74.4023L46.2549 55.9748C46.2549 55.9748 36.0098 57.2061 30.6143 50.0823C33.3853 40.1064 37.91 36.1821 41.1807 34.4267C45.779 32.2831 46.0371 32.2081 50.4932 31.3191C51.3582 31.1466 52.7178 30.9926 54.3268 30.8745C61.026 35.568 65.4783 30.7677 65.4783 30.7677L65.4582 30.7659Z" fill="#F3705A"/>
<path fill-rule="evenodd" clip-rule="evenodd" d="M69.5575 77.6989C69.8434 77.5947 70.1884 77.8211 70.2924 78.1073C70.3967 78.393 70.3204 78.9059 70.0345 79.0099C69.7486 79.114 69.3608 78.77 69.2568 78.4843C69.1527 78.1981 69.2713 77.803 69.5575 77.6989ZM63.5576 78.1521C63.6764 77.8718 64.0163 77.7623 64.2965 77.8813C64.5767 78.0002 64.6911 78.3024 64.572 78.5829C64.4532 78.8629 64.0278 79.0876 63.7476 78.9687C63.4674 78.8499 63.4385 78.4323 63.5576 78.1521ZM87.7502 77.9315C87.869 77.6513 88.2089 77.5417 88.4891 77.6608C88.7693 77.7796 88.8837 78.0821 88.7647 78.3623C88.6458 78.6426 88.2204 78.867 87.9402 78.7482C87.66 78.6293 87.6311 78.2117 87.7502 77.9315ZM46.5748 77.0374C46.8607 76.9333 47.2057 77.1596 47.3098 77.4457C47.4138 77.7317 47.338 78.2443 47.0519 78.3486C46.7659 78.4525 46.3782 78.1087 46.2741 77.8228C46.1701 77.5366 46.2887 77.1415 46.5748 77.0374ZM31.3596 77.1058C31.6204 76.9488 32.0022 77.1051 32.1592 77.3662C32.3159 77.627 32.339 78.1449 32.078 78.3017C31.8173 78.4584 31.3708 78.195 31.2143 77.9339C31.0576 77.6729 31.0988 77.2625 31.3596 77.1058ZM40.5749 77.4905C40.6937 77.2103 41.0337 77.1007 41.3139 77.2198C41.594 77.3386 41.7085 77.6411 41.5894 77.9214C41.4706 78.2016 41.0451 78.426 40.765 78.3072C40.4848 78.1884 40.4559 77.7708 40.5749 77.4905ZM74.8971 76.309C75.0968 76.0792 75.5082 76.1099 75.7379 76.3096C75.9676 76.5094 76.1497 76.9944 75.9499 77.2242C75.7502 77.4539 75.2445 77.3413 75.0148 77.1415C74.7851 76.942 74.6974 76.5387 74.8971 76.309ZM51.9145 75.6474C52.1143 75.4177 52.5256 75.4486 52.7553 75.6481C52.985 75.8478 53.1671 76.3329 52.9672 76.5626C52.7677 76.7924 52.262 76.6799 52.0322 76.48C51.8025 76.2804 51.7148 75.8772 51.9145 75.6474ZM58.9901 75.0782C59.2921 75.0412 59.5774 75.339 59.6146 75.6413C59.6514 75.9436 59.4623 76.4258 59.1601 76.4631C58.8578 76.5001 58.5576 76.0779 58.5205 75.7758C58.4833 75.4735 58.6879 75.1153 58.9901 75.0782ZM83.1827 74.8577C83.4848 74.8207 83.77 75.1186 83.807 75.4208C83.8441 75.7231 83.6547 76.2053 83.3527 76.2426C83.0505 76.2796 82.7502 75.8574 82.7132 75.5553C82.6759 75.2531 82.8805 74.8948 83.1827 74.8577ZM67.1087 75.2151C67.2277 74.9349 67.5674 74.8253 67.8476 74.9443C68.1278 75.0634 68.2422 75.3659 68.1234 75.6459C68.0043 75.9261 67.5789 76.1508 67.2987 76.0318C67.0185 75.9129 66.9896 75.4953 67.1087 75.2151ZM91.3012 74.9946C91.4203 74.7144 91.76 74.6048 92.0402 74.7239C92.3203 74.8429 92.4348 75.1454 92.3159 75.4254C92.1969 75.7057 91.7714 75.9303 91.4912 75.8113C91.2111 75.6924 91.1824 75.2748 91.3012 74.9946ZM36.0073 74.4166C36.3095 74.3796 36.5948 74.6777 36.6318 74.98C36.6689 75.282 36.4795 75.7644 36.1775 75.8017C35.8753 75.8387 35.575 75.4163 35.538 75.1142C35.5007 74.812 35.7053 74.4537 36.0073 74.4166ZM44.126 74.5536C44.245 74.2734 44.5847 74.1638 44.8649 74.2829C45.1451 74.402 45.2595 74.7045 45.1407 74.9845C45.0217 75.2647 44.5962 75.4894 44.316 75.3703C44.0358 75.2515 44.0072 74.8339 44.126 74.5536ZM62.3009 73.1634C62.6053 73.1634 62.852 73.4939 62.852 73.7984C62.852 74.1029 62.6053 74.5584 62.3009 74.5584C61.9964 74.5584 61.7498 74.1029 61.7498 73.7984C61.7498 73.4939 61.9964 73.1634 62.3009 73.1634ZM73.0694 73.2153C73.3553 73.111 73.7003 73.3374 73.8044 73.6236C73.9086 73.9093 73.8326 74.4222 73.5467 74.5262C73.2605 74.6303 72.8728 74.2866 72.7687 74.0006C72.6647 73.7144 72.7835 73.3193 73.0694 73.2153ZM86.4934 72.9429C86.7978 72.9429 87.0445 73.2734 87.0445 73.5778C87.0445 73.8823 86.7978 74.3378 86.4934 74.3378C86.1892 74.3378 85.9423 73.8823 85.9423 73.5778C85.9423 73.2734 86.1892 72.9429 86.4934 72.9429ZM54.563 72.8614C54.8237 72.7045 55.2056 72.8608 55.3623 73.1218C55.519 73.3827 55.5424 73.9006 55.2814 74.0573C55.0204 74.2141 54.5742 73.9506 54.4177 73.6896C54.2607 73.4285 54.302 73.0182 54.563 72.8614ZM39.3182 72.502C39.6226 72.502 39.8693 72.8325 39.8693 73.1369C39.8693 73.4414 39.6226 73.8969 39.3182 73.8969C39.014 73.8969 38.7671 73.4414 38.7671 73.1369C38.7671 72.8325 39.014 72.502 39.3182 72.502ZM78.7555 72.641C79.0163 72.484 79.3981 72.6404 79.5549 72.9014C79.7116 73.1622 79.7348 73.6801 79.474 73.8369C79.2132 73.9937 78.7668 73.73 78.61 73.4691C78.4533 73.2081 78.4945 72.7978 78.7555 72.641ZM50.0868 72.5538C50.3727 72.4495 50.7177 72.676 50.8218 72.9621C50.9261 73.2479 50.85 73.7607 50.5639 73.8648C50.2779 73.9689 49.8902 73.6251 49.7861 73.3392C49.6821 73.053 49.8009 72.6579 50.0868 72.5538ZM32.4539 72.1942C32.5048 71.8324 32.8531 71.4807 33.2148 71.5315C33.5766 71.5822 33.8145 72.0165 33.7638 72.3783C33.7128 72.7399 33.3436 73.2404 32.9818 73.1897C32.6201 73.1386 32.4029 72.5558 32.4539 72.1942ZM67.3711 71.7399C67.6145 71.7399 67.812 72.0535 67.812 72.3421C67.812 72.6307 67.6145 73.0628 67.3711 73.0628C67.1277 73.0628 66.9302 72.6307 66.9302 72.3421C66.9302 72.0535 67.1277 71.7399 67.3711 71.7399ZM91.5636 71.5194C91.8072 71.5194 92.0045 71.833 92.0045 72.1216C92.0045 72.4102 91.8072 72.8423 91.5636 72.8423C91.3203 72.8423 91.1228 72.4102 91.1228 72.1216C91.1228 71.833 91.3203 71.5194 91.5636 71.5194ZM56.9953 71.446C57.046 71.0842 57.3946 70.7325 57.7563 70.7833C58.1181 70.8342 58.3559 71.2683 58.305 71.6301C58.2543 71.9919 57.885 72.4922 57.5233 72.4415C57.1615 72.3903 56.9446 71.8078 56.9953 71.446ZM44.3884 71.0785C44.632 71.0785 44.8293 71.392 44.8293 71.6806C44.8293 71.9692 44.632 72.4014 44.3884 72.4014C44.145 72.4014 43.9475 71.9692 43.9475 71.6806C43.9475 71.392 44.145 71.0785 44.3884 71.0785ZM81.188 71.2255C81.2387 70.8637 81.5872 70.5121 81.949 70.5628C82.3105 70.6137 82.5486 71.0478 82.4976 71.4096C82.4469 71.7715 82.0777 72.2717 81.7159 72.221C81.3542 72.1699 81.1371 71.5874 81.188 71.2255ZM36.6386 69.982C36.8822 69.982 37.0795 70.2955 37.0795 70.5841C37.0795 70.8727 36.8822 71.3048 36.6386 71.3048C36.3952 71.3048 36.1977 70.8727 36.1977 70.5841C36.1977 70.2955 36.3952 69.982 36.6386 69.982ZM62.2962 69.1394C62.4959 68.9097 62.9073 68.9403 63.137 69.1401C63.3667 69.3399 63.5488 69.8249 63.349 70.0549C63.1493 70.2844 62.6436 70.1717 62.4139 69.972C62.1842 69.7724 62.0965 69.3692 62.2962 69.1394ZM75.0535 68.8055C75.3394 68.7015 75.6844 68.9277 75.7884 69.2139C75.8925 69.4998 75.8166 70.0124 75.5305 70.1167C75.2444 70.2206 74.8568 69.8771 74.7528 69.5909C74.6485 69.3047 74.7673 68.9096 75.0535 68.8055ZM86.4889 68.9189C86.6886 68.6891 87.1 68.72 87.3297 68.9196C87.5594 69.1193 87.7415 69.6044 87.5415 69.8343C87.342 70.0639 86.8363 69.9514 86.6066 69.7514C86.3769 69.5519 86.2892 69.1486 86.4889 68.9189ZM39.3137 68.4779C39.5134 68.2482 39.9247 68.2791 40.1544 68.4786C40.3841 68.6783 40.5662 69.1634 40.3663 69.3934C40.1668 69.6229 39.6611 69.5104 39.4314 69.3105C39.2017 69.1109 39.1139 68.7077 39.3137 68.4779ZM52.0708 68.1442C52.3567 68.0399 52.7017 68.2663 52.8058 68.5525C52.9101 68.8383 52.8338 69.3511 52.5479 69.4552C52.262 69.5592 51.8742 69.2155 51.7701 68.9295C51.6661 68.6434 51.7847 68.2483 52.0708 68.1442ZM69.6858 67.0738C69.9291 67.0738 70.1267 67.3871 70.1267 67.6759C70.1267 67.9645 69.9291 68.3966 69.6858 68.3966C69.4424 68.3966 69.2449 67.9645 69.2449 67.6759C69.2449 67.3871 69.4424 67.0738 69.6858 67.0738ZM32.5577 67.2743C32.7574 67.0445 33.1687 67.0754 33.3984 67.2749C33.6281 67.4747 33.8102 67.9597 33.6103 68.1895C33.4108 68.4192 32.9051 68.3068 32.6754 68.1068C32.4457 67.9073 32.3579 67.504 32.5577 67.2743ZM57.7024 67.0487C57.9021 66.819 58.3135 66.8497 58.5432 67.0494C58.7729 67.2492 58.955 67.7342 58.7552 67.964C58.5555 68.1937 58.0498 68.081 57.8201 67.8813C57.5904 67.6817 57.5027 67.2785 57.7024 67.0487ZM81.8951 66.8283C82.0946 66.5985 82.5062 66.6292 82.7359 66.8289C82.9656 67.0287 83.1475 67.5137 82.9478 67.7435C82.748 67.9732 82.2423 67.8606 82.0126 67.6608C81.7829 67.4613 81.6952 67.058 81.8951 66.8283ZM46.7031 66.4122C46.9467 66.4122 47.144 66.7257 47.144 67.0143C47.144 67.3029 46.9467 67.7351 46.7031 67.7351C46.4597 67.7351 46.2622 67.3029 46.2622 67.0143C46.2622 66.7257 46.4597 66.4122 46.7031 66.4122ZM63.9984 66.0255C64.1173 65.7455 64.4572 65.6357 64.7374 65.7547C65.0176 65.8738 65.132 66.1761 65.0129 66.4563C64.8941 66.7365 64.4687 66.961 64.1885 66.8422C63.9083 66.7233 63.8794 66.3059 63.9984 66.0255ZM88.1911 65.805C88.3099 65.5248 88.6498 65.4152 88.93 65.5343C89.2102 65.6531 89.3246 65.9556 89.2055 66.2359C89.0867 66.5161 88.6613 66.7405 88.3811 66.6217C88.1009 66.5029 88.072 66.0853 88.1911 65.805ZM41.0156 65.3641C41.1347 65.0838 41.4746 64.9743 41.7548 65.0933C42.035 65.2122 42.1494 65.5147 42.0303 65.7949C41.9113 66.0751 41.4861 66.2996 41.2059 66.1807C40.9257 66.0619 40.8968 65.6443 41.0156 65.3641ZM51.4948 64.2746C51.7971 64.2376 52.0823 64.5357 52.1194 64.8377C52.1564 65.14 51.967 65.6224 51.6648 65.6595C51.3628 65.6965 51.0623 65.2743 51.0253 64.972C50.9883 64.6699 51.1928 64.3116 51.4948 64.2746ZM91.8363 64.054C92.1383 64.017 92.4236 64.3153 92.4608 64.6173C92.4979 64.9194 92.3085 65.4018 92.0063 65.4391C91.7043 65.4761 91.4038 65.0539 91.3668 64.7516C91.3297 64.4495 91.5343 64.0913 91.8363 64.054ZM75.6876 64.0541C75.9896 64.0171 76.2749 64.3152 76.3119 64.6173C76.3489 64.9195 76.1596 65.402 75.8576 65.439C75.5553 65.476 75.2551 65.0538 75.2181 64.7515C75.1808 64.4495 75.3854 64.0912 75.6876 64.0541ZM36.7502 64.1851C36.9499 63.9554 37.3612 63.986 37.5909 64.1858C37.8206 64.3856 38.0027 64.8706 37.803 65.1004C37.6033 65.3301 37.0976 65.2177 36.8679 65.0177C36.6382 64.8181 36.5504 64.4149 36.7502 64.1851ZM44.6612 63.6132C44.9632 63.5761 45.2484 63.8742 45.2855 64.1763C45.3225 64.4786 45.1334 64.961 44.8311 64.998C44.5289 65.0351 44.2287 64.6128 44.1916 64.3106C44.1544 64.0085 44.3589 63.6502 44.6612 63.6132ZM68.8538 63.3927C69.1558 63.3557 69.4411 63.6538 69.4781 63.9558C69.5151 64.2581 69.3258 64.7405 69.0238 64.7775C68.7215 64.8146 68.4213 64.3924 68.3843 64.0901C68.347 63.788 68.5516 63.4297 68.8538 63.3927ZM58.0122 63.0361C58.3142 62.9991 58.5995 63.2974 58.6365 63.5994C58.6738 63.9015 58.4844 64.3839 58.1822 64.4209C57.8802 64.4582 57.5797 64.036 57.5427 63.7337C57.5056 63.4314 57.7102 63.0734 58.0122 63.0361ZM82.2048 62.8156C82.507 62.7786 82.792 63.0769 82.8293 63.3789C82.8663 63.681 82.677 64.1634 82.3749 64.2005C82.0727 64.2377 81.7722 63.8155 81.7352 63.5132C81.6982 63.2109 81.9027 62.8529 82.2048 62.8156ZM86.2634 62.4978C86.3824 62.2176 86.7221 62.108 87.0023 62.227C87.2825 62.3461 87.3969 62.6484 87.2781 62.9286C87.159 63.2088 86.7336 63.4335 86.4534 63.3145C86.1732 63.1956 86.1443 62.778 86.2634 62.4978ZM34.0216 62.2239C34.1405 61.9437 34.4804 61.8341 34.7606 61.9532C35.0408 62.072 35.1552 62.3745 35.0361 62.6548C34.9173 62.935 34.4919 63.1597 34.2117 63.0406C33.9315 62.9215 33.9026 62.5042 34.0216 62.2239ZM39.0881 62.0568C39.2072 61.7766 39.5469 61.667 39.8271 61.7861C40.1073 61.9051 40.2217 62.2074 40.1028 62.4877C39.9838 62.7679 39.5583 62.9926 39.2782 62.8735C38.998 62.7547 38.9691 62.3371 39.0881 62.0568ZM63.2807 61.8363C63.3997 61.5561 63.7394 61.4465 64.0196 61.5656C64.2998 61.6847 64.4142 61.9869 64.2954 62.2672C64.1764 62.5474 63.7509 62.7721 63.4707 62.653C63.1905 62.5342 63.1617 62.1166 63.2807 61.8363ZM53.6854 60.5013C53.9715 60.3972 54.3163 60.6235 54.4203 60.9096C54.5246 61.1956 54.4485 61.7082 54.1624 61.8123C53.8765 61.9164 53.4887 61.5726 53.3847 61.2867C53.2806 61.0005 53.3992 60.6054 53.6854 60.5013ZM47.6855 60.9544C47.8045 60.6742 48.1442 60.5646 48.4244 60.6837C48.7046 60.8025 48.819 61.105 48.7002 61.3853C48.5811 61.6655 48.1557 61.8902 47.8755 61.7711C47.5953 61.652 47.5667 61.2347 47.6855 60.9544ZM77.8779 60.2809C78.164 60.1768 78.509 60.403 78.613 60.689C78.7171 60.9752 78.641 61.4878 78.3551 61.5919C78.0692 61.6959 77.6814 61.3522 77.5774 61.0662C77.4733 60.78 77.5919 60.3849 77.8779 60.2809ZM71.8781 60.734C71.9969 60.4537 72.3369 60.3442 72.6171 60.4632C72.8972 60.5821 73.0117 60.8846 72.8926 61.1648C72.7738 61.445 72.3483 61.6697 72.0681 61.5506C71.788 61.4316 71.7591 61.0142 71.8781 60.734ZM59.0251 59.1113C59.2248 58.8816 59.6361 58.9122 59.8659 59.112C60.0956 59.3117 60.2776 59.797 60.0779 60.0268C59.8782 60.2565 59.3725 60.1438 59.1428 59.9441C58.9131 59.7443 58.8254 59.3411 59.0251 59.1113ZM83.2177 58.8909C83.4174 58.6611 83.8288 58.6918 84.0585 58.8915C84.2882 59.0913 84.4703 59.5765 84.2704 59.8063C84.0708 60.036 83.5651 59.9234 83.3354 59.7236C83.1057 59.5239 83.018 59.1206 83.2177 58.8909ZM32.0939 58.9167C32.213 58.6365 32.5527 58.5269 32.8329 58.646C33.113 58.7648 33.2275 59.0673 33.1086 59.3475C32.9896 59.6278 32.5641 59.8524 32.2839 59.7334C32.0038 59.6143 31.9751 59.1969 32.0939 58.9167ZM90.2932 58.3216C90.5954 58.2846 90.8807 58.5827 90.9177 58.8847C90.9547 59.187 90.7654 59.6694 90.4631 59.7065C90.1611 59.7435 89.8609 59.3213 89.8236 59.019C89.7866 58.7169 89.9912 58.3587 90.2932 58.3216ZM43.118 57.8807C43.4201 57.8436 43.7053 58.1417 43.7423 58.4438C43.7794 58.7461 43.5902 59.2285 43.288 59.2655C42.9858 59.3026 42.6855 58.8803 42.6485 58.5781C42.6112 58.276 42.8158 57.9177 43.118 57.8807ZM67.3106 57.66C67.6126 57.623 67.8979 57.9213 67.9349 58.2234C67.9722 58.5254 67.7826 59.0078 67.4806 59.0451C67.1786 59.0821 66.8781 58.6599 66.8411 58.3576C66.8041 58.0556 67.0086 57.6973 67.3106 57.66ZM51.2366 58.0177C51.3556 57.7374 51.6953 57.6279 51.9755 57.7469C52.2557 57.8658 52.3701 58.1683 52.2513 58.4485C52.1323 58.7287 51.7068 58.9534 51.4266 58.8343C51.1464 58.7153 51.1178 58.2979 51.2366 58.0177ZM75.4292 57.7972C75.5482 57.5169 75.8879 57.4074 76.1681 57.5264C76.4483 57.6455 76.5627 57.9478 76.4439 58.228C76.3248 58.5082 75.8994 58.7329 75.6192 58.6138C75.339 58.495 75.3104 58.0774 75.4292 57.7972ZM34.8592 56.6576C35.1026 56.6576 35.3001 56.9711 35.3001 57.2598C35.3001 57.5484 35.1026 57.9805 34.8592 57.9805C34.6156 57.9805 34.4183 57.5484 34.4183 57.2598C34.4183 56.9711 34.6156 56.6576 34.8592 56.6576ZM46.4288 55.9657C46.7333 55.9657 46.9799 56.2962 46.9799 56.6007C46.9799 56.9052 46.7333 57.361 46.4288 57.361C46.1244 57.361 45.8777 56.9052 45.8777 56.6007C45.8777 56.2962 46.1244 55.9657 46.4288 55.9657ZM85.866 56.1048C86.127 55.948 86.5089 56.1043 86.6656 56.3654C86.8223 56.6262 86.8455 57.1441 86.5845 57.3007C86.3237 57.4574 85.8775 57.1939 85.7208 56.9331C85.564 56.6721 85.6053 56.2617 85.866 56.1048ZM57.1973 56.0176C57.4834 55.9135 57.8284 56.1397 57.9324 56.4259C58.0365 56.7121 57.9604 57.2245 57.6745 57.3288C57.3884 57.4328 57.0008 57.0891 56.8968 56.8029C56.7925 56.517 56.9113 56.1216 57.1973 56.0176ZM70.6214 55.7453C70.9258 55.7453 71.1725 56.0758 71.1725 56.3803C71.1725 56.6848 70.9258 57.1405 70.6214 57.1405C70.3171 57.1405 70.0702 56.6848 70.0702 56.3803C70.0702 56.0758 70.3171 55.7453 70.6214 55.7453ZM81.39 55.7971C81.676 55.693 82.021 55.9192 82.125 56.2054C82.2293 56.4916 82.153 57.004 81.8671 57.1083C81.5812 57.2123 81.1934 56.8686 81.0894 56.5824C80.9853 56.2965 81.1039 55.9011 81.39 55.7971ZM38.6908 55.6638C38.9518 55.507 39.3336 55.6634 39.4904 55.9244C39.6471 56.1852 39.6702 56.7031 39.4092 56.8597C39.1485 57.0165 38.7023 56.753 38.5455 56.4921C38.3888 56.2311 38.43 55.8208 38.6908 55.6638ZM62.8835 55.4434C63.1442 55.2867 63.5261 55.443 63.683 55.7038C63.8397 55.9646 63.8629 56.4826 63.6019 56.6393C63.3411 56.7961 62.8947 56.5326 62.7382 56.2718C62.5814 56.0107 62.6227 55.6002 62.8835 55.4434ZM51.4991 54.5424C51.7424 54.5424 51.9399 54.8559 51.9399 55.1445C51.9399 55.4334 51.7424 55.8653 51.4991 55.8653C51.2557 55.8653 51.0582 55.4334 51.0582 55.1445C51.0582 54.8559 51.2557 54.5424 51.4991 54.5424ZM88.2984 54.6895C88.3494 54.3277 88.6977 53.976 89.0594 54.0267C89.4212 54.0776 89.6592 54.5118 89.6083 54.8736C89.5574 55.2352 89.1881 55.7354 88.8264 55.6847C88.4649 55.634 88.2477 55.0511 88.2984 54.6895ZM75.6916 54.3219C75.9352 54.3219 76.1325 54.6354 76.1325 54.924C76.1325 55.2129 75.9352 55.6448 75.6916 55.6448C75.4482 55.6448 75.2507 55.2129 75.2507 54.924C75.2507 54.6354 75.4482 54.3219 75.6916 54.3219ZM41.1232 54.2485C41.1741 53.8867 41.5224 53.535 41.8842 53.5857C42.2459 53.6367 42.484 54.0708 42.4331 54.4326C42.3822 54.7942 42.0129 55.2945 41.6512 55.2438C41.2896 55.1931 41.0725 54.6101 41.1232 54.2485ZM32.8172 53.8585C33.1192 53.8215 33.4045 54.1195 33.4417 54.4216C33.4785 54.7239 33.2894 55.2063 32.9872 55.2433C32.6852 55.2804 32.3847 54.8582 32.3477 54.5561C32.3104 54.2538 32.515 53.8955 32.8172 53.8585ZM65.316 54.028C65.3667 53.6662 65.7152 53.3145 66.0768 53.3652C66.4385 53.4161 66.6764 53.8503 66.6257 54.2121C66.575 54.5739 66.2055 55.0742 65.844 55.0232C65.4822 54.9725 65.2651 54.3898 65.316 54.028ZM91.2077 53.089C91.3265 52.8087 91.6665 52.6992 91.9467 52.8182C92.2268 52.9371 92.3412 53.2396 92.2222 53.5198C92.1034 53.8 91.6779 54.0247 91.3977 53.9056C91.1176 53.7866 91.0887 53.3692 91.2077 53.089ZM46.4242 51.9418C46.6239 51.712 47.0352 51.7429 47.2649 51.9427C47.4946 52.1422 47.6767 52.6275 47.477 52.8572C47.2773 53.087 46.7716 52.9743 46.5419 52.7745C46.3122 52.5748 46.2244 52.1718 46.4242 51.9418ZM59.1814 51.608C59.4673 51.5039 59.8123 51.7301 59.9163 52.0163C60.0206 52.3023 59.9445 52.8149 59.6586 52.9192C59.3725 53.0232 58.9847 52.6793 58.8807 52.3933C58.7766 52.1074 58.8955 51.712 59.1814 51.608ZM70.6168 51.7214C70.8166 51.4916 71.2279 51.5225 71.4576 51.722C71.6873 51.9218 71.8694 52.407 71.6695 52.6368C71.47 52.8665 70.9643 52.7539 70.7346 52.5541C70.5049 52.3544 70.4171 51.9511 70.6168 51.7214ZM83.374 51.3875C83.6599 51.2834 84.0049 51.5096 84.109 51.7958C84.2133 52.0818 84.137 52.5944 83.8511 52.6987C83.5651 52.8028 83.1774 52.4588 83.0733 52.1729C82.9693 51.8869 83.0879 51.4916 83.374 51.3875ZM35.8415 51.1999C35.9605 50.9196 36.3002 50.8101 36.5804 50.9291C36.8606 51.048 36.975 51.3505 36.8562 51.6307C36.7372 51.9109 36.3117 52.1356 36.0315 52.0165C35.7513 51.8975 35.7227 51.4801 35.8415 51.1999ZM89.0056 50.2921C89.2053 50.0623 89.6167 50.093 89.8464 50.2927C90.0761 50.4925 90.2582 50.9778 90.0584 51.2075C89.8587 51.4373 89.353 51.3246 89.1233 51.1248C88.8936 50.9251 88.8059 50.5218 89.0056 50.2921ZM53.8137 49.8761C54.0571 49.8761 54.2546 50.1896 54.2546 50.4782C54.2546 50.7668 54.0571 51.199 53.8137 51.199C53.5704 51.199 53.3728 50.7668 53.3728 50.4782C53.3728 50.1896 53.5704 49.8761 53.8137 49.8761ZM78.0063 49.6556C78.2499 49.6556 78.4472 49.9691 78.4472 50.2578C78.4472 50.5464 78.2499 50.9785 78.0063 50.9785C77.7629 50.9785 77.5654 50.5464 77.5654 50.2578C77.5654 49.9691 77.7629 49.6556 78.0063 49.6556ZM41.8303 49.8511C42.0301 49.6214 42.4414 49.652 42.6711 49.8518C42.9008 50.0515 43.0829 50.5368 42.8832 50.7665C42.6835 50.9963 42.1778 50.8836 41.9481 50.6839C41.7184 50.4841 41.6306 50.0808 41.8303 49.8511ZM66.023 49.6306C66.2227 49.4009 66.6341 49.4315 66.8638 49.6313C67.0935 49.8311 67.2756 50.3163 67.0756 50.5461C66.8761 50.7758 66.3704 50.6632 66.1407 50.4634C65.911 50.2636 65.8233 49.8604 66.023 49.6306ZM39.3743 48.5669C39.6763 48.5299 39.9615 48.828 39.9986 49.1301C40.0356 49.4323 39.8462 49.9147 39.5442 49.9518C39.242 49.9888 38.9417 49.5666 38.9047 49.2646C38.8674 48.9623 39.072 48.604 39.3743 48.5669ZM48.1264 48.828C48.2454 48.5477 48.5851 48.4382 48.8653 48.5572C49.1455 48.6761 49.2599 48.9786 49.1411 49.2588C49.022 49.539 48.5966 49.7637 48.3164 49.6446C48.0362 49.5256 48.0075 49.1082 48.1264 48.828ZM72.319 48.6075C72.4378 48.3273 72.7778 48.2177 73.0579 48.3367C73.3381 48.4556 73.4525 48.7581 73.3335 49.0383C73.2147 49.3185 72.7892 49.5432 72.509 49.4242C72.2288 49.3051 72.2 48.8877 72.319 48.6075ZM58.8297 47.9055C59.1317 47.8685 59.417 48.1666 59.4542 48.4686C59.4911 48.7709 59.3019 49.2533 58.9997 49.2903C58.6974 49.3274 58.3972 48.9052 58.3602 48.6031C58.3229 48.3008 58.5275 47.9425 58.8297 47.9055ZM82.7982 47.5181C83.1002 47.481 83.3854 47.7791 83.4227 48.0812C83.4595 48.3834 83.2703 48.8659 82.9681 48.9029C82.6659 48.9399 82.3656 48.5177 82.3286 48.2154C82.2913 47.9134 82.4959 47.5551 82.7982 47.5181ZM35.8675 47.6358C36.0673 47.406 36.4786 47.4367 36.7083 47.6364C36.938 47.8362 37.1201 48.3215 36.9204 48.5512C36.7207 48.781 36.215 48.6683 35.9852 48.4685C35.7555 48.2688 35.6678 47.8655 35.8675 47.6358ZM31.63 47.7932C31.749 47.5129 32.0888 47.4034 32.3689 47.5224C32.6491 47.6413 32.7635 47.9438 32.6447 48.224C32.5257 48.5042 32.1002 48.7289 31.82 48.6098C31.5398 48.4908 31.5112 48.0734 31.63 47.7932ZM51.9959 47.2441C52.2979 47.207 52.5832 47.5051 52.6204 47.8072C52.6573 48.1094 52.4681 48.5919 52.1659 48.6289C51.8637 48.6659 51.5634 48.2437 51.5264 47.9417C51.4891 47.6394 51.6937 47.2811 51.9959 47.2441ZM75.9644 46.8566C76.2664 46.8196 76.5516 47.1177 76.5889 47.4197C76.6257 47.722 76.4366 48.2044 76.1343 48.2415C75.8321 48.2785 75.5318 47.8563 75.4948 47.554C75.4576 47.2519 75.6621 46.8936 75.9644 46.8566ZM65.3469 46.6672C65.6492 46.63 65.9344 46.928 65.9715 47.2303C66.0085 47.5324 65.8191 48.0148 65.5169 48.0521C65.2149 48.0891 64.9144 47.6667 64.8774 47.3646C64.8403 47.0625 65.0449 46.7043 65.3469 46.6672ZM89.3154 46.2795C89.6174 46.2425 89.9027 46.5408 89.9397 46.8428C89.977 47.1449 89.7876 47.6273 89.4854 47.6644C89.1834 47.7016 88.8829 47.2794 88.8459 46.9771C88.8088 46.6748 89.0134 46.3168 89.3154 46.2795ZM42.3986 45.9083C42.5174 45.6281 42.8573 45.5185 43.1375 45.6376C43.4177 45.7564 43.5321 46.0589 43.413 46.3391C43.2942 46.6194 42.8688 46.844 42.5886 46.725C42.3084 46.6059 42.2795 46.1885 42.3986 45.9083ZM46.4228 45.6878C46.5419 45.4076 46.8816 45.298 47.1618 45.4171C47.442 45.5359 47.5564 45.8384 47.4376 46.1187C47.3185 46.3989 46.8931 46.6236 46.6129 46.5045C46.3327 46.3854 46.304 45.9681 46.4228 45.6878ZM70.3913 45.3003C70.5104 45.02 70.8501 44.9104 71.1303 45.0295C71.4104 45.1486 71.5249 45.4508 71.406 45.7311C71.287 46.0113 70.8615 46.236 70.5814 46.1169C70.3012 45.9981 70.2723 45.5805 70.3913 45.3003ZM61.0202 44.1323C61.3061 44.0283 61.6511 44.2545 61.7552 44.5405C61.8594 44.8266 61.7832 45.3393 61.4972 45.4433C61.2113 45.5474 60.8236 45.2037 60.7195 44.9175C60.6155 44.6315 60.7343 44.2364 61.0202 44.1323ZM55.0202 44.5854C55.1392 44.3052 55.479 44.1956 55.7591 44.3147C56.0393 44.4335 56.1537 44.736 56.0349 45.0162C55.9159 45.2965 55.4904 45.5212 55.2102 45.4021C54.93 45.283 54.9014 44.8657 55.0202 44.5854ZM34.278 44.4833C34.397 44.2031 34.7367 44.0935 35.0169 44.2125C35.2971 44.3316 35.4115 44.6339 35.2927 44.9141C35.1737 45.1944 34.7482 45.419 34.468 45.3C34.1878 45.1811 34.159 44.7635 34.278 44.4833ZM84.9886 43.7448C85.2745 43.6407 85.6195 43.8669 85.7236 44.1529C85.8279 44.4391 85.7516 44.9517 85.4657 45.0558C85.1798 45.1598 84.792 44.8161 84.6879 44.5301C84.5839 44.2439 84.7025 43.8488 84.9886 43.7448ZM78.9887 44.1979C79.1077 43.9176 79.4474 43.8081 79.7276 43.9271C80.0078 44.046 80.1222 44.3485 80.0034 44.6287C79.8843 44.9089 79.4589 45.1336 79.1787 45.0145C78.8985 44.8955 78.8698 44.4781 78.9887 44.1979ZM37.831 42.8344C38.1331 42.7973 38.4183 43.0954 38.4553 43.3977C38.4926 43.6998 38.303 44.1822 38.001 44.2192C37.699 44.2565 37.3985 43.8343 37.3615 43.532C37.3245 43.2297 37.529 42.8714 37.831 42.8344ZM66.3598 42.7423C66.5596 42.5126 66.9709 42.5432 67.2006 42.743C67.4303 42.9428 67.6124 43.4278 67.4127 43.6576C67.213 43.8875 66.7073 43.7749 66.4775 43.5749C66.2478 43.3753 66.1601 42.9721 66.3598 42.7423ZM90.3283 42.3548C90.528 42.125 90.9393 42.1557 91.169 42.3554C91.3988 42.5552 91.5808 43.0405 91.3811 43.2702C91.1814 43.4999 90.6757 43.3873 90.446 43.1875C90.2163 42.9878 90.1285 42.5845 90.3283 42.3548ZM50.4527 41.5115C50.7547 41.4745 51.04 41.7726 51.0772 42.0748C51.1143 42.3769 50.9249 42.8593 50.6227 42.8963C50.3207 42.9336 50.0202 42.5114 49.9832 42.2091C49.9461 41.9068 50.1507 41.5485 50.4527 41.5115ZM74.4212 41.1239C74.7232 41.0869 75.0084 41.3852 75.0457 41.6873C75.0827 41.9893 74.8933 42.4717 74.5911 42.509C74.2891 42.546 73.9886 42.1238 73.9516 41.8215C73.9146 41.5195 74.1191 41.1612 74.4212 41.1239ZM58.5714 41.6486C58.6902 41.3684 59.0301 41.2588 59.3103 41.3779C59.5905 41.4967 59.7049 41.7992 59.5859 42.0795C59.467 42.3597 59.0416 42.5841 58.7614 42.4653C58.4812 42.3465 58.4523 41.9289 58.5714 41.6486ZM41.1419 40.9196C41.4461 40.9196 41.693 41.2501 41.693 41.5546C41.693 41.8591 41.4461 42.3148 41.1419 42.3148C40.8375 42.3148 40.5908 41.8591 40.5908 41.5546C40.5908 41.2501 40.8375 40.9196 41.1419 40.9196ZM82.5398 41.2611C82.6589 40.9808 82.9986 40.8713 83.2787 40.9903C83.5589 41.1094 83.6733 41.4117 83.5545 41.6919C83.4355 41.9721 83.01 42.1968 82.7298 42.0777C82.4497 41.9589 82.4208 41.5413 82.5398 41.2611ZM33.404 40.6178C33.6648 40.4608 34.0466 40.6173 34.2033 40.8782C34.3601 41.139 34.3832 41.6569 34.1224 41.8137C33.8614 41.9704 33.4152 41.707 33.2585 41.4459C33.1018 41.1851 33.143 40.7745 33.404 40.6178ZM53.7636 39.5967C54.068 39.5967 54.3147 39.9272 54.3147 40.2317C54.3147 40.5362 54.068 40.9919 53.7636 40.9919C53.4591 40.9919 53.2124 40.5362 53.2124 40.2317C53.2124 39.9272 53.4591 39.5967 53.7636 39.5967ZM64.532 39.6485C64.8182 39.5445 65.1631 39.7707 65.2672 40.0569C65.3712 40.3431 65.2952 40.8555 65.0093 40.9597C64.7234 41.0638 64.3356 40.7201 64.2315 40.4339C64.1273 40.1477 64.2461 39.7526 64.532 39.6485ZM77.732 39.2092C78.0365 39.2092 78.2831 39.5397 78.2831 39.8442C78.2831 40.1487 78.0365 40.6044 77.732 40.6044C77.4276 40.6044 77.1809 40.1487 77.1809 39.8442C77.1809 39.5397 77.4276 39.2092 77.732 39.2092ZM88.5004 39.261C88.7866 39.1569 89.1316 39.3831 89.2356 39.6693C89.3397 39.9555 89.2636 40.4679 88.9777 40.5722C88.6916 40.6763 88.304 40.3325 88.2 40.0463C88.0957 39.7604 88.2145 39.3651 88.5004 39.261ZM35.8364 39.2022C35.8871 38.8406 36.2356 38.4889 36.5974 38.5396C36.9589 38.5903 37.197 39.0247 37.146 39.3863C37.0953 39.7481 36.7261 40.2483 36.3643 40.1976C36.0026 40.1467 35.7855 39.564 35.8364 39.2022ZM69.9941 38.9073C70.2549 38.7506 70.6367 38.9069 70.7934 39.1677C70.9502 39.4285 70.9735 39.9465 70.7125 40.1032C70.4515 40.26 70.0054 39.9965 69.8488 39.7357C69.6919 39.4746 69.7331 39.0641 69.9941 38.9073ZM58.8338 38.1734C59.0772 38.1734 59.2747 38.4869 59.2747 38.7755C59.2747 39.0641 59.0772 39.4963 58.8338 39.4963C58.5904 39.4963 58.3929 39.0641 58.3929 38.7755C58.3929 38.4869 58.5904 38.1734 58.8338 38.1734ZM82.8023 37.7858C83.0456 37.7858 83.2431 38.0993 83.2431 38.3879C83.2431 38.6768 83.0456 39.1087 82.8023 39.1087C82.5589 39.1087 82.3614 38.6768 82.3614 38.3879C82.3614 38.0993 82.5589 37.7858 82.8023 37.7858ZM48.458 37.8793C48.5087 37.5177 48.8573 37.166 49.219 37.2167C49.5808 37.2674 49.8186 37.7018 49.7677 38.0634C49.717 38.4252 49.3478 38.9255 48.986 38.8747C48.6243 38.8238 48.4073 38.2411 48.458 37.8793ZM72.4265 37.4919C72.4772 37.1301 72.8257 36.7785 73.1875 36.8292C73.5492 36.8801 73.7871 37.3142 73.7361 37.676C73.6854 38.0376 73.3162 38.5379 72.9544 38.4872C72.5927 38.4365 72.3758 37.8535 72.4265 37.4919ZM41.1372 36.8957C41.337 36.6659 41.7483 36.6966 41.978 36.8963C42.2077 37.0961 42.3898 37.5814 42.1901 37.8111C41.9904 38.0408 41.4847 37.9282 41.255 37.7284C41.0253 37.5287 40.9375 37.1254 41.1372 36.8957ZM31.8549 36.7556C31.974 36.4754 32.3137 36.3658 32.5939 36.4849C32.8741 36.6037 32.9885 36.9062 32.8696 37.1864C32.7506 37.4667 32.3251 37.6914 32.045 37.5723C31.7648 37.4532 31.7361 37.0359 31.8549 36.7556ZM53.7589 35.5728C53.9586 35.343 54.37 35.3737 54.5997 35.5734C54.8294 35.7732 55.0115 36.2585 54.8118 36.4882C54.612 36.718 54.1063 36.6053 53.8766 36.4055C53.6469 36.2058 53.5592 35.8025 53.7589 35.5728ZM66.5162 35.239C66.8021 35.1349 67.1471 35.3611 67.2511 35.6473C67.3552 35.9333 67.2794 36.4459 66.9932 36.5502C66.7073 36.654 66.3195 36.3103 66.2155 36.0243C66.1112 35.7381 66.23 35.343 66.5162 35.239ZM77.7273 35.1852C77.9271 34.9555 78.3384 34.9863 78.5681 35.1861C78.7978 35.3856 78.9799 35.8709 78.7802 36.1006C78.5805 36.3304 78.0748 36.2177 77.8451 36.018C77.6154 35.8182 77.5276 35.4152 77.7273 35.1852ZM90.4845 34.8514C90.7706 34.7473 91.1156 34.9735 91.2196 35.2597C91.3237 35.5459 91.2476 36.0583 90.9617 36.1626C90.6756 36.2666 90.288 35.9229 90.184 35.6367C90.0797 35.3507 90.1985 34.9554 90.4845 34.8514ZM38.2975 34.7891C38.5409 34.7891 38.7384 35.1026 38.7384 35.3912C38.7384 35.6801 38.5409 36.112 38.2975 36.112C38.0542 36.112 37.8567 35.6801 37.8567 35.3912C37.8567 35.1026 38.0542 34.7891 38.2975 34.7891ZM61.1485 33.5071C61.3918 33.5071 61.5894 33.8206 61.5894 34.1092C61.5894 34.3978 61.3918 34.83 61.1485 34.83C60.9051 34.83 60.7076 34.3978 60.7076 34.1092C60.7076 33.8206 60.9051 33.5071 61.1485 33.5071ZM42.8394 33.7818C42.9583 33.5016 43.2982 33.392 43.5784 33.5111C43.8586 33.6299 43.973 33.9324 43.8539 34.2127C43.7351 34.4929 43.3097 34.7176 43.0295 34.5985C42.7493 34.4794 42.7204 34.0621 42.8394 33.7818ZM49.1651 33.4822C49.3648 33.2524 49.7761 33.2831 50.0059 33.4829C50.2356 33.6824 50.4176 34.1677 50.2179 34.3974C50.0182 34.6272 49.5125 34.5145 49.2828 34.3147C49.0531 34.115 48.9654 33.7119 49.1651 33.4822ZM85.1169 33.1195C85.3603 33.1195 85.5578 33.433 85.5578 33.7217C85.5578 34.0103 85.3603 34.4424 85.1169 34.4424C84.8736 34.4424 84.676 34.0103 84.676 33.7217C84.676 33.433 84.8736 33.1195 85.1169 33.1195ZM73.1335 33.0945C73.3333 32.8648 73.7446 32.8954 73.9743 33.0952C74.204 33.2949 74.3861 33.7802 74.1864 34.01C73.9867 34.2397 73.481 34.127 73.2513 33.9273C73.0215 33.7275 72.9338 33.3243 73.1335 33.0945ZM39.1746 32.6296C39.3744 32.3998 39.7857 32.4305 40.0154 32.6302C40.2451 32.8298 40.4272 33.3151 40.2275 33.5448C40.0278 33.7745 39.5221 33.6619 39.2924 33.4621C39.0627 33.2624 38.9749 32.8593 39.1746 32.6296ZM55.4611 32.459C55.5801 32.1787 55.9198 32.0691 56.2 32.1882C56.4802 32.307 56.5946 32.6095 56.4758 32.8898C56.3568 33.17 55.9313 33.3947 55.6511 33.2756C55.3709 33.1566 55.3423 32.7392 55.4611 32.459ZM33.2226 32.1885C33.4224 31.9588 33.8337 31.9896 34.0634 32.1894C34.2931 32.3889 34.4752 32.8742 34.2755 33.104C34.0758 33.3337 33.5701 33.221 33.3403 33.0213C33.1106 32.8215 33.0229 32.4185 33.2226 32.1885ZM79.4296 32.0714C79.5486 31.7912 79.8883 31.6816 80.1685 31.8006C80.4487 31.9195 80.5631 32.222 80.4443 32.5022C80.3252 32.7824 79.8998 33.0071 79.6196 32.8881C79.3394 32.769 79.3107 32.3516 79.4296 32.0714ZM65.9403 31.3694C66.2424 31.3324 66.5276 31.6305 66.5646 31.9325C66.6017 32.2348 66.4123 32.7172 66.1103 32.7542C65.8081 32.7913 65.5078 32.3691 65.4706 32.067C65.4335 31.7647 65.6381 31.4064 65.9403 31.3694ZM59.1065 30.708C59.4086 30.6709 59.6938 30.969 59.7308 31.2711C59.7679 31.5734 59.5785 32.0558 59.2765 32.0928C58.9743 32.1298 58.674 31.7076 58.6368 31.4056C58.5997 31.1033 58.8043 30.745 59.1065 30.708Z" fill="#010101"/>
</g>
<path fill-rule="evenodd" clip-rule="evenodd" d="M58.2511 52.5584L56.8323 41.9507H74.2737L73.3474 52.6502C73.3474 52.6502 68.4504 56.4164 58.2511 52.5584Z" fill="#94C0E9"/>
<path fill-rule="evenodd" clip-rule="evenodd" d="M75.528 42.0103H55.9363L56.3776 39.3821H75.0867L75.528 42.0103Z" fill="#3973B0"/>
<path fill-rule="evenodd" clip-rule="evenodd" d="M67.9434 28.9399H66.8624C66.544 28.9399 66.2825 29.1908 66.2691 29.5086L65.8518 39.393H68.1215L68.5366 29.5587C68.5509 29.2213 68.2812 28.9399 67.9434 28.9399Z" fill="#2F6858"/>
<path fill-rule="evenodd" clip-rule="evenodd" d="M47.2926 115.774C47.4034 115.825 47.452 115.956 47.4013 116.067C47.1428 116.631 46.7631 117.264 46.279 117.956C45.941 118.438 45.5565 118.943 45.1341 119.464C44.5597 120.171 43.9448 120.872 43.3299 121.535C43.1147 121.767 42.9148 121.978 42.7354 122.164C42.6725 122.229 42.6166 122.286 42.5684 122.335C42.5393 122.365 42.5191 122.385 42.5085 122.396C42.4224 122.482 42.2827 122.482 42.1965 122.396C42.1102 122.31 42.1101 122.17 42.1962 122.084C42.206 122.074 42.2254 122.055 42.2537 122.026C42.301 121.978 42.3561 121.921 42.4181 121.857C42.5955 121.674 42.7933 121.465 43.0063 121.235C43.6151 120.579 44.2238 119.885 44.7914 119.186C45.2076 118.673 45.5859 118.176 45.9175 117.703C46.3875 117.031 46.7542 116.419 47.0001 115.883C47.0509 115.772 47.1818 115.723 47.2926 115.774ZM42.9152 115.35C43.0207 115.411 43.0567 115.546 42.9957 115.651C42.9878 115.665 42.9726 115.691 42.9504 115.729C42.9137 115.791 42.8708 115.864 42.822 115.946C42.683 116.179 42.5253 116.439 42.3519 116.718C41.8566 117.518 41.3349 118.317 40.8108 119.064C40.4647 119.557 40.1287 120.011 39.8065 120.417C39.0627 121.355 38.4164 122.012 37.8818 122.331C37.7771 122.393 37.6417 122.359 37.5793 122.254C37.5169 122.149 37.5512 122.014 37.6559 121.951C38.1321 121.668 38.748 121.042 39.4607 120.143C39.7772 119.744 40.1081 119.297 40.4496 118.81C40.9683 118.071 41.4856 117.279 41.9768 116.486C42.1488 116.208 42.3052 115.951 42.443 115.72C42.4912 115.639 42.5336 115.567 42.5698 115.505C42.5915 115.468 42.6062 115.443 42.6137 115.43C42.6747 115.325 42.8097 115.289 42.9152 115.35ZM39.163 113.663C39.2708 113.72 39.312 113.854 39.2551 113.961C39.2472 113.976 39.2319 114.005 39.2096 114.047C39.1726 114.116 39.1294 114.197 39.0805 114.287C38.9408 114.546 38.7831 114.834 38.6106 115.144C38.1176 116.031 37.6049 116.918 37.0983 117.746C36.8697 118.119 36.647 118.473 36.4317 118.804C35.5548 120.152 34.8405 121.062 34.3181 121.428C34.2183 121.498 34.0807 121.474 34.0107 121.374C33.9408 121.274 33.9649 121.137 34.0647 121.067C34.524 120.744 35.2167 119.862 36.0618 118.563C36.2748 118.236 36.4953 117.886 36.7218 117.515C37.2249 116.693 37.7347 115.812 38.2249 114.93C38.3965 114.621 38.5533 114.335 38.6922 114.078C38.7407 113.988 38.7836 113.908 38.8203 113.839L38.8432 113.796C38.853 113.778 38.8603 113.764 38.8649 113.755C38.9218 113.648 39.0553 113.606 39.163 113.663ZM39.8037 80.4624C40.4594 80.5885 41.0352 80.7319 41.5366 80.8896C42.24 81.1109 42.7673 81.35 43.1442 81.5921C43.3817 81.7447 43.5191 81.8705 43.5813 81.9539C43.6541 82.0517 43.634 82.1899 43.5362 82.2627C43.4385 82.3355 43.3003 82.3153 43.2275 82.2176C43.1978 82.1779 43.0997 82.0881 42.9057 81.9634C42.5634 81.7435 42.0717 81.5206 41.4041 81.3106C40.9194 81.1581 40.3599 81.0188 39.7203 80.8958C39.6006 80.8727 39.5223 80.7571 39.5453 80.6374C39.5683 80.5177 39.684 80.4394 39.8037 80.4624ZM76.4077 54.4733C76.5294 54.4672 76.633 54.5609 76.6391 54.6827L76.6395 54.6906C76.6399 54.6986 76.6404 54.7096 76.6427 54.7537C76.6457 54.8119 76.6493 54.8793 76.6534 54.9553C76.6651 55.1725 76.6787 55.4145 76.6941 55.6752C76.738 56.4199 76.7873 57.1645 76.8407 57.8592C76.8731 58.2806 76.9061 58.6707 76.9395 59.0232C76.9624 59.0416 76.9894 59.0633 77.0203 59.0881C77.1455 59.1889 77.2906 59.3061 77.4541 59.4388C77.9212 59.8177 78.4415 60.2441 79.0018 60.7083C80.6029 62.0349 82.204 63.3999 83.6987 64.728C84.1462 65.1256 84.5782 65.5147 84.993 65.8941C86.7423 67.4941 88.142 68.8807 89.105 69.9931C89.1847 70.0853 89.1747 70.2246 89.0826 70.3044C88.9904 70.3841 88.8511 70.3741 88.7713 70.282C87.8217 69.185 86.4329 67.8092 84.6951 66.2197C84.282 65.8418 83.8515 65.4541 83.4056 65.0579C81.9151 63.7336 80.3177 62.3717 78.7203 61.0482C78.1611 60.5849 77.6419 60.1595 77.1761 59.7815C77.0131 59.6492 76.8684 59.5323 76.7437 59.432C76.6689 59.3718 76.6175 59.3306 76.591 59.3095C76.5444 59.2723 76.5148 59.2177 76.5091 59.1583C76.4723 58.7788 76.4362 58.3544 76.4007 57.8931C76.3471 57.1954 76.2976 56.4483 76.2535 55.7012C76.2381 55.4397 76.2245 55.197 76.2127 54.9791C76.2086 54.9028 76.205 54.835 76.202 54.7766C76.1989 54.7173 76.1989 54.7173 76.1983 54.7047C76.1922 54.583 76.2859 54.4794 76.4077 54.4733ZM58.0107 64.5826C58.0238 64.5875 58.0519 64.5974 58.0942 64.6117C58.1661 64.6358 58.2514 64.6629 58.3495 64.6921C58.6314 64.7761 58.9587 64.8602 59.3276 64.9389C60.3241 65.1513 61.4298 65.2841 62.6174 65.2981C62.7393 65.2995 62.8369 65.3994 62.8355 65.5213C62.834 65.6432 62.7341 65.7408 62.6122 65.7393C61.394 65.725 60.2595 65.5888 59.2356 65.3705C58.855 65.2893 58.5163 65.2023 58.2235 65.115C58.1204 65.0843 58.0303 65.0557 57.9536 65.03C57.9068 65.0142 57.8744 65.0028 57.8569 64.9963C57.7426 64.9538 57.6845 64.8268 57.7269 64.7125C57.7694 64.5983 57.8964 64.5401 58.0107 64.5826ZM56.5376 60.4041C56.5587 60.4181 56.6127 60.4481 56.702 60.4891C56.858 60.5606 57.0546 60.633 57.2946 60.7011C58.5059 61.0449 60.2435 61.1428 62.5865 60.8394C62.7073 60.8237 62.818 60.909 62.8337 61.0299C62.8493 61.1507 62.764 61.2614 62.6432 61.277C60.2432 61.5878 58.4457 61.4865 57.1741 61.1256C56.7224 60.9974 56.4355 60.8659 56.2938 60.7719C56.1922 60.7046 56.1644 60.5677 56.2317 60.4661C56.2991 60.3645 56.436 60.3367 56.5376 60.4041ZM55.8292 55.62C55.8476 55.6296 55.8872 55.649 55.9478 55.6769C56.0507 55.7242 56.1742 55.7772 56.3178 55.8345C56.7309 55.9992 57.2219 56.1643 57.7889 56.3187C59.0163 56.6528 60.4205 56.8886 61.994 56.9826C62.1157 56.9899 62.2084 57.0944 62.2011 57.216C62.1939 57.3377 62.0893 57.4304 61.9677 57.4231C60.3633 57.3273 58.9291 57.0864 57.673 56.7445C57.0896 56.5857 56.5827 56.4153 56.1544 56.2445C56.0036 56.1843 55.8732 56.1283 55.7634 56.0778C55.6963 56.0469 55.6503 56.0244 55.6257 56.0116C55.5175 55.9554 55.4754 55.8222 55.5316 55.7141C55.5878 55.6059 55.721 55.5638 55.8292 55.62ZM57.4258 51.202C57.4304 51.262 57.483 51.4005 57.6373 51.5972C57.9166 51.9533 58.4092 52.318 59.1706 52.6643C60.6151 53.3211 62.8216 53.8173 65.9283 54.0817C66.0497 54.092 66.1398 54.1988 66.1295 54.3203C66.1191 54.4417 66.0123 54.5317 65.8909 54.5214C62.7378 54.2531 60.4838 53.7462 58.988 53.066C58.1655 52.692 57.616 52.2852 57.2901 51.8696C57.0812 51.6033 56.997 51.3817 56.9857 51.2359C56.9764 51.1144 57.0673 51.0083 57.1888 50.999C57.3103 50.9896 57.4164 51.0805 57.4258 51.202Z" fill="#D7A17C"/>
</svg>