<svg xmlns:xlink="http://www.w3.org/1999/xlink" viewBox="0 0 24 24" xmlns="http://www.w3.org/2000/svg" class="block overflow-hidden pointer-events-none w-full h-full" width="24"  height="24" ><path d="M9.78602 5.3418C9.52517 5.3418 9.26403 5.44122 9.06523 5.63672L3.29895 11.293C2.90035 11.684 2.90035 12.317 3.29895 12.707L9.06523 18.3633C9.46384 18.7543 10.1092 18.7543 10.5068 18.3633L10.5944 18.2773C10.993 17.8863 10.993 17.2533 10.5944 16.8633L6.65598 13H19.9805C20.5433 13 21 12.552 21 12C21 11.448 20.5433 11 19.9805 11H6.65598L10.5944 7.13672C10.993 6.74572 10.993 6.11266 10.5944 5.72266L10.5068 5.63672C10.3075 5.44122 10.0469 5.3418 9.78602 5.3418Z" fill="currentColor"></path></svg>