<svg xmlns:xlink="http://www.w3.org/1999/xlink" viewBox="0 0 24 24" fill="none" xmlns="http://www.w3.org/2000/svg" class="block overflow-hidden pointer-events-none w-full h-full" width="24"  height="24" ><path d="M6.36363 3.59588L12 3L17.6363 3.59588L22 9.45366L12 21.0985L2 9.45366L6.36363 3.59588Z" fill="#FDB300"></path><path d="M6.05049 9.45364L12 21.0985L2 9.45364H6.05049Z" fill="#EA6C00"></path><path d="M17.9495 9.45364L12 21.0985L22 9.45364H17.9495Z" fill="#EA6C00"></path><path d="M6.05049 9.45364H17.9495L12 21.0985L6.05049 9.45364Z" fill="#FDAD00"></path><path d="M12 3L6.36361 3.59587L6.05049 9.45366L12 3Z" fill="#FDD231"></path><path d="M11.9999 3L17.6363 3.59587L17.9494 9.45366L11.9999 3Z" fill="#FDD231"></path><path d="M22 9.45363L17.6363 3.59584L17.9495 9.45363H22Z" fill="#FDAD00"></path><path d="M2 9.45363L6.36361 3.59584L6.05049 9.45363H2Z" fill="#FDAD00"></path><path d="M12 3L6.05049 9.45366H17.9495L12 3Z" fill="#FEEEB7"></path></svg>