<svg xmlns:xlink="http://www.w3.org/1999/xlink" fill="none" viewBox="0 0 24 24" xmlns="http://www.w3.org/2000/svg" class="block overflow-hidden pointer-events-none w-full h-full" width="24"  height="24" ><path d="m21 5c-.702.4051-2.1105.95719-2.9385 1.11643-.0243.00612-.0441.014-.0675.02012-.7317-.7017-1.7343-1.13655-2.844-1.13655-2.2365 0-4.05 1.76301-4.05 3.93725 0 .11462-.0099.32548 0 .43748-3.0177 0-5.3145-1.53641-6.9615-3.49978-.1791.43747-.2574 1.12867-.2574 1.77788 0 1.2258.9855 2.42977 2.52 3.17607-.2826.0709-.594.1216-.918.1216-.5229 0-1.0764-.1339-1.5831-.5398v.0446c0 1.7131 1.8702 2.8794 3.5334 3.204-.3375.1934-1.0179.2126-1.35.2126-.234 0-1.062-.1041-1.2834-.1443.4626 1.4043 2.1312 2.1935 3.7215 2.2215-1.2438.9484-2.1069 1.3001-4.6539 1.3001h-.8676c1.6092 1.0027 3.6585 1.7508 5.7123 1.7508 6.687 0 10.4877-4.9548 10.4877-9.62527 0-.07525-.0018-.23274-.0045-.3911 0-.01575.0045-.03063.0045-.04638 0-.02362-.0072-.04637-.0072-.06999-.0027-.11899-.0054-.23011-.0081-.28786.711-.49872 1.3275-1.1208 1.8153-1.82951-.6525.28173-1.3527.47072-2.088.55647.7506-.43748 1.8171-1.48041 2.088-2.30636z" fill="currentColor"></path></svg>