<svg xmlns:xlink="http://www.w3.org/1999/xlink" xmlns="http://www.w3.org/2000/svg" width="189" height="141" viewBox="0 0 189 141" fill="none">
<path fill-rule="evenodd" clip-rule="evenodd" d="M153.543 138.168V138.113H151.769C151.769 138.132 151.769 138.15 151.77 138.168H153.543ZM31.2761 118.344C31.3685 118.384 31.4602 118.425 31.5514 118.466C31.8871 117.772 32.4637 117.195 32.6786 116.444C32.576 116.392 32.4733 116.341 32.3707 116.289C32.006 116.974 31.6414 117.659 31.2761 118.344ZM4.12357 128.618C4.01369 128.778 3.98833 128.816 3.96297 128.854C4.00463 128.875 4.0487 128.919 4.08916 128.916C5.73377 128.823 7.37719 128.726 9.23674 128.618H4.12357ZM122.408 85.7428C122.258 85.7676 122.11 85.7923 121.961 85.8171C121.927 86.2711 121.853 86.7263 121.865 87.1785C121.955 90.4533 122.062 93.7274 122.164 97.001C122.169 97.1459 122.132 97.3173 122.196 97.4284C122.348 97.6911 122.509 98.0744 122.74 98.1378C123.202 98.2652 123.601 97.9959 123.707 97.5039C123.786 97.1332 123.802 96.7341 123.767 96.3556C123.465 93.1442 123.153 89.9328 122.814 86.7251C122.779 86.387 122.548 86.07 122.408 85.7428ZM157.207 137.937C157.213 138.085 157.218 138.233 157.223 138.382C157.876 138.41 158.529 138.476 159.18 138.461C162.259 138.392 165.337 138.261 168.417 138.229C170.968 138.203 173.521 138.271 176.072 138.319C179.105 138.377 182.135 138.466 185.168 138.518C185.5 138.523 185.834 138.372 186.335 138.254C186.047 138.002 185.95 137.842 185.843 137.834C176.558 137.189 167.272 137.425 157.985 137.797C157.725 137.807 157.467 137.889 157.207 137.937ZM49.603 120.399C48.5905 120.399 47.7766 120.4 46.9634 120.398C46.2358 120.397 45.9491 120.783 45.9255 121.485C45.8694 123.12 45.7631 124.755 45.7051 126.39C45.6025 129.278 45.5138 132.166 45.4371 135.054C45.4286 135.369 45.5337 135.687 45.6097 136.151C46.7243 136.151 47.7742 136.16 48.8241 136.147C49.3464 136.142 49.6005 135.834 49.6416 135.327C49.7189 134.366 49.8626 133.407 49.868 132.446C49.8873 129.121 49.8722 125.795 49.839 122.47C49.833 121.805 49.6911 121.143 49.603 120.399ZM126.599 98.7041C126.581 98.7929 126.563 98.8829 126.544 98.9716C129.225 100.34 131.934 101.656 134.577 103.092C137.213 104.524 139.785 106.077 142.476 107.629C142.639 106.836 142.558 106.244 141.906 106.034C140.587 105.609 140.331 104.634 140.329 103.435C140.327 101.797 140.297 100.159 140.25 98.5218C140.216 97.3276 140.027 97.167 138.877 97.2793C136.051 97.5546 133.224 97.8209 130.401 98.1318C129.129 98.2719 127.866 98.5097 126.599 98.7041ZM159.395 104.571C158.796 104.64 158.514 104.664 158.235 104.705C156 105.034 153.771 105.421 151.526 105.68C149.474 105.917 147.406 106.016 145.345 106.173C144.868 106.209 144.266 106.153 144.218 106.798C144.137 107.884 144.035 108.924 145.168 109.747C147.632 111.538 149.811 113.654 151.452 116.254C151.92 116.995 152.476 117.166 153.28 116.913C154.749 116.452 156.224 116.006 157.712 115.613C158.551 115.391 158.854 114.912 158.896 114.067C159.026 111.521 159.231 108.98 159.39 106.436C159.425 105.877 159.395 105.312 159.395 104.571ZM65.7901 120.466C65.0041 120.423 64.439 120.369 63.8738 120.367C60.5448 120.358 57.2157 120.371 53.8866 120.356C51.3961 120.345 51.4209 120.331 51.3997 122.765C51.3653 126.814 51.3037 130.863 51.2349 134.911C51.2162 136.037 51.3532 136.23 52.5638 136.256C55.8898 136.327 59.2159 136.389 62.542 136.43C63.9626 136.448 64.0049 136.425 64.1739 135.046C64.5597 131.889 64.905 128.726 65.257 125.565C65.4369 123.946 65.5969 122.325 65.7901 120.466ZM156.303 93.114C155.122 92.625 153.978 92.9184 152.857 92.9758C150.258 93.111 147.66 93.2885 145.062 93.4418C144.774 93.4588 144.445 93.5119 144.203 93.4002C143.894 93.2571 143.486 93.0035 143.421 92.727C143.297 92.1975 143.762 91.9886 144.223 91.927C144.604 91.8763 144.993 91.8848 145.379 91.8612C148.651 91.6596 151.924 91.4591 155.196 91.2496C155.482 91.2315 155.799 91.2122 156.039 91.0788C156.302 90.9327 156.65 90.667 156.669 90.4303C156.69 90.1701 156.441 89.7741 156.197 89.634C155.889 89.4577 155.465 89.4166 155.095 89.4329C154.52 89.4595 153.952 89.6183 153.376 89.6606C150.298 89.887 147.219 90.0959 144.14 90.3072C143.9 90.3235 143.618 90.3935 143.428 90.2969C143.166 90.1623 142.875 89.9262 142.789 89.669C142.741 89.5253 143.048 89.116 143.257 89.0616C143.951 88.8793 144.67 88.7471 145.386 88.6982C147.359 88.5629 149.344 88.5521 151.31 88.354C153.128 88.1705 154.932 87.8245 156.736 87.5118C157.174 87.4357 157.584 87.2051 158.008 87.0457C157.717 86.6829 157.472 86.5313 157.222 86.5253C156.451 86.506 155.677 86.5186 154.907 86.5597C151.68 86.7336 148.453 86.9213 145.228 87.1025C144.938 87.1182 144.615 87.2021 144.368 87.1043C144.054 86.9799 143.802 86.7016 143.523 86.4897C143.762 86.2246 143.954 85.8684 144.25 85.7199C144.577 85.5557 144.998 85.5508 145.38 85.5315C147.885 85.4053 150.391 85.3111 152.895 85.1711C154.147 85.101 155.395 84.9567 156.645 84.8462C156.509 84.5902 156.382 84.4967 156.257 84.4979C154.088 84.5275 151.918 84.5685 149.748 84.6084C147.289 84.6536 144.828 84.7249 142.369 84.7225C142.007 84.7219 141.435 84.4466 141.339 84.1688C141.241 83.8808 141.559 83.4045 141.781 83.0676C141.931 82.8412 142.217 82.6915 142.465 82.5453C143.462 81.9573 144.472 81.391 145.469 80.8041C146.156 80.4008 146.83 79.977 147.509 79.5622C147.471 79.4547 147.433 79.3473 147.395 79.2398C146.899 79.3086 146.395 79.3406 145.908 79.4517C142.986 80.1171 140.355 81.4061 138.098 83.3658C136.13 85.0757 133.93 86.07 131.317 86.2584C129.491 86.39 127.672 86.6509 125.864 86.9376C124.548 87.1459 124.397 87.4007 124.535 88.6656C124.728 90.4388 124.952 92.2096 125.149 93.9822C125.263 95.0122 125.351 96.044 125.459 97.1664C126.191 97.0825 126.76 97.0197 127.328 96.9515C129.435 96.7009 131.538 96.4183 133.648 96.2058C136.094 95.9601 138.548 95.7971 140.994 95.5586C143.536 95.3099 146.073 95.0044 148.613 94.7387C150.627 94.5286 152.645 94.3571 154.658 94.1338C155.301 94.0619 156.001 93.9919 156.303 93.114ZM185.294 136.142C185.342 136.046 185.39 135.951 185.438 135.855C184.667 135.068 183.697 134.546 182.655 134.229C180.028 133.431 177.394 132.642 174.73 131.983C171.782 131.254 168.821 130.605 165.968 129.516C163.409 128.539 162.06 126.746 162.018 124.048C161.986 122.029 162.133 120.008 162.191 117.987C162.208 117.395 162.194 116.802 162.194 116.197C160.35 116.36 154.17 118.19 152.975 118.906C153.178 119.712 153.381 120.547 153.597 121.379C154.88 126.329 152.426 132.036 147.594 134.406C146.686 134.852 145.768 135.282 144.864 135.738C144.604 135.869 144.377 136.067 144.029 136.306C144.348 136.414 144.477 136.481 144.614 136.5C147.646 136.931 150.678 136.462 153.71 136.503C154.442 136.512 154.706 136.126 154.812 135.449C154.853 135.188 155.176 134.821 155.415 134.783C155.637 134.748 156.084 135.042 156.145 135.267C156.396 136.209 157.067 136.257 157.832 136.224C159.999 136.127 162.167 135.956 164.334 135.963C170.65 135.984 176.966 136.078 183.281 136.142C183.952 136.148 184.623 136.142 185.294 136.142ZM1.99595 130.51C2.21753 131.025 2.29239 131.244 2.40227 131.444C3.18715 132.883 4.58665 133.53 5.93422 134.305C8.5545 135.811 11.3191 136.564 14.3469 136.522C23.6525 136.396 32.9587 136.325 42.2644 136.224C43.6946 136.209 43.8033 136.18 43.8661 134.803C44.0714 130.329 44.1976 125.85 44.3558 121.373C44.3847 120.571 43.9971 120.158 43.2237 119.95C41.9226 119.599 40.627 119.212 39.3603 118.752C38.0472 118.275 36.7612 117.718 35.4848 117.149C34.7712 116.83 34.3087 116.987 33.932 117.657C33.4357 118.54 32.8941 119.396 32.3695 120.262C31.7289 121.32 31.7277 121.319 32.5023 122.363C33.0722 123.132 33.0638 123.633 32.265 124.183C31.8273 124.484 31.2181 124.551 30.6754 124.682C29.9901 124.847 29.1165 124.749 28.6329 125.144C26.152 127.164 23.2257 128.103 20.1997 128.747C14.7629 129.905 9.22889 130.257 3.68887 130.508C3.21673 130.529 2.74219 130.51 1.99595 130.51ZM158.121 88.8183C158.162 89.7306 158.232 90.44 158.215 91.147C158.202 91.8027 158.038 92.4571 158.045 93.1104C158.054 93.9707 157.723 94.6596 157.019 95.0581C156.45 95.3805 155.776 95.5912 155.126 95.68C153.742 95.8677 152.342 95.9287 150.951 96.0682C148.314 96.3308 145.676 96.591 143.043 96.8965C141.897 97.0293 141.835 97.1024 141.857 98.2628C141.889 99.9485 141.975 101.635 142.083 103.318C142.159 104.491 142.269 104.611 143.517 104.592C145.395 104.562 147.272 104.471 149.149 104.364C154.378 104.067 159.459 102.959 164.473 101.509C165.711 101.151 165.793 101.073 165.739 99.806C165.66 97.88 165.552 95.9535 165.408 94.0311C165.068 89.4643 164.702 84.9 164.344 80.335C164.031 76.3466 163.777 72.3516 163.386 68.3705C162.779 62.1826 162.125 55.9972 161.395 49.822C161.027 46.7121 160.53 43.6094 159.446 40.6408C158.61 38.3519 157.251 36.4779 155.185 35.1358C153.595 34.1033 151.904 33.8256 150.065 34.2748C148.303 34.7053 146.66 35.4298 145.26 36.5509C143.192 38.2082 141.172 39.9344 139.24 41.7474C135.546 45.2142 131.964 48.798 128.274 52.2684C122.716 57.4951 117.453 63.0055 112.329 68.65C111.239 69.8521 110.401 71.2824 109.434 72.5985C109.18 72.9445 108.902 73.2796 108.597 73.5802C107.117 75.0353 105.637 76.4891 104.129 77.9146C103.592 78.4223 103.273 78.9373 103.55 79.6938C103.631 79.9154 103.628 80.169 103.652 80.4087C103.801 81.9078 103.837 81.9422 105.388 82.0448C108.061 82.2229 110.694 81.935 113.273 81.2509C114.984 80.7969 116.712 80.7166 118.441 80.8923C119.277 80.9768 120.08 81.3807 120.899 81.6409C121.425 83.2252 122.9 83.8881 124.013 84.9139C124.405 85.2755 124.696 85.5194 125.233 85.4464C127.478 85.1409 129.723 84.8372 131.972 84.5631C133.698 84.3518 135.22 83.7275 136.544 82.581C137.271 81.9506 138.05 81.3692 138.853 80.8397C139.505 80.4105 139.705 79.9021 139.612 79.1335C139.468 77.9387 139.436 76.73 139.365 75.5267C139.338 75.0673 139.406 74.6151 139.946 74.5082C140.58 74.3826 140.82 74.856 140.911 75.3438C141.054 76.1003 141.117 76.8719 141.205 77.6374C141.263 78.1361 141.304 78.6361 141.364 79.2458C142.29 78.9283 143 78.621 143.741 78.4435C145.285 78.074 146.841 77.7485 148.403 77.4575C148.976 77.3507 149.605 77.3905 149.953 77.9731C150.343 78.6264 150.002 79.2084 149.576 79.6799C149.128 80.1774 148.63 80.6532 148.078 81.0275C147.056 81.72 145.98 82.331 144.8 83.0531C146.277 83.0531 147.602 83.0706 148.927 83.0489C151.097 83.0126 153.267 82.9003 155.435 82.9269C156.185 82.9366 156.947 83.2179 157.671 83.4679C158.002 83.5826 158.458 83.8845 158.508 84.164C158.662 85.0274 159.24 85.6003 159.672 86.2826C160.192 87.0982 160.033 87.6929 159.203 88.2399C158.848 88.4736 158.45 88.6444 158.121 88.8183ZM92.738 106.578C92.7332 106.651 92.7277 106.724 92.7229 106.797C93.1673 106.924 93.6068 107.07 94.0566 107.172C104.312 109.502 114.568 111.824 124.824 114.152C125.105 114.215 125.438 114.245 125.639 114.417C125.896 114.638 126.043 114.987 126.238 115.28C125.941 115.465 125.665 115.725 125.342 115.812C125.089 115.88 124.775 115.747 124.494 115.683C117.203 114.024 109.916 112.348 102.622 110.704C95.0467 108.998 87.4998 107.087 79.7471 106.385C76.4445 106.086 73.0967 106.231 69.7707 106.272C68.4714 106.287 68.341 106.592 68.2722 107.875C68.1086 110.908 67.995 113.946 67.7101 116.968C67.1432 122.968 66.4814 128.959 65.8421 134.953C65.6839 136.444 65.8022 136.653 67.2881 136.724C71.5753 136.929 75.8649 137.269 80.1534 137.27C95.3082 137.271 110.465 137.699 125.615 137.083C128.649 136.961 131.681 136.744 134.702 136.445C138.562 136.062 142.317 135.211 145.852 133.537C149.872 131.634 152.524 128.346 152.238 123.331C152.086 120.67 151.141 118.36 149.621 116.243C147.708 113.578 145.208 111.536 142.549 109.671C137.072 105.83 131.079 102.914 125.094 99.992C123.547 99.2373 122.075 99.7505 121.193 101.23C120.616 102.2 119.905 103.069 118.882 103.566C117.758 104.111 116.61 104.639 115.419 105.001C113.095 105.708 110.685 105.847 108.263 105.891C104.212 105.965 100.162 106.074 96.1136 106.213C94.9858 106.252 93.8628 106.452 92.738 106.578ZM139.77 38.8325C139.615 38.6858 139.557 38.5892 139.475 38.5596C134.812 36.8444 130.142 35.143 125.483 33.4157C124.719 33.1325 124.29 33.3686 123.76 33.9621C122.772 35.0681 121.694 36.1132 120.542 37.046C119.391 37.9788 117.976 38.4775 116.488 38.3302C112.738 37.9577 109.322 36.755 106.726 33.857C106.029 33.0788 105.282 32.7703 104.294 33.1361C101.857 34.0387 99.4088 34.9142 96.9872 35.8578C93.8018 37.0986 91.4822 39.3427 89.7452 42.2461C88.3403 44.5947 87.5542 47.1848 86.8448 49.7882C85.9361 53.1197 84.7461 56.3268 82.7978 59.1832C80.1111 63.1221 78.2081 67.4443 76.4216 71.8233C74.1654 77.3513 73.3539 83.0555 74.5512 88.9753C75.0921 91.6517 75.1634 94.333 74.5186 97.0173C74.364 97.6621 74.3332 98.363 74.3888 99.0272C74.5192 100.588 75.1471 101.954 76.4995 102.807C77.5126 103.445 78.5927 104.079 79.7326 104.401C83.0442 105.337 86.4234 105.804 89.8847 105.338C94.1864 104.758 98.496 104.248 102.851 104.306C104.733 104.331 106.619 104.366 108.498 104.288C111.342 104.169 114.185 104.009 116.866 102.868C119.363 101.807 120.66 99.9479 120.604 97.2461C120.521 93.1955 120.389 89.1462 120.269 85.0962C120.258 84.7122 120.204 84.3264 120.132 83.9485C119.904 82.7597 119.77 82.6812 118.559 82.418C117.003 82.0811 115.485 82.2833 113.976 82.6444C111.148 83.3218 108.301 83.7987 105.378 83.6031C104.672 83.556 103.967 83.4866 103.233 83.425C103.147 83.6967 103.066 83.8706 103.041 84.0529C102.97 84.5595 102.704 84.9519 102.197 84.7599C101.866 84.6349 101.511 84.222 101.43 83.8772C101.34 83.4926 101.48 83.0102 101.641 82.6202C102.128 81.4459 102.071 80.2927 101.782 79.0774C101.585 78.246 101.482 77.347 101.572 76.5036C101.755 74.7805 102.042 73.0634 102.394 71.3663C102.582 70.4607 102.589 69.7428 101.957 68.9555C101.542 68.4387 101.407 67.6466 101.31 66.9553C101.278 66.7216 101.717 66.2422 101.994 66.197C102.246 66.1559 102.649 66.4946 102.841 66.7675C103.047 67.0615 103.086 67.4733 103.218 67.9001C103.596 67.8549 103.932 67.8549 104.241 67.7673C104.684 67.6423 105.194 67.5071 105.359 68.0203C105.463 68.3439 105.324 68.909 105.079 69.1481C104.484 69.7307 104.246 70.4154 104.105 71.1918C103.907 72.2834 103.645 73.3629 103.455 74.4551C103.36 75.0003 103.363 75.5636 103.32 76.1456C103.571 76.1112 103.703 76.1329 103.746 76.0816C114.786 62.9452 127.091 51.0392 139.545 39.2781C139.641 39.1875 139.672 39.03 139.77 38.8325ZM30.4079 122.756L29.5373 121.68C28.8339 120.812 28.6498 119.899 29.2094 118.868C29.6695 118.021 30.0547 117.132 30.4972 116.275C31.3823 114.562 32.1853 114.237 34.0322 114.911C35.0731 115.292 36.0886 115.747 37.1005 116.203C39.8385 117.437 42.6387 118.481 45.6532 118.754C46.7013 118.848 47.77 118.733 48.829 118.7C49.5987 118.676 50.3679 118.59 51.1371 118.599C55.6224 118.65 60.1082 118.733 64.5947 118.776C65.8511 118.787 66.0214 118.609 66.1125 117.379C66.3885 113.678 66.8727 109.988 66.6626 106.261C66.6058 105.265 66.8117 105.023 67.9153 104.914C70.0732 104.7 72.2388 104.558 74.4009 104.387C74.7655 104.358 75.1302 104.335 75.6047 104.302C75.4357 104.085 75.3699 103.963 75.2697 103.879C73.1432 102.096 72.3294 99.7323 72.8818 97.1241C73.5194 94.1126 73.363 91.2019 72.7876 88.2315C71.6991 82.6105 72.5914 77.1695 74.649 71.9163C76.5327 67.1068 78.6386 62.3939 81.5632 58.0904C83.3177 55.5106 84.3742 52.6186 85.2303 49.6258C85.8649 47.4052 86.5936 45.1882 87.533 43.0823C89.2616 39.2056 92.0231 36.2382 95.9807 34.5308C98.0613 33.6324 100.165 32.7805 102.294 32.0029C103.188 31.6763 104.165 31.5362 105.118 31.4185C106.077 31.3007 106.908 31.6201 107.542 32.4183C109.759 35.2094 112.827 36.3457 116.225 36.8033C117.268 36.944 118.243 36.6783 119.125 36.1114C120.561 35.1901 121.815 34.0816 122.735 32.6193C123.605 31.2367 123.77 31.2071 125.31 31.7686C130.116 33.5207 134.938 35.2287 139.724 37.0297C140.967 37.497 141.895 37.3497 142.883 36.47C144.549 34.986 146.427 33.8359 148.558 33.0703C153.231 31.3913 156.809 33.7133 158.858 36.2787C160.398 38.2058 161.353 40.4445 161.794 42.8282C162.496 46.6191 163.053 50.4396 163.555 54.2626C163.976 57.4643 164.252 60.6859 164.555 63.9027C164.822 66.7349 165.037 69.5713 165.278 72.4065C165.539 75.4808 165.81 78.5545 166.064 81.6295C166.286 84.321 166.51 87.0125 166.696 89.7058C166.914 92.881 167.097 96.0585 167.286 99.2361C167.321 99.8138 167.337 100.395 167.322 100.973C167.293 102.101 167.083 102.417 165.995 102.746C164.842 103.095 163.661 103.354 162.499 103.678C161.164 104.052 161.057 104.215 160.996 105.575C160.885 108.032 160.755 110.488 160.653 112.946C160.632 113.456 160.697 113.971 160.726 114.563C161.491 114.516 162.107 114.428 162.718 114.451C163.709 114.489 163.99 114.814 163.933 115.804C163.844 117.344 163.658 118.882 163.635 120.422C163.612 121.959 163.704 123.5 163.812 125.034C163.896 126.25 164.588 127.141 165.686 127.588C167.424 128.294 169.177 129.002 170.981 129.502C174.419 130.454 177.915 131.197 181.353 132.154C182.733 132.538 184.056 133.186 185.341 133.84C187.506 134.943 187.939 137.064 188.218 139.204C188.247 139.445 187.865 139.89 187.587 139.986C187.148 140.137 186.635 140.104 186.155 140.094C181.765 140.009 177.377 139.843 172.987 139.838C168.067 139.83 163.146 139.967 158.225 140.035C157.301 140.047 156.354 140.093 155.886 139.359C154.702 139.523 153.681 139.766 152.654 139.788C149.904 139.847 147.151 139.822 144.4 139.81C142.522 139.802 142.371 139.636 142.272 137.746C142.258 137.466 142.208 137.187 142.158 136.777C140.773 137.048 139.476 137.39 138.158 137.543C134.663 137.95 131.167 138.45 127.659 138.604C111.641 139.304 95.6143 138.875 79.5913 138.816C75.0161 138.799 70.4414 138.362 65.8668 138.116C65.6742 138.106 65.4822 138.088 65.2884 138.084C60.6118 137.99 55.9345 137.829 51.2572 137.822C45.5639 137.814 39.8717 137.959 34.1783 137.998C27.3233 138.043 20.4683 138.068 13.6133 138.056C9.42511 138.049 5.79838 136.388 2.60996 133.834C1.64819 133.065 1.02995 131.787 0.451552 130.641C-0.0489576 129.652 0.33201 128.757 1.27507 128.144C2.47412 127.363 3.81083 126.968 5.24111 126.936C6.54401 126.907 7.84932 126.951 9.15101 126.9C14.7248 126.683 20.1906 125.926 25.4185 123.819C26.4612 123.399 27.6657 123.373 28.8001 123.193C29.2656 123.119 29.7438 123.119 30.2159 123.085C30.2799 122.975 30.3439 122.865 30.4079 122.756Z" fill="black"/>
<path fill-rule="evenodd" clip-rule="evenodd" d="M139.77 38.8327C139.673 39.0307 139.641 39.1877 139.545 39.2782C127.091 51.0393 114.786 62.9453 103.746 76.0817C103.703 76.1337 103.571 76.1119 103.32 76.1463C103.363 75.5637 103.359 75.001 103.455 74.4552C103.645 73.363 103.907 72.2835 104.105 71.1926C104.246 70.4161 104.484 69.7309 105.08 69.1482C105.323 68.9092 105.463 68.344 105.359 68.0204C105.194 67.5073 104.684 67.6425 104.241 67.7675C103.932 67.855 103.597 67.855 103.218 67.9003C103.086 67.4734 103.047 67.0617 102.84 66.7677C102.649 66.4948 102.247 66.1561 101.994 66.1977C101.717 66.2424 101.278 66.7218 101.31 66.9554C101.407 67.6473 101.542 68.4394 101.956 68.9556C102.589 69.7429 102.582 70.4608 102.394 71.3664C102.042 73.0636 101.755 74.7806 101.572 76.5038C101.482 77.3472 101.585 78.2468 101.782 79.0775C102.071 80.2929 102.127 81.4461 101.641 82.6204C101.479 83.0104 101.34 83.4934 101.43 83.8774C101.511 84.2227 101.866 84.6351 102.197 84.7601C102.703 84.9527 102.971 84.5596 103.041 84.0531C103.066 83.8713 103.148 83.6975 103.233 83.4252C103.967 83.4867 104.671 83.5562 105.378 83.6033C108.301 83.7995 111.148 83.3219 113.975 82.6445C115.485 82.2835 117.002 82.0812 118.559 82.4181C119.769 82.6813 119.905 82.7598 120.132 83.9492C120.205 84.3272 120.258 84.7124 120.269 85.0963C120.389 89.1463 120.521 93.1957 120.604 97.2462C120.66 99.9486 119.362 101.808 116.866 102.868C114.185 104.009 111.342 104.17 108.498 104.288C106.619 104.366 104.734 104.331 102.852 104.306C98.4962 104.249 94.1866 104.758 89.8843 105.338C86.4236 105.804 83.0444 105.337 79.7328 104.402C78.5929 104.079 77.5128 103.446 76.4991 102.807C75.1473 101.954 74.5194 100.589 74.3884 99.0273C74.3329 98.3638 74.3637 97.6622 74.5188 97.0174C75.163 94.3331 75.0918 91.6519 74.5514 88.9761C73.3536 83.0557 74.1656 77.3514 76.4212 71.8235C78.2077 67.4445 80.1114 63.1222 82.7981 59.1833C84.7458 56.3276 85.9364 53.1205 86.845 49.7884C87.5544 47.185 88.3399 44.5949 89.7454 42.2463C91.4824 39.3428 93.8014 37.0987 96.9874 35.858C99.4085 34.9143 101.857 34.0395 104.294 33.1363C105.282 32.7704 106.029 33.0795 106.726 33.8572C109.322 36.7558 112.738 37.9578 116.488 38.3304C117.976 38.4783 119.39 37.979 120.542 37.0462C121.694 36.1134 122.772 35.0683 123.76 33.9628C124.29 33.3693 124.719 33.1327 125.483 33.4158C130.142 35.1438 134.811 36.8445 139.475 38.5598C139.557 38.59 139.615 38.686 139.77 38.8327Z" fill="#FFDA2D"/>
<path fill-rule="evenodd" clip-rule="evenodd" d="M92.738 106.578C93.8628 106.452 94.9858 106.253 96.1136 106.213C100.162 106.074 104.212 105.966 108.263 105.892C110.685 105.847 113.095 105.709 115.419 105.002C116.61 104.639 117.758 104.112 118.882 103.567C119.905 103.07 120.616 102.2 121.193 101.231C122.075 99.7508 123.547 99.2376 125.094 99.9923C131.079 102.915 137.072 105.83 142.549 109.671C145.208 111.537 147.708 113.579 149.621 116.243C151.14 118.361 152.086 120.67 152.238 123.331C152.524 128.347 149.872 131.634 145.852 133.537C142.317 135.212 138.562 136.062 134.702 136.445C131.681 136.744 128.649 136.961 125.615 137.084C110.465 137.699 95.3082 137.271 80.1534 137.27C75.865 137.27 71.5753 136.929 67.2881 136.725C65.8022 136.653 65.6833 136.444 65.8421 134.953C66.4814 128.96 67.1426 122.968 67.7101 116.968C67.9951 113.946 68.1086 110.908 68.2722 107.875C68.341 106.592 68.4714 106.288 69.7707 106.272C73.0968 106.231 76.4446 106.087 79.7465 106.386C87.4999 107.088 95.0467 108.998 102.622 110.705C109.916 112.349 117.203 114.024 124.494 115.683C124.775 115.748 125.089 115.881 125.342 115.812C125.665 115.725 125.941 115.465 126.238 115.28C126.043 114.987 125.896 114.639 125.639 114.418C125.438 114.246 125.105 114.215 124.824 114.152C114.568 111.825 104.312 109.502 94.0566 107.173C93.6062 107.071 93.1673 106.924 92.7229 106.798C92.7277 106.725 92.7332 106.652 92.738 106.578Z" fill="white"/>
<path fill-rule="evenodd" clip-rule="evenodd" d="M158.121 88.8185C158.45 88.6446 158.848 88.4744 159.203 88.2401C160.034 87.6937 160.192 87.0984 159.672 86.2827C159.24 85.6005 158.662 85.0281 158.508 84.1642C158.458 83.8846 158.003 83.5828 157.671 83.4687C156.947 83.2187 156.185 82.9367 155.435 82.9271C153.267 82.9005 151.097 83.0134 148.927 83.049C147.602 83.0708 146.278 83.0533 144.8 83.0533C145.98 82.3312 147.056 81.7202 148.078 81.0283C148.63 80.654 149.128 80.1776 149.577 79.6801C150.002 79.2086 150.343 78.6266 149.953 77.9739C149.605 77.3907 148.976 77.3508 148.403 77.4577C146.842 77.7493 145.285 78.0747 143.741 78.4436C143 78.6211 142.29 78.9284 141.364 79.2466C141.305 78.6368 141.263 78.1363 141.206 77.6376C141.117 76.8721 141.054 76.1005 140.912 75.3446C140.82 74.8567 140.581 74.3828 139.946 74.5084C139.406 74.6152 139.338 75.0681 139.365 75.5269C139.436 76.7308 139.467 77.9389 139.612 79.1337C139.705 79.9023 139.505 80.4106 138.853 80.8399C138.05 81.3694 137.271 81.9508 136.545 82.5811C135.22 83.7277 133.698 84.3525 131.972 84.5632C129.723 84.8374 127.478 85.141 125.233 85.4465C124.697 85.5196 124.405 85.2757 124.013 84.914C122.9 83.8883 121.425 83.2253 120.899 81.6411C120.08 81.3815 119.277 80.9776 118.441 80.8924C116.713 80.7168 114.985 80.797 113.273 81.2511C110.694 81.9357 108.061 82.2231 105.388 82.045C103.838 81.9424 103.801 81.9086 103.652 80.4088C103.628 80.1691 103.631 79.9156 103.55 79.6946C103.274 78.9375 103.592 78.4225 104.129 77.9147C105.637 76.4899 107.117 75.0354 108.597 73.581C108.902 73.2803 109.18 72.9447 109.434 72.5987C110.401 71.2825 111.239 69.8522 112.329 68.6502C117.453 63.0057 122.716 57.4953 128.274 52.2686C131.964 48.7982 135.547 45.2143 139.24 41.7482C141.172 39.9345 143.192 38.2084 145.26 36.5517C146.66 35.4299 148.303 34.7061 150.066 34.275C151.904 33.8264 153.595 34.1035 155.185 35.1359C157.251 36.4781 158.61 38.3521 159.446 40.6409C160.53 43.6096 161.027 46.7123 161.396 49.8228C162.126 55.998 162.779 62.1828 163.386 68.3706C163.777 72.3524 164.032 76.3468 164.344 80.3352C164.702 84.9007 165.068 89.4645 165.408 94.0313C165.552 95.9536 165.66 97.8802 165.74 99.8062C165.793 101.073 165.711 101.151 164.474 101.509C159.459 102.96 154.378 104.067 149.149 104.364C147.273 104.471 145.395 104.563 143.517 104.592C142.269 104.611 142.159 104.491 142.083 103.319C141.975 101.636 141.889 99.9493 141.858 98.2636C141.835 97.1032 141.897 97.0301 143.043 96.8967C145.676 96.5912 148.314 96.331 150.951 96.0683C152.342 95.9289 153.742 95.8679 155.126 95.6801C155.776 95.592 156.45 95.3807 157.019 95.0583C157.723 94.6598 158.054 93.9709 158.045 93.1106C158.038 92.4573 158.202 91.8028 158.216 91.1472C158.232 90.4408 158.162 89.7314 158.121 88.8185Z" fill="white"/>
<path fill-rule="evenodd" clip-rule="evenodd" d="M1.99609 130.511C2.74173 130.511 3.21628 130.529 3.68901 130.508C9.22843 130.258 14.763 129.906 20.1992 128.748C23.2258 128.104 26.1522 127.164 28.633 125.144C29.1166 124.749 29.9902 124.846 30.6755 124.682C31.2177 124.552 31.8275 124.485 32.2652 124.184C33.0639 123.633 33.0724 123.132 32.5018 122.363C31.7278 121.319 31.729 121.32 32.3696 120.262C32.8943 119.396 33.4358 118.54 33.9321 117.658C34.3089 116.987 34.7713 116.83 35.485 117.149C36.7613 117.719 38.0473 118.275 39.3605 118.752C40.6265 119.212 41.9228 119.599 43.2239 119.95C43.9967 120.159 44.3849 120.571 44.3559 121.373C44.1971 125.85 44.0709 130.329 43.8663 134.803C43.8035 136.181 43.6942 136.209 42.2645 136.224C32.9589 136.326 23.6527 136.397 14.347 136.522C11.3186 136.563 8.55404 135.811 5.93376 134.305C4.58679 133.531 3.1873 132.884 2.40242 131.445C2.29254 131.244 2.21767 131.025 1.99609 130.511Z" fill="#FF61FC"/>
<path fill-rule="evenodd" clip-rule="evenodd" d="M185.293 136.142C184.623 136.142 183.951 136.148 183.281 136.142C176.965 136.078 170.649 135.984 164.334 135.963C162.167 135.956 159.999 136.128 157.832 136.224C157.067 136.258 156.395 136.209 156.144 135.268C156.084 135.042 155.637 134.748 155.414 134.783C155.175 134.821 154.853 135.188 154.812 135.45C154.706 136.127 154.442 136.512 153.71 136.503C150.678 136.462 147.646 136.931 144.613 136.501C144.477 136.482 144.348 136.414 144.029 136.306C144.377 136.067 144.604 135.869 144.864 135.738C145.768 135.282 146.685 134.852 147.595 134.406C152.426 132.036 154.879 126.329 153.597 121.379C153.382 120.547 153.177 119.712 152.975 118.906C154.169 118.19 160.35 116.36 162.193 116.197C162.193 116.802 162.208 117.395 162.191 117.988C162.133 120.008 161.986 122.03 162.018 124.048C162.06 126.746 163.409 128.539 165.968 129.516C168.821 130.605 171.781 131.254 174.73 131.983C177.394 132.642 180.027 133.432 182.654 134.23C183.696 134.546 184.667 135.069 185.438 135.855C185.39 135.951 185.342 136.047 185.293 136.142Z" fill="#FF61FC"/>
<path fill-rule="evenodd" clip-rule="evenodd" d="M156.303 93.1141C156.001 93.9919 155.301 94.062 154.657 94.1338C152.645 94.3572 150.627 94.5287 148.614 94.7388C146.073 95.0044 143.536 95.3099 140.994 95.5587C138.548 95.7972 136.094 95.9602 133.649 96.2059C131.538 96.4184 129.435 96.701 127.328 96.9515C126.76 97.0198 126.191 97.0825 125.459 97.1665C125.351 96.0447 125.263 95.0123 125.148 93.9823C124.951 92.2097 124.728 90.4389 124.535 88.6656C124.397 87.4008 124.548 87.146 125.864 86.9383C127.673 86.6509 129.492 86.3901 131.316 86.2591C133.929 86.0701 136.131 85.0757 138.099 83.3659C140.355 81.4061 142.986 80.1171 145.908 79.4518C146.395 79.3413 146.899 79.3087 147.395 79.2405C147.433 79.3473 147.471 79.4548 147.509 79.5623C146.83 79.9771 146.155 80.4009 145.469 80.8042C144.471 81.391 143.462 81.9574 142.466 82.5454C142.218 82.6915 141.931 82.8413 141.781 83.0677C141.559 83.4046 141.241 83.8809 141.34 84.1689C141.435 84.4472 142.006 84.7219 142.369 84.7225C144.829 84.725 147.288 84.6537 149.748 84.6084C151.917 84.5686 154.088 84.5275 156.258 84.4979C156.383 84.4967 156.509 84.5903 156.645 84.8463C155.395 84.9568 154.148 85.1017 152.895 85.1711C150.391 85.3112 147.886 85.4054 145.381 85.5316C144.998 85.5509 144.577 85.5557 144.25 85.7199C143.955 85.8685 143.762 86.2247 143.523 86.4897C143.802 86.7016 144.054 86.98 144.368 87.1043C144.616 87.2022 144.939 87.1182 145.227 87.1025C148.454 86.9214 151.68 86.7336 154.907 86.5604C155.677 86.5187 156.451 86.506 157.222 86.5253C157.472 86.5314 157.717 86.6829 158.007 87.0458C157.584 87.2052 157.174 87.4358 156.737 87.5119C154.932 87.8246 153.129 88.1706 151.309 88.3541C149.344 88.5521 147.36 88.563 145.387 88.6982C144.67 88.7472 143.952 88.8794 143.257 89.0617C143.048 89.116 142.742 89.5254 142.789 89.6691C142.876 89.9263 143.166 90.1623 143.428 90.297C143.618 90.3936 143.901 90.3235 144.14 90.3072C147.219 90.0959 150.298 89.887 153.376 89.6606C153.951 89.6184 154.52 89.4596 155.096 89.433C155.464 89.4167 155.889 89.4578 156.197 89.6341C156.441 89.7741 156.691 90.1702 156.669 90.4304C156.65 90.6671 156.302 90.9327 156.039 91.0788C155.8 91.2123 155.483 91.2316 155.196 91.2497C151.924 91.4592 148.651 91.6596 145.379 91.8613C144.994 91.8848 144.605 91.8764 144.223 91.9271C143.762 91.9887 143.297 92.1976 143.421 92.7271C143.486 93.0036 143.894 93.2572 144.203 93.4003C144.445 93.512 144.773 93.4588 145.062 93.4419C147.66 93.2886 150.258 93.1111 152.857 92.9758C153.977 92.9185 155.122 92.625 156.303 93.1141Z" fill="white"/>
<path fill-rule="evenodd" clip-rule="evenodd" d="M65.7905 120.466C65.5973 122.325 65.4373 123.946 65.2574 125.565C64.9054 128.726 64.5601 131.889 64.1737 135.046C64.0052 136.426 63.9629 136.448 62.5423 136.43C59.2156 136.389 55.8902 136.327 52.5641 136.256C51.3536 136.23 51.2159 136.037 51.2353 134.912C51.3041 130.864 51.3651 126.814 51.4001 122.766C51.4206 120.331 51.3959 120.345 53.8863 120.356C57.216 120.372 60.5451 120.358 63.8742 120.367C64.4393 120.369 65.0038 120.424 65.7905 120.466Z" fill="white"/>
<path fill-rule="evenodd" clip-rule="evenodd" d="M159.395 104.572C159.395 105.313 159.426 105.877 159.39 106.437C159.231 108.981 159.027 111.522 158.897 114.068C158.854 114.913 158.551 115.392 157.712 115.613C156.224 116.006 154.749 116.453 153.28 116.914C152.476 117.166 151.919 116.995 151.452 116.255C149.812 113.654 147.633 111.538 145.168 109.748C144.035 108.925 144.137 107.885 144.218 106.798C144.266 106.153 144.868 106.21 145.345 106.174C147.406 106.017 149.474 105.918 151.527 105.681C153.771 105.422 156 105.035 158.236 104.706C158.515 104.665 158.796 104.64 159.395 104.572Z" fill="white"/>
<path fill-rule="evenodd" clip-rule="evenodd" d="M126.599 98.7041C127.866 98.5103 129.128 98.2718 130.401 98.1317C133.224 97.8208 136.051 97.5552 138.877 97.2799C140.027 97.167 140.216 97.3282 140.25 98.5218C140.297 100.159 140.327 101.797 140.329 103.435C140.331 104.634 140.587 105.61 141.906 106.034C142.558 106.244 142.639 106.836 142.476 107.629C139.785 106.077 137.213 104.525 134.577 103.092C131.934 101.656 129.225 100.34 126.544 98.9716C126.563 98.8828 126.581 98.7929 126.599 98.7041Z" fill="white"/>
<path fill-rule="evenodd" clip-rule="evenodd" d="M49.6028 120.399C49.691 121.142 49.8329 121.805 49.8395 122.47C49.8721 125.795 49.8878 129.121 49.8679 132.446C49.8631 133.407 49.7188 134.366 49.6415 135.327C49.6004 135.833 49.3462 136.141 48.824 136.147C47.7747 136.159 46.7242 136.151 45.6096 136.151C45.5336 135.687 45.4285 135.369 45.4376 135.053C45.5142 132.166 45.6024 129.278 45.705 126.391C45.7636 124.755 45.8692 123.121 45.9254 121.485C45.9489 120.783 46.2357 120.397 46.9632 120.398C47.7771 120.4 48.5903 120.399 49.6028 120.399Z" fill="white"/>
<path fill-rule="evenodd" clip-rule="evenodd" d="M157.207 137.937C157.467 137.889 157.725 137.808 157.986 137.797C167.272 137.424 176.558 137.189 185.843 137.835C185.949 137.843 186.047 138.002 186.334 138.253C185.834 138.372 185.499 138.524 185.168 138.518C182.136 138.466 179.105 138.378 176.072 138.32C173.521 138.271 170.968 138.203 168.417 138.229C165.337 138.261 162.259 138.392 159.18 138.462C158.528 138.477 157.875 138.41 157.222 138.382C157.218 138.233 157.213 138.085 157.207 137.937Z" fill="white"/>
<path fill-rule="evenodd" clip-rule="evenodd" d="M122.407 85.7432C122.547 86.0704 122.779 86.3874 122.815 86.7255C123.153 89.9332 123.464 93.1446 123.766 96.3559C123.802 96.7345 123.786 97.1335 123.707 97.5042C123.601 97.9963 123.202 98.2656 122.741 98.1382C122.509 98.0748 122.348 97.6914 122.196 97.4288C122.131 97.3177 122.169 97.1462 122.165 97.0013C122.063 93.7278 121.955 90.4536 121.866 87.1789C121.853 86.7267 121.927 86.2714 121.961 85.8174C122.11 85.7927 122.258 85.7679 122.407 85.7432Z" fill="white"/>
<path fill-rule="evenodd" clip-rule="evenodd" d="M31.2761 118.344C31.6408 117.659 32.0061 116.974 32.3701 116.29C32.4728 116.341 32.5754 116.393 32.678 116.445C32.4637 117.196 31.8871 117.773 31.5514 118.466C31.4603 118.426 31.3679 118.385 31.2761 118.344Z" fill="white"/>
<path fill-rule="evenodd" clip-rule="evenodd" d="M153.543 138.169H151.77C151.769 138.151 151.769 138.132 151.769 138.114H153.543V138.169Z" fill="white"/>
<path fill-rule="evenodd" clip-rule="evenodd" d="M104.343 15.7868C102.912 16.434 102.159 16.4907 101.402 16.7371C94.781 18.8949 85.5804 14.1421 83.9569 22.2378C84.1561 20.4411 85.0328 18.3587 88.5551 16.7932C90.152 16.0838 92.4861 16.1955 94.9579 16.3138C98.1113 16.4654 101.372 16.6211 103.749 15.1836C104.682 14.6203 105.415 13.8155 105.999 12.9425C105.964 13.1508 105.947 13.3742 105.956 13.6133C105.96 13.7189 105.974 13.8197 105.986 13.9224C105.682 14.726 105.066 15.4595 104.343 15.7868ZM81.0927 34.4185C71.9755 37.3371 69.6945 44.2355 72.2085 50.072C71.7611 49.5419 71.2902 48.8403 70.7969 47.9655C66.8701 40.9982 75.7024 35.5059 80.4485 32.5547C80.7105 32.3923 80.9605 32.2366 81.1978 32.0881C83.2155 30.8208 83.9835 29.3953 84.2129 27.9916C84.5268 30.3873 84.3669 33.371 81.0927 34.4185ZM106.808 11.5605C106.795 11.5708 106.782 11.5798 106.769 11.5901C106.788 11.5484 106.809 11.508 106.828 11.4663C106.821 11.4983 106.815 11.5291 106.808 11.5605ZM127.052 17.8232C125.801 15.9655 125.639 13.9338 125.744 11.7187C125.744 11.7048 125.746 11.6903 125.747 11.6764C125.785 11.3474 125.82 11.0183 125.849 10.6887C126.134 8.64981 126.792 6.10741 125.729 3.8367C125.079 2.68414 124.13 1.82259 122.926 1.21038C121.119 0.291474 117.07 -0.842975 113.343 0.943526C112.255 1.42049 111.32 2.06892 110.567 2.91538C109.493 4.12288 108.613 5.88282 107.949 7.66026L107.874 7.64939C107.873 7.65845 107.846 7.82811 107.789 8.09859C107.477 8.98127 107.219 9.8555 107.017 10.6603C106.854 11.069 106.662 11.4917 106.44 11.9137C106.313 12.0737 106.211 12.2578 106.131 12.4637C105.524 13.4714 104.722 14.4193 103.671 15.055C101.332 16.4678 98.0956 16.3132 94.9651 16.1629C92.4746 16.044 90.123 15.9311 88.4935 16.6556C84.4055 18.4722 83.8144 20.9808 83.7559 22.9636C83.751 23.1441 83.7607 23.3349 83.7764 23.5305C83.7359 23.97 83.707 24.4289 83.7033 24.9312C83.7009 25.3695 83.9436 26.2926 84.1266 27.4054C84.0197 28.9534 83.3495 30.5581 81.1175 31.9601C80.8808 32.1086 80.6308 32.2643 80.3688 32.4274C75.5799 35.4045 66.6679 40.9463 70.6665 48.0398C71.2769 49.1247 71.8589 49.944 72.4102 50.5097C75.674 57.3587 85.5949 62.5389 98.782 57.6551C108.111 53.7802 113.145 42.8729 112.125 34.2899C111.416 28.3225 109.651 26.5867 109.092 24.1427C109.393 22.1141 109.651 20.0788 109.833 18.0309C109.965 16.5433 109.949 16.4986 108.519 15.7578C107.418 15.1872 106.779 13.9628 107.172 13.0276C107.305 12.7082 107.632 12.3146 107.925 12.2639C108.185 12.2186 108.548 12.5688 108.81 12.8054C108.98 12.957 109.767 13.7865 110.069 13.9646C110.207 13.6869 110.425 13.4219 110.471 13.1296C110.482 13.0602 110.491 12.9908 110.501 12.9214C110.633 12.55 110.763 12.1504 110.836 11.8883C111.275 10.3138 111.646 8.71019 112.223 7.18632C112.773 5.7349 113.886 5.977 115.496 5.84478C116.93 5.72705 120.119 5.3497 121.078 3.91821C121.638 5.31106 122.342 5.69203 122.919 5.98666C124.761 6.9267 124.702 9.39484 124.554 10.4713C123.97 14.7205 123.267 18.951 121.051 22.7408C120.999 22.8289 120.958 22.9171 120.921 23.0052C120.339 23.3506 119.621 23.3445 118.587 23.0263C117.245 22.6122 115.965 22.064 114.88 21.1312C114.569 20.8637 114.18 20.4145 113.789 20.9307C113.434 21.4016 113.889 21.7446 114.227 21.9927C114.806 22.4196 115.398 22.847 116.038 23.1706C117.556 23.9398 119.137 24.4995 120.853 24.2689C120.886 24.4011 120.928 24.5351 120.982 24.6722C121.543 26.1067 122.015 27.5762 122.537 29.027C122.566 29.1085 122.604 29.19 122.637 29.2703C122.907 30.2213 123.178 31.171 123.459 32.1188C123.622 32.6695 123.584 33.3952 124.729 33.682C124.641 33.0208 124.632 32.556 124.513 32.1213C124.297 31.3328 124.073 30.5461 123.851 29.7594C125.665 28.5869 126.986 27.1192 127.721 25.0163C128.075 24.0038 129.388 20.2775 127.052 17.8232Z" fill="black"/>
<path fill-rule="evenodd" clip-rule="evenodd" d="M120.272 9.99292L121.195 13.6426L119.849 13.7778L120.272 9.99292Z" fill="black"/>
<path fill-rule="evenodd" clip-rule="evenodd" d="M120.275 10.0291L119.857 13.7699L121.187 13.6377L120.275 10.0291ZM119.849 13.7838C119.848 13.7838 119.846 13.7832 119.845 13.782C119.844 13.7808 119.843 13.779 119.843 13.7766L120.266 9.99225C120.266 9.98984 120.269 9.98742 120.272 9.98682C120.275 9.98742 120.278 9.98923 120.278 9.99165L121.201 13.6413C121.201 13.6431 121.201 13.6449 121.2 13.6468C121.199 13.648 121.197 13.6492 121.195 13.6492L119.85 13.7838H119.849Z" fill="black"/>
<path fill-rule="evenodd" clip-rule="evenodd" d="M117.222 12.363C116.983 12.3781 116.751 12.334 116.532 12.2519C116.558 12.2543 116.583 12.2556 116.609 12.2556C116.907 12.2556 117.196 12.1076 117.425 11.839C117.613 11.6174 117.734 11.3372 117.757 11.0722L119.165 11.0565C118.889 11.4477 118.182 12.3002 117.222 12.363ZM115.071 11.1018L115.464 11.097C115.493 11.3391 115.6 11.5908 115.764 11.7979C115.458 11.5522 115.216 11.2805 115.071 11.1018ZM119.513 10.8615C119.49 10.8216 119.45 10.7981 119.401 10.7981L114.813 10.8482C114.766 10.8488 114.723 10.8754 114.701 10.917C114.679 10.9593 114.682 11.0094 114.708 11.0487C114.72 11.0656 114.995 11.4671 115.44 11.8619C116.002 12.3612 116.583 12.622 117.129 12.622C117.166 12.622 117.203 12.6208 117.239 12.6184C117.814 12.5804 118.39 12.2857 118.905 11.7659C119.29 11.3777 119.505 11.0052 119.514 10.9901C119.537 10.9496 119.537 10.9007 119.513 10.8615Z" fill="black"/>
<path fill-rule="evenodd" clip-rule="evenodd" d="M122.857 12.088C121.672 12.1139 121.125 11.3858 120.932 11.0417L121.182 11.0435C121.21 11.2675 121.308 11.4715 121.467 11.6267C121.655 11.8109 121.911 11.9123 122.187 11.9123C122.694 11.9123 123.116 11.5428 123.2 11.0586L124.397 11.0676C124.164 11.4033 123.606 12.0729 122.857 12.088ZM124.74 10.8762C124.717 10.8382 124.676 10.8141 124.63 10.8135L120.73 10.7845C120.688 10.7833 120.648 10.8044 120.623 10.8388C120.599 10.8732 120.594 10.9173 120.608 10.9565C120.614 10.971 120.747 11.3206 121.091 11.6672C121.401 11.9781 121.947 12.3446 122.799 12.3446C122.82 12.3446 122.841 12.3446 122.862 12.344C124.007 12.3204 124.713 11.0568 124.742 11.003C124.764 10.9638 124.763 10.9155 124.74 10.8762Z" fill="black"/>
<path fill-rule="evenodd" clip-rule="evenodd" d="M119.372 8.34598C119.372 8.34598 119.541 9.43756 119.293 9.67182C118.077 9.67182 116.794 8.63336 115.462 8.74928C114.77 8.81026 113.887 9.68148 113.743 9.99301C113.743 9.36451 114.467 8.253 115.318 8.00003C116.901 7.5291 119.372 8.34598 119.372 8.34598Z" fill="black"/>
<path fill-rule="evenodd" clip-rule="evenodd" d="M116.476 7.86153C116.075 7.86153 115.675 7.90078 115.32 8.00643C114.936 8.12054 114.533 8.43147 114.216 8.85953C113.936 9.23688 113.759 9.65709 113.749 9.965C113.934 9.61724 114.8 8.80157 115.462 8.74361C116.178 8.68082 116.883 8.95311 117.564 9.21575C118.163 9.44698 118.729 9.66494 119.29 9.66554C119.523 9.43974 119.377 8.42242 119.366 8.35117C119.313 8.33367 118.711 8.14046 117.937 8.00281C117.517 7.92794 116.997 7.86153 116.476 7.86153ZM113.742 9.99942H113.741C113.738 9.99881 113.736 9.99579 113.736 9.99277C113.736 9.68063 113.916 9.24352 114.206 8.85229C114.525 8.42181 114.929 8.10907 115.317 7.99436C115.769 7.85972 116.59 7.74984 117.94 7.99073C118.746 8.13382 119.368 8.33789 119.374 8.3397C119.376 8.34091 119.378 8.34272 119.379 8.34514C119.385 8.38981 119.545 9.44276 119.297 9.67701C119.296 9.67822 119.295 9.67882 119.293 9.67882C118.728 9.67882 118.161 9.45906 117.559 9.22782C116.88 8.96519 116.176 8.6935 115.463 8.75569C114.789 8.81486 113.901 9.66614 113.748 9.99579C113.747 9.99821 113.745 9.99942 113.742 9.99942Z" fill="black"/>
<path fill-rule="evenodd" clip-rule="evenodd" d="M120.579 8.27417C120.579 8.27417 120.539 9.06569 120.585 9.49556C120.598 9.61088 120.702 9.69238 120.816 9.6791C121.901 9.55231 123.802 9.30115 124.86 9.60001C124.399 8.53016 120.579 8.27417 120.579 8.27417Z" fill="black"/>
<path fill-rule="evenodd" clip-rule="evenodd" d="M120.585 8.28075C120.582 8.35803 120.548 9.09098 120.592 9.49549C120.598 9.54862 120.624 9.59632 120.666 9.62953C120.709 9.66394 120.761 9.67903 120.816 9.673C120.879 9.66515 120.946 9.6573 121.014 9.64945C122.145 9.51602 123.85 9.31437 124.849 9.59028C124.601 9.04751 123.461 8.72088 122.546 8.54217C121.589 8.35501 120.672 8.28739 120.585 8.28075ZM120.792 9.68688C120.743 9.68688 120.697 9.67058 120.658 9.63979C120.614 9.60417 120.585 9.55285 120.579 9.4967C120.534 9.07106 120.572 8.28195 120.572 8.2735C120.572 8.27169 120.573 8.26988 120.575 8.26867C120.576 8.26807 120.578 8.26807 120.579 8.26807C120.589 8.26807 121.546 8.33388 122.548 8.52949C123.137 8.64481 123.625 8.78126 123.999 8.93582C124.469 9.12902 124.761 9.3518 124.867 9.59753C124.868 9.59994 124.868 9.60236 124.866 9.60417C124.864 9.60598 124.862 9.60658 124.859 9.60598C123.864 9.32524 122.149 9.5281 121.016 9.66213C120.947 9.67058 120.881 9.67783 120.818 9.68507C120.809 9.68628 120.8 9.68688 120.792 9.68688Z" fill="black"/>
<path fill-rule="evenodd" clip-rule="evenodd" d="M118.104 14.7002C118.742 15.3039 119.26 15.6396 120.125 15.697C120.99 15.7549 121.595 15.4386 121.595 15.4386C121.595 15.4386 120.903 16.6129 120.067 16.8308C118.338 17.283 118.419 15.9264 118.104 14.7002Z" fill="black"/>
<path fill-rule="evenodd" clip-rule="evenodd" d="M118.115 14.72C118.164 14.9132 118.203 15.11 118.242 15.3002C118.368 15.9233 118.486 16.5125 118.9 16.7709C119.172 16.9412 119.553 16.9587 120.065 16.8247C120.832 16.6242 121.485 15.6045 121.578 15.4536C121.467 15.5067 120.895 15.7542 120.124 15.7035C119.254 15.6449 118.744 15.3129 118.115 14.72ZM119.462 16.9261C119.236 16.9261 119.047 16.8778 118.893 16.7818C118.474 16.5198 118.355 15.9287 118.229 15.3026C118.19 15.1058 118.149 14.9017 118.097 14.7019C118.096 14.6989 118.098 14.6965 118.1 14.6946C118.103 14.6934 118.106 14.6934 118.108 14.6958C118.742 15.296 119.252 15.6323 120.125 15.6902C120.978 15.7476 121.586 15.436 121.592 15.433C121.595 15.4312 121.598 15.4318 121.599 15.4342C121.602 15.436 121.602 15.4391 121.601 15.4415C121.593 15.4536 120.898 16.62 120.069 16.8374C119.842 16.8959 119.64 16.9261 119.462 16.9261Z" fill="black"/>
</svg>