<svg xmlns:xlink="http://www.w3.org/1999/xlink" viewBox="0 0 24 24" xmlns="http://www.w3.org/2000/svg" class="block overflow-hidden pointer-events-none w-full h-full" width="24"  height="24" ><path fill-rule="evenodd" clip-rule="evenodd" d="M2 10.3283C2 5.73857 5.73857 2 10.3283 2C14.918 2 18.6566 5.73857 18.6566 10.3283C18.6566 12.3242 17.9478 14.1571 16.7713 15.5937L21.7439 20.5662C21.9615 20.7751 22.0491 21.0853 21.973 21.3772C21.897 21.669 21.669 21.897 21.3772 21.973C21.0853 22.0491 20.7751 21.9615 20.5662 21.7439L15.5937 16.7713C14.1571 17.9478 12.3242 18.6566 10.3283 18.6566C5.73857 18.6566 2 14.918 2 10.3283ZM16.9909 10.3283C16.9909 6.63876 14.0178 3.66566 10.3283 3.66566C6.63875 3.66566 3.66565 6.63876 3.66565 10.3283C3.66565 14.0178 6.63875 16.9909 10.3283 16.9909C14.0178 16.9909 16.9909 14.0178 16.9909 10.3283Z" fill="#667C89"></path></svg>